G04 #@! TF.GenerationSoftware,KiCad,Pcbnew,5.1.6-c6e7f7d~87~ubuntu18.04.1*
G04 #@! TF.CreationDate,2020-11-08T18:53:39-05:00*
G04 #@! TF.ProjectId,modulation_source,6d6f6475-6c61-4746-996f-6e5f736f7572,0*
G04 #@! TF.SameCoordinates,Original*
G04 #@! TF.FileFunction,Legend,Bot*
G04 #@! TF.FilePolarity,Positive*
%FSLAX46Y46*%
G04 Gerber Fmt 4.6, Leading zero omitted, Abs format (unit mm)*
G04 Created by KiCad (PCBNEW 5.1.6-c6e7f7d~87~ubuntu18.04.1) date 2020-11-08 18:53:39*
%MOMM*%
%LPD*%
G01*
G04 APERTURE LIST*
%ADD10C,0.150000*%
%ADD11C,0.120000*%
G04 APERTURE END LIST*
D10*
X140191666Y-146280714D02*
X140191666Y-147280714D01*
X140191666Y-146328333D02*
X140096428Y-146280714D01*
X139905952Y-146280714D01*
X139810714Y-146328333D01*
X139763095Y-146375952D01*
X139715476Y-146471190D01*
X139715476Y-146756904D01*
X139763095Y-146852142D01*
X139810714Y-146899761D01*
X139905952Y-146947380D01*
X140096428Y-146947380D01*
X140191666Y-146899761D01*
X139286904Y-146947380D02*
X139286904Y-146280714D01*
X139286904Y-145947380D02*
X139334523Y-145995000D01*
X139286904Y-146042619D01*
X139239285Y-145995000D01*
X139286904Y-145947380D01*
X139286904Y-146042619D01*
X138810714Y-146280714D02*
X138810714Y-146947380D01*
X138810714Y-146375952D02*
X138763095Y-146328333D01*
X138667857Y-146280714D01*
X138525000Y-146280714D01*
X138429761Y-146328333D01*
X138382142Y-146423571D01*
X138382142Y-146947380D01*
X137905952Y-146947380D02*
X137905952Y-145947380D01*
X137810714Y-146566428D02*
X137525000Y-146947380D01*
X137525000Y-146280714D02*
X137905952Y-146661666D01*
X136334523Y-146280714D02*
X136334523Y-146947380D01*
X136334523Y-146375952D02*
X136286904Y-146328333D01*
X136191666Y-146280714D01*
X136048809Y-146280714D01*
X135953571Y-146328333D01*
X135905952Y-146423571D01*
X135905952Y-146947380D01*
X135286904Y-146947380D02*
X135382142Y-146899761D01*
X135429761Y-146852142D01*
X135477380Y-146756904D01*
X135477380Y-146471190D01*
X135429761Y-146375952D01*
X135382142Y-146328333D01*
X135286904Y-146280714D01*
X135144047Y-146280714D01*
X135048809Y-146328333D01*
X135001190Y-146375952D01*
X134953571Y-146471190D01*
X134953571Y-146756904D01*
X135001190Y-146852142D01*
X135048809Y-146899761D01*
X135144047Y-146947380D01*
X135286904Y-146947380D01*
X134525000Y-146947380D02*
X134525000Y-146280714D01*
X134525000Y-145947380D02*
X134572619Y-145995000D01*
X134525000Y-146042619D01*
X134477380Y-145995000D01*
X134525000Y-145947380D01*
X134525000Y-146042619D01*
X134096428Y-146899761D02*
X134001190Y-146947380D01*
X133810714Y-146947380D01*
X133715476Y-146899761D01*
X133667857Y-146804523D01*
X133667857Y-146756904D01*
X133715476Y-146661666D01*
X133810714Y-146614047D01*
X133953571Y-146614047D01*
X134048809Y-146566428D01*
X134096428Y-146471190D01*
X134096428Y-146423571D01*
X134048809Y-146328333D01*
X133953571Y-146280714D01*
X133810714Y-146280714D01*
X133715476Y-146328333D01*
X132858333Y-146899761D02*
X132953571Y-146947380D01*
X133144047Y-146947380D01*
X133239285Y-146899761D01*
X133286904Y-146804523D01*
X133286904Y-146423571D01*
X133239285Y-146328333D01*
X133144047Y-146280714D01*
X132953571Y-146280714D01*
X132858333Y-146328333D01*
X132810714Y-146423571D01*
X132810714Y-146518809D01*
X133286904Y-146614047D01*
X137334523Y-148597380D02*
X137429761Y-148549761D01*
X137477380Y-148502142D01*
X137525000Y-148406904D01*
X137525000Y-148121190D01*
X137477380Y-148025952D01*
X137429761Y-147978333D01*
X137334523Y-147930714D01*
X137191666Y-147930714D01*
X137096428Y-147978333D01*
X137048809Y-148025952D01*
X137001190Y-148121190D01*
X137001190Y-148406904D01*
X137048809Y-148502142D01*
X137096428Y-148549761D01*
X137191666Y-148597380D01*
X137334523Y-148597380D01*
X136144047Y-147930714D02*
X136144047Y-148597380D01*
X136572619Y-147930714D02*
X136572619Y-148454523D01*
X136525000Y-148549761D01*
X136429761Y-148597380D01*
X136286904Y-148597380D01*
X136191666Y-148549761D01*
X136144047Y-148502142D01*
X135810714Y-147930714D02*
X135429761Y-147930714D01*
X135667857Y-147597380D02*
X135667857Y-148454523D01*
X135620238Y-148549761D01*
X135525000Y-148597380D01*
X135429761Y-148597380D01*
X124792857Y-146280714D02*
X124602380Y-146947380D01*
X124411904Y-146471190D01*
X124221428Y-146947380D01*
X124030952Y-146280714D01*
X123650000Y-146947380D02*
X123650000Y-145947380D01*
X123221428Y-146947380D02*
X123221428Y-146423571D01*
X123269047Y-146328333D01*
X123364285Y-146280714D01*
X123507142Y-146280714D01*
X123602380Y-146328333D01*
X123650000Y-146375952D01*
X122745238Y-146947380D02*
X122745238Y-146280714D01*
X122745238Y-145947380D02*
X122792857Y-145995000D01*
X122745238Y-146042619D01*
X122697619Y-145995000D01*
X122745238Y-145947380D01*
X122745238Y-146042619D01*
X122411904Y-146280714D02*
X122030952Y-146280714D01*
X122269047Y-145947380D02*
X122269047Y-146804523D01*
X122221428Y-146899761D01*
X122126190Y-146947380D01*
X122030952Y-146947380D01*
X121316666Y-146899761D02*
X121411904Y-146947380D01*
X121602380Y-146947380D01*
X121697619Y-146899761D01*
X121745238Y-146804523D01*
X121745238Y-146423571D01*
X121697619Y-146328333D01*
X121602380Y-146280714D01*
X121411904Y-146280714D01*
X121316666Y-146328333D01*
X121269047Y-146423571D01*
X121269047Y-146518809D01*
X121745238Y-146614047D01*
X120078571Y-146280714D02*
X120078571Y-146947380D01*
X120078571Y-146375952D02*
X120030952Y-146328333D01*
X119935714Y-146280714D01*
X119792857Y-146280714D01*
X119697619Y-146328333D01*
X119650000Y-146423571D01*
X119650000Y-146947380D01*
X119030952Y-146947380D02*
X119126190Y-146899761D01*
X119173809Y-146852142D01*
X119221428Y-146756904D01*
X119221428Y-146471190D01*
X119173809Y-146375952D01*
X119126190Y-146328333D01*
X119030952Y-146280714D01*
X118888095Y-146280714D01*
X118792857Y-146328333D01*
X118745238Y-146375952D01*
X118697619Y-146471190D01*
X118697619Y-146756904D01*
X118745238Y-146852142D01*
X118792857Y-146899761D01*
X118888095Y-146947380D01*
X119030952Y-146947380D01*
X118269047Y-146947380D02*
X118269047Y-146280714D01*
X118269047Y-145947380D02*
X118316666Y-145995000D01*
X118269047Y-146042619D01*
X118221428Y-145995000D01*
X118269047Y-145947380D01*
X118269047Y-146042619D01*
X117840476Y-146899761D02*
X117745238Y-146947380D01*
X117554761Y-146947380D01*
X117459523Y-146899761D01*
X117411904Y-146804523D01*
X117411904Y-146756904D01*
X117459523Y-146661666D01*
X117554761Y-146614047D01*
X117697619Y-146614047D01*
X117792857Y-146566428D01*
X117840476Y-146471190D01*
X117840476Y-146423571D01*
X117792857Y-146328333D01*
X117697619Y-146280714D01*
X117554761Y-146280714D01*
X117459523Y-146328333D01*
X116602380Y-146899761D02*
X116697619Y-146947380D01*
X116888095Y-146947380D01*
X116983333Y-146899761D01*
X117030952Y-146804523D01*
X117030952Y-146423571D01*
X116983333Y-146328333D01*
X116888095Y-146280714D01*
X116697619Y-146280714D01*
X116602380Y-146328333D01*
X116554761Y-146423571D01*
X116554761Y-146518809D01*
X117030952Y-146614047D01*
X121459523Y-148597380D02*
X121554761Y-148549761D01*
X121602380Y-148502142D01*
X121650000Y-148406904D01*
X121650000Y-148121190D01*
X121602380Y-148025952D01*
X121554761Y-147978333D01*
X121459523Y-147930714D01*
X121316666Y-147930714D01*
X121221428Y-147978333D01*
X121173809Y-148025952D01*
X121126190Y-148121190D01*
X121126190Y-148406904D01*
X121173809Y-148502142D01*
X121221428Y-148549761D01*
X121316666Y-148597380D01*
X121459523Y-148597380D01*
X120269047Y-147930714D02*
X120269047Y-148597380D01*
X120697619Y-147930714D02*
X120697619Y-148454523D01*
X120650000Y-148549761D01*
X120554761Y-148597380D01*
X120411904Y-148597380D01*
X120316666Y-148549761D01*
X120269047Y-148502142D01*
X119935714Y-147930714D02*
X119554761Y-147930714D01*
X119792857Y-147597380D02*
X119792857Y-148454523D01*
X119745238Y-148549761D01*
X119650000Y-148597380D01*
X119554761Y-148597380D01*
X106695714Y-135469761D02*
X106600476Y-135517380D01*
X106410000Y-135517380D01*
X106314761Y-135469761D01*
X106267142Y-135374523D01*
X106267142Y-135326904D01*
X106314761Y-135231666D01*
X106410000Y-135184047D01*
X106552857Y-135184047D01*
X106648095Y-135136428D01*
X106695714Y-135041190D01*
X106695714Y-134993571D01*
X106648095Y-134898333D01*
X106552857Y-134850714D01*
X106410000Y-134850714D01*
X106314761Y-134898333D01*
X105029047Y-135517380D02*
X105076666Y-135517380D01*
X105171904Y-135469761D01*
X105314761Y-135326904D01*
X105552857Y-135041190D01*
X105648095Y-134898333D01*
X105695714Y-134755476D01*
X105695714Y-134660238D01*
X105648095Y-134565000D01*
X105552857Y-134517380D01*
X105505238Y-134517380D01*
X105410000Y-134565000D01*
X105362380Y-134660238D01*
X105362380Y-134707857D01*
X105410000Y-134803095D01*
X105457619Y-134850714D01*
X105743333Y-135041190D01*
X105790952Y-135088809D01*
X105838571Y-135184047D01*
X105838571Y-135326904D01*
X105790952Y-135422142D01*
X105743333Y-135469761D01*
X105648095Y-135517380D01*
X105505238Y-135517380D01*
X105410000Y-135469761D01*
X105362380Y-135422142D01*
X105219523Y-135231666D01*
X105171904Y-135088809D01*
X105171904Y-134993571D01*
X104600476Y-135517380D02*
X104600476Y-134517380D01*
X104171904Y-135517380D02*
X104171904Y-134993571D01*
X104219523Y-134898333D01*
X104314761Y-134850714D01*
X104457619Y-134850714D01*
X104552857Y-134898333D01*
X104600476Y-134945952D01*
X105862380Y-137167380D02*
X105862380Y-136500714D01*
X105862380Y-136167380D02*
X105910000Y-136215000D01*
X105862380Y-136262619D01*
X105814761Y-136215000D01*
X105862380Y-136167380D01*
X105862380Y-136262619D01*
X105386190Y-136500714D02*
X105386190Y-137167380D01*
X105386190Y-136595952D02*
X105338571Y-136548333D01*
X105243333Y-136500714D01*
X105100476Y-136500714D01*
X105005238Y-136548333D01*
X104957619Y-136643571D01*
X104957619Y-137167380D01*
X121935714Y-135914761D02*
X121840476Y-135962380D01*
X121650000Y-135962380D01*
X121554761Y-135914761D01*
X121507142Y-135819523D01*
X121507142Y-135771904D01*
X121554761Y-135676666D01*
X121650000Y-135629047D01*
X121792857Y-135629047D01*
X121888095Y-135581428D01*
X121935714Y-135486190D01*
X121935714Y-135438571D01*
X121888095Y-135343333D01*
X121792857Y-135295714D01*
X121650000Y-135295714D01*
X121554761Y-135343333D01*
X120269047Y-135962380D02*
X120316666Y-135962380D01*
X120411904Y-135914761D01*
X120554761Y-135771904D01*
X120792857Y-135486190D01*
X120888095Y-135343333D01*
X120935714Y-135200476D01*
X120935714Y-135105238D01*
X120888095Y-135010000D01*
X120792857Y-134962380D01*
X120745238Y-134962380D01*
X120650000Y-135010000D01*
X120602380Y-135105238D01*
X120602380Y-135152857D01*
X120650000Y-135248095D01*
X120697619Y-135295714D01*
X120983333Y-135486190D01*
X121030952Y-135533809D01*
X121078571Y-135629047D01*
X121078571Y-135771904D01*
X121030952Y-135867142D01*
X120983333Y-135914761D01*
X120888095Y-135962380D01*
X120745238Y-135962380D01*
X120650000Y-135914761D01*
X120602380Y-135867142D01*
X120459523Y-135676666D01*
X120411904Y-135533809D01*
X120411904Y-135438571D01*
X119840476Y-135962380D02*
X119840476Y-134962380D01*
X119411904Y-135962380D02*
X119411904Y-135438571D01*
X119459523Y-135343333D01*
X119554761Y-135295714D01*
X119697619Y-135295714D01*
X119792857Y-135343333D01*
X119840476Y-135390952D01*
X121959523Y-137564761D02*
X122054761Y-137612380D01*
X122245238Y-137612380D01*
X122340476Y-137564761D01*
X122388095Y-137517142D01*
X122435714Y-137421904D01*
X122435714Y-137136190D01*
X122388095Y-137040952D01*
X122340476Y-136993333D01*
X122245238Y-136945714D01*
X122054761Y-136945714D01*
X121959523Y-136993333D01*
X121388095Y-137612380D02*
X121483333Y-137564761D01*
X121530952Y-137469523D01*
X121530952Y-136612380D01*
X120864285Y-137612380D02*
X120959523Y-137564761D01*
X121007142Y-137517142D01*
X121054761Y-137421904D01*
X121054761Y-137136190D01*
X121007142Y-137040952D01*
X120959523Y-136993333D01*
X120864285Y-136945714D01*
X120721428Y-136945714D01*
X120626190Y-136993333D01*
X120578571Y-137040952D01*
X120530952Y-137136190D01*
X120530952Y-137421904D01*
X120578571Y-137517142D01*
X120626190Y-137564761D01*
X120721428Y-137612380D01*
X120864285Y-137612380D01*
X119673809Y-137564761D02*
X119769047Y-137612380D01*
X119959523Y-137612380D01*
X120054761Y-137564761D01*
X120102380Y-137517142D01*
X120150000Y-137421904D01*
X120150000Y-137136190D01*
X120102380Y-137040952D01*
X120054761Y-136993333D01*
X119959523Y-136945714D01*
X119769047Y-136945714D01*
X119673809Y-136993333D01*
X119245238Y-137612380D02*
X119245238Y-136612380D01*
X119150000Y-137231428D02*
X118864285Y-137612380D01*
X118864285Y-136945714D02*
X119245238Y-137326666D01*
X121102380Y-139262380D02*
X121102380Y-138595714D01*
X121102380Y-138262380D02*
X121150000Y-138310000D01*
X121102380Y-138357619D01*
X121054761Y-138310000D01*
X121102380Y-138262380D01*
X121102380Y-138357619D01*
X120626190Y-138595714D02*
X120626190Y-139262380D01*
X120626190Y-138690952D02*
X120578571Y-138643333D01*
X120483333Y-138595714D01*
X120340476Y-138595714D01*
X120245238Y-138643333D01*
X120197619Y-138738571D01*
X120197619Y-139262380D01*
X137175714Y-135469761D02*
X137080476Y-135517380D01*
X136890000Y-135517380D01*
X136794761Y-135469761D01*
X136747142Y-135374523D01*
X136747142Y-135326904D01*
X136794761Y-135231666D01*
X136890000Y-135184047D01*
X137032857Y-135184047D01*
X137128095Y-135136428D01*
X137175714Y-135041190D01*
X137175714Y-134993571D01*
X137128095Y-134898333D01*
X137032857Y-134850714D01*
X136890000Y-134850714D01*
X136794761Y-134898333D01*
X135509047Y-135517380D02*
X135556666Y-135517380D01*
X135651904Y-135469761D01*
X135794761Y-135326904D01*
X136032857Y-135041190D01*
X136128095Y-134898333D01*
X136175714Y-134755476D01*
X136175714Y-134660238D01*
X136128095Y-134565000D01*
X136032857Y-134517380D01*
X135985238Y-134517380D01*
X135890000Y-134565000D01*
X135842380Y-134660238D01*
X135842380Y-134707857D01*
X135890000Y-134803095D01*
X135937619Y-134850714D01*
X136223333Y-135041190D01*
X136270952Y-135088809D01*
X136318571Y-135184047D01*
X136318571Y-135326904D01*
X136270952Y-135422142D01*
X136223333Y-135469761D01*
X136128095Y-135517380D01*
X135985238Y-135517380D01*
X135890000Y-135469761D01*
X135842380Y-135422142D01*
X135699523Y-135231666D01*
X135651904Y-135088809D01*
X135651904Y-134993571D01*
X135080476Y-135517380D02*
X135080476Y-134517380D01*
X134651904Y-135517380D02*
X134651904Y-134993571D01*
X134699523Y-134898333D01*
X134794761Y-134850714D01*
X134937619Y-134850714D01*
X135032857Y-134898333D01*
X135080476Y-134945952D01*
X136699523Y-137167380D02*
X136794761Y-137119761D01*
X136842380Y-137072142D01*
X136890000Y-136976904D01*
X136890000Y-136691190D01*
X136842380Y-136595952D01*
X136794761Y-136548333D01*
X136699523Y-136500714D01*
X136556666Y-136500714D01*
X136461428Y-136548333D01*
X136413809Y-136595952D01*
X136366190Y-136691190D01*
X136366190Y-136976904D01*
X136413809Y-137072142D01*
X136461428Y-137119761D01*
X136556666Y-137167380D01*
X136699523Y-137167380D01*
X135509047Y-136500714D02*
X135509047Y-137167380D01*
X135937619Y-136500714D02*
X135937619Y-137024523D01*
X135890000Y-137119761D01*
X135794761Y-137167380D01*
X135651904Y-137167380D01*
X135556666Y-137119761D01*
X135509047Y-137072142D01*
X135175714Y-136500714D02*
X134794761Y-136500714D01*
X135032857Y-136167380D02*
X135032857Y-137024523D01*
X134985238Y-137119761D01*
X134890000Y-137167380D01*
X134794761Y-137167380D01*
X137223333Y-122769761D02*
X137128095Y-122817380D01*
X136937619Y-122817380D01*
X136842380Y-122769761D01*
X136794761Y-122674523D01*
X136794761Y-122626904D01*
X136842380Y-122531666D01*
X136937619Y-122484047D01*
X137080476Y-122484047D01*
X137175714Y-122436428D01*
X137223333Y-122341190D01*
X137223333Y-122293571D01*
X137175714Y-122198333D01*
X137080476Y-122150714D01*
X136937619Y-122150714D01*
X136842380Y-122198333D01*
X136366190Y-122817380D02*
X136366190Y-122150714D01*
X136366190Y-121817380D02*
X136413809Y-121865000D01*
X136366190Y-121912619D01*
X136318571Y-121865000D01*
X136366190Y-121817380D01*
X136366190Y-121912619D01*
X135890000Y-122150714D02*
X135890000Y-122817380D01*
X135890000Y-122245952D02*
X135842380Y-122198333D01*
X135747142Y-122150714D01*
X135604285Y-122150714D01*
X135509047Y-122198333D01*
X135461428Y-122293571D01*
X135461428Y-122817380D01*
X134604285Y-122769761D02*
X134699523Y-122817380D01*
X134890000Y-122817380D01*
X134985238Y-122769761D01*
X135032857Y-122674523D01*
X135032857Y-122293571D01*
X134985238Y-122198333D01*
X134890000Y-122150714D01*
X134699523Y-122150714D01*
X134604285Y-122198333D01*
X134556666Y-122293571D01*
X134556666Y-122388809D01*
X135032857Y-122484047D01*
X136699523Y-124467380D02*
X136794761Y-124419761D01*
X136842380Y-124372142D01*
X136890000Y-124276904D01*
X136890000Y-123991190D01*
X136842380Y-123895952D01*
X136794761Y-123848333D01*
X136699523Y-123800714D01*
X136556666Y-123800714D01*
X136461428Y-123848333D01*
X136413809Y-123895952D01*
X136366190Y-123991190D01*
X136366190Y-124276904D01*
X136413809Y-124372142D01*
X136461428Y-124419761D01*
X136556666Y-124467380D01*
X136699523Y-124467380D01*
X135509047Y-123800714D02*
X135509047Y-124467380D01*
X135937619Y-123800714D02*
X135937619Y-124324523D01*
X135890000Y-124419761D01*
X135794761Y-124467380D01*
X135651904Y-124467380D01*
X135556666Y-124419761D01*
X135509047Y-124372142D01*
X135175714Y-123800714D02*
X134794761Y-123800714D01*
X135032857Y-123467380D02*
X135032857Y-124324523D01*
X134985238Y-124419761D01*
X134890000Y-124467380D01*
X134794761Y-124467380D01*
X121626190Y-122769761D02*
X121530952Y-122817380D01*
X121340476Y-122817380D01*
X121245238Y-122769761D01*
X121197619Y-122674523D01*
X121197619Y-122626904D01*
X121245238Y-122531666D01*
X121340476Y-122484047D01*
X121483333Y-122484047D01*
X121578571Y-122436428D01*
X121626190Y-122341190D01*
X121626190Y-122293571D01*
X121578571Y-122198333D01*
X121483333Y-122150714D01*
X121340476Y-122150714D01*
X121245238Y-122198333D01*
X120340476Y-122150714D02*
X120340476Y-123150714D01*
X120340476Y-122769761D02*
X120435714Y-122817380D01*
X120626190Y-122817380D01*
X120721428Y-122769761D01*
X120769047Y-122722142D01*
X120816666Y-122626904D01*
X120816666Y-122341190D01*
X120769047Y-122245952D01*
X120721428Y-122198333D01*
X120626190Y-122150714D01*
X120435714Y-122150714D01*
X120340476Y-122198333D01*
X119864285Y-122817380D02*
X119864285Y-122150714D01*
X119864285Y-122341190D02*
X119816666Y-122245952D01*
X119769047Y-122198333D01*
X119673809Y-122150714D01*
X119578571Y-122150714D01*
X121459523Y-124467380D02*
X121554761Y-124419761D01*
X121602380Y-124372142D01*
X121650000Y-124276904D01*
X121650000Y-123991190D01*
X121602380Y-123895952D01*
X121554761Y-123848333D01*
X121459523Y-123800714D01*
X121316666Y-123800714D01*
X121221428Y-123848333D01*
X121173809Y-123895952D01*
X121126190Y-123991190D01*
X121126190Y-124276904D01*
X121173809Y-124372142D01*
X121221428Y-124419761D01*
X121316666Y-124467380D01*
X121459523Y-124467380D01*
X120269047Y-123800714D02*
X120269047Y-124467380D01*
X120697619Y-123800714D02*
X120697619Y-124324523D01*
X120650000Y-124419761D01*
X120554761Y-124467380D01*
X120411904Y-124467380D01*
X120316666Y-124419761D01*
X120269047Y-124372142D01*
X119935714Y-123800714D02*
X119554761Y-123800714D01*
X119792857Y-123467380D02*
X119792857Y-124324523D01*
X119745238Y-124419761D01*
X119650000Y-124467380D01*
X119554761Y-124467380D01*
X106052857Y-123452380D02*
X106529047Y-123452380D01*
X106529047Y-122452380D01*
X105386190Y-122928571D02*
X105719523Y-122928571D01*
X105719523Y-123452380D02*
X105719523Y-122452380D01*
X105243333Y-122452380D01*
X104671904Y-122452380D02*
X104481428Y-122452380D01*
X104386190Y-122500000D01*
X104290952Y-122595238D01*
X104243333Y-122785714D01*
X104243333Y-123119047D01*
X104290952Y-123309523D01*
X104386190Y-123404761D01*
X104481428Y-123452380D01*
X104671904Y-123452380D01*
X104767142Y-123404761D01*
X104862380Y-123309523D01*
X104910000Y-123119047D01*
X104910000Y-122785714D01*
X104862380Y-122595238D01*
X104767142Y-122500000D01*
X104671904Y-122452380D01*
X106910000Y-124578571D02*
X107243333Y-124578571D01*
X107243333Y-125102380D02*
X107243333Y-124102380D01*
X106767142Y-124102380D01*
X106386190Y-125102380D02*
X106386190Y-124102380D01*
X106052857Y-124816666D01*
X105719523Y-124102380D01*
X105719523Y-125102380D01*
X104481428Y-125102380D02*
X104481428Y-124435714D01*
X104481428Y-124102380D02*
X104529047Y-124150000D01*
X104481428Y-124197619D01*
X104433809Y-124150000D01*
X104481428Y-124102380D01*
X104481428Y-124197619D01*
X104005238Y-124435714D02*
X104005238Y-125102380D01*
X104005238Y-124530952D02*
X103957619Y-124483333D01*
X103862380Y-124435714D01*
X103719523Y-124435714D01*
X103624285Y-124483333D01*
X103576666Y-124578571D01*
X103576666Y-125102380D01*
X145184761Y-69453095D02*
X145232380Y-69357857D01*
X145232380Y-69167380D01*
X145184761Y-69072142D01*
X145137142Y-69024523D01*
X145041904Y-68976904D01*
X144756190Y-68976904D01*
X144660952Y-69024523D01*
X144613333Y-69072142D01*
X144565714Y-69167380D01*
X144565714Y-69357857D01*
X144613333Y-69453095D01*
X145184761Y-73215476D02*
X145232380Y-73120238D01*
X145232380Y-72929761D01*
X145184761Y-72834523D01*
X145089523Y-72786904D01*
X144708571Y-72786904D01*
X144613333Y-72834523D01*
X144565714Y-72929761D01*
X144565714Y-73120238D01*
X144613333Y-73215476D01*
X144708571Y-73263095D01*
X144803809Y-73263095D01*
X144899047Y-72786904D01*
X145232380Y-70905714D02*
X144232380Y-70905714D01*
X144613333Y-70905714D02*
X144565714Y-71000952D01*
X144565714Y-71191428D01*
X144613333Y-71286666D01*
X144660952Y-71334285D01*
X144756190Y-71381904D01*
X145041904Y-71381904D01*
X145137142Y-71334285D01*
X145184761Y-71286666D01*
X145232380Y-71191428D01*
X145232380Y-71000952D01*
X145184761Y-70905714D01*
X146671161Y-69148580D02*
X146718780Y-69243819D01*
X146718780Y-69434295D01*
X146671161Y-69529533D01*
X146575923Y-69577152D01*
X146528304Y-69577152D01*
X146433066Y-69529533D01*
X146385447Y-69434295D01*
X146385447Y-69291438D01*
X146337828Y-69196200D01*
X146242590Y-69148580D01*
X146194971Y-69148580D01*
X146099733Y-69196200D01*
X146052114Y-69291438D01*
X146052114Y-69434295D01*
X146099733Y-69529533D01*
X146671161Y-70386676D02*
X146718780Y-70291438D01*
X146718780Y-70100961D01*
X146671161Y-70005723D01*
X146575923Y-69958104D01*
X146194971Y-69958104D01*
X146099733Y-70005723D01*
X146052114Y-70100961D01*
X146052114Y-70291438D01*
X146099733Y-70386676D01*
X146194971Y-70434295D01*
X146290209Y-70434295D01*
X146385447Y-69958104D01*
X146718780Y-71005723D02*
X146671161Y-70910485D01*
X146575923Y-70862866D01*
X145718780Y-70862866D01*
X146671161Y-71767628D02*
X146718780Y-71672390D01*
X146718780Y-71481914D01*
X146671161Y-71386676D01*
X146575923Y-71339057D01*
X146194971Y-71339057D01*
X146099733Y-71386676D01*
X146052114Y-71481914D01*
X146052114Y-71672390D01*
X146099733Y-71767628D01*
X146194971Y-71815247D01*
X146290209Y-71815247D01*
X146385447Y-71339057D01*
X146671161Y-72672390D02*
X146718780Y-72577152D01*
X146718780Y-72386676D01*
X146671161Y-72291438D01*
X146623542Y-72243819D01*
X146528304Y-72196200D01*
X146242590Y-72196200D01*
X146147352Y-72243819D01*
X146099733Y-72291438D01*
X146052114Y-72386676D01*
X146052114Y-72577152D01*
X146099733Y-72672390D01*
X146052114Y-72958104D02*
X146052114Y-73339057D01*
X145718780Y-73100961D02*
X146575923Y-73100961D01*
X146671161Y-73148580D01*
X146718780Y-73243819D01*
X146718780Y-73339057D01*
X147702114Y-67886676D02*
X147702114Y-68267628D01*
X148368780Y-68029533D02*
X147511638Y-68029533D01*
X147416400Y-68077152D01*
X147368780Y-68172390D01*
X147368780Y-68267628D01*
X148368780Y-68743819D02*
X148321161Y-68648580D01*
X148273542Y-68600961D01*
X148178304Y-68553342D01*
X147892590Y-68553342D01*
X147797352Y-68600961D01*
X147749733Y-68648580D01*
X147702114Y-68743819D01*
X147702114Y-68886676D01*
X147749733Y-68981914D01*
X147797352Y-69029533D01*
X147892590Y-69077152D01*
X148178304Y-69077152D01*
X148273542Y-69029533D01*
X148321161Y-68981914D01*
X148368780Y-68886676D01*
X148368780Y-68743819D01*
X148368780Y-69505723D02*
X147702114Y-69505723D01*
X147892590Y-69505723D02*
X147797352Y-69553342D01*
X147749733Y-69600961D01*
X147702114Y-69696200D01*
X147702114Y-69791438D01*
X147702114Y-70886676D02*
X148368780Y-70886676D01*
X147797352Y-70886676D02*
X147749733Y-70934295D01*
X147702114Y-71029533D01*
X147702114Y-71172390D01*
X147749733Y-71267628D01*
X147844971Y-71315247D01*
X148368780Y-71315247D01*
X148368780Y-71934295D02*
X148321161Y-71839057D01*
X148273542Y-71791438D01*
X148178304Y-71743819D01*
X147892590Y-71743819D01*
X147797352Y-71791438D01*
X147749733Y-71839057D01*
X147702114Y-71934295D01*
X147702114Y-72077152D01*
X147749733Y-72172390D01*
X147797352Y-72220009D01*
X147892590Y-72267628D01*
X148178304Y-72267628D01*
X148273542Y-72220009D01*
X148321161Y-72172390D01*
X148368780Y-72077152D01*
X148368780Y-71934295D01*
X148368780Y-72696200D02*
X147702114Y-72696200D01*
X147368780Y-72696200D02*
X147416400Y-72648580D01*
X147464019Y-72696200D01*
X147416400Y-72743819D01*
X147368780Y-72696200D01*
X147464019Y-72696200D01*
X148321161Y-73124771D02*
X148368780Y-73220009D01*
X148368780Y-73410485D01*
X148321161Y-73505723D01*
X148225923Y-73553342D01*
X148178304Y-73553342D01*
X148083066Y-73505723D01*
X148035447Y-73410485D01*
X148035447Y-73267628D01*
X147987828Y-73172390D01*
X147892590Y-73124771D01*
X147844971Y-73124771D01*
X147749733Y-73172390D01*
X147702114Y-73267628D01*
X147702114Y-73410485D01*
X147749733Y-73505723D01*
X148321161Y-74362866D02*
X148368780Y-74267628D01*
X148368780Y-74077152D01*
X148321161Y-73981914D01*
X148225923Y-73934295D01*
X147844971Y-73934295D01*
X147749733Y-73981914D01*
X147702114Y-74077152D01*
X147702114Y-74267628D01*
X147749733Y-74362866D01*
X147844971Y-74410485D01*
X147940209Y-74410485D01*
X148035447Y-73934295D01*
X133855833Y-56935714D02*
X133855833Y-57745238D01*
X133903452Y-57840476D01*
X133951071Y-57888095D01*
X134046309Y-57935714D01*
X134189166Y-57935714D01*
X134284404Y-57888095D01*
X133855833Y-57554761D02*
X133951071Y-57602380D01*
X134141547Y-57602380D01*
X134236785Y-57554761D01*
X134284404Y-57507142D01*
X134332023Y-57411904D01*
X134332023Y-57126190D01*
X134284404Y-57030952D01*
X134236785Y-56983333D01*
X134141547Y-56935714D01*
X133951071Y-56935714D01*
X133855833Y-56983333D01*
X133379642Y-56935714D02*
X133379642Y-57602380D01*
X133379642Y-57030952D02*
X133332023Y-56983333D01*
X133236785Y-56935714D01*
X133093928Y-56935714D01*
X132998690Y-56983333D01*
X132951071Y-57078571D01*
X132951071Y-57602380D01*
X132046309Y-57602380D02*
X132046309Y-56602380D01*
X132046309Y-57554761D02*
X132141547Y-57602380D01*
X132332023Y-57602380D01*
X132427261Y-57554761D01*
X132474880Y-57507142D01*
X132522500Y-57411904D01*
X132522500Y-57126190D01*
X132474880Y-57030952D01*
X132427261Y-56983333D01*
X132332023Y-56935714D01*
X132141547Y-56935714D01*
X132046309Y-56983333D01*
X133855833Y-59475714D02*
X133855833Y-60285238D01*
X133903452Y-60380476D01*
X133951071Y-60428095D01*
X134046309Y-60475714D01*
X134189166Y-60475714D01*
X134284404Y-60428095D01*
X133855833Y-60094761D02*
X133951071Y-60142380D01*
X134141547Y-60142380D01*
X134236785Y-60094761D01*
X134284404Y-60047142D01*
X134332023Y-59951904D01*
X134332023Y-59666190D01*
X134284404Y-59570952D01*
X134236785Y-59523333D01*
X134141547Y-59475714D01*
X133951071Y-59475714D01*
X133855833Y-59523333D01*
X133379642Y-59475714D02*
X133379642Y-60142380D01*
X133379642Y-59570952D02*
X133332023Y-59523333D01*
X133236785Y-59475714D01*
X133093928Y-59475714D01*
X132998690Y-59523333D01*
X132951071Y-59618571D01*
X132951071Y-60142380D01*
X132046309Y-60142380D02*
X132046309Y-59142380D01*
X132046309Y-60094761D02*
X132141547Y-60142380D01*
X132332023Y-60142380D01*
X132427261Y-60094761D01*
X132474880Y-60047142D01*
X132522500Y-59951904D01*
X132522500Y-59666190D01*
X132474880Y-59570952D01*
X132427261Y-59523333D01*
X132332023Y-59475714D01*
X132141547Y-59475714D01*
X132046309Y-59523333D01*
X133855833Y-62015714D02*
X133855833Y-62825238D01*
X133903452Y-62920476D01*
X133951071Y-62968095D01*
X134046309Y-63015714D01*
X134189166Y-63015714D01*
X134284404Y-62968095D01*
X133855833Y-62634761D02*
X133951071Y-62682380D01*
X134141547Y-62682380D01*
X134236785Y-62634761D01*
X134284404Y-62587142D01*
X134332023Y-62491904D01*
X134332023Y-62206190D01*
X134284404Y-62110952D01*
X134236785Y-62063333D01*
X134141547Y-62015714D01*
X133951071Y-62015714D01*
X133855833Y-62063333D01*
X133379642Y-62015714D02*
X133379642Y-62682380D01*
X133379642Y-62110952D02*
X133332023Y-62063333D01*
X133236785Y-62015714D01*
X133093928Y-62015714D01*
X132998690Y-62063333D01*
X132951071Y-62158571D01*
X132951071Y-62682380D01*
X132046309Y-62682380D02*
X132046309Y-61682380D01*
X132046309Y-62634761D02*
X132141547Y-62682380D01*
X132332023Y-62682380D01*
X132427261Y-62634761D01*
X132474880Y-62587142D01*
X132522500Y-62491904D01*
X132522500Y-62206190D01*
X132474880Y-62110952D01*
X132427261Y-62063333D01*
X132332023Y-62015714D01*
X132141547Y-62015714D01*
X132046309Y-62063333D01*
X135014642Y-64555714D02*
X134776547Y-65222380D01*
X134538452Y-64555714D01*
X134157500Y-64841428D02*
X133395595Y-64841428D01*
X132157500Y-65222380D02*
X132157500Y-64555714D01*
X132157500Y-64222380D02*
X132205119Y-64270000D01*
X132157500Y-64317619D01*
X132109880Y-64270000D01*
X132157500Y-64222380D01*
X132157500Y-64317619D01*
X131681309Y-64555714D02*
X131681309Y-65222380D01*
X131681309Y-64650952D02*
X131633690Y-64603333D01*
X131538452Y-64555714D01*
X131395595Y-64555714D01*
X131300357Y-64603333D01*
X131252738Y-64698571D01*
X131252738Y-65222380D01*
X135014642Y-54395714D02*
X134776547Y-55062380D01*
X134538452Y-54395714D01*
X134157500Y-54681428D02*
X133395595Y-54681428D01*
X133776547Y-55062380D02*
X133776547Y-54300476D01*
X132157500Y-55062380D02*
X132157500Y-54395714D01*
X132157500Y-54062380D02*
X132205119Y-54110000D01*
X132157500Y-54157619D01*
X132109880Y-54110000D01*
X132157500Y-54062380D01*
X132157500Y-54157619D01*
X131681309Y-54395714D02*
X131681309Y-55062380D01*
X131681309Y-54490952D02*
X131633690Y-54443333D01*
X131538452Y-54395714D01*
X131395595Y-54395714D01*
X131300357Y-54443333D01*
X131252738Y-54538571D01*
X131252738Y-55062380D01*
X123420714Y-69635904D02*
X124087380Y-69635904D01*
X123515952Y-69635904D02*
X123468333Y-69683523D01*
X123420714Y-69778761D01*
X123420714Y-69921619D01*
X123468333Y-70016857D01*
X123563571Y-70064476D01*
X124087380Y-70064476D01*
X124087380Y-70683523D02*
X124039761Y-70588285D01*
X123992142Y-70540666D01*
X123896904Y-70493047D01*
X123611190Y-70493047D01*
X123515952Y-70540666D01*
X123468333Y-70588285D01*
X123420714Y-70683523D01*
X123420714Y-70826380D01*
X123468333Y-70921619D01*
X123515952Y-70969238D01*
X123611190Y-71016857D01*
X123896904Y-71016857D01*
X123992142Y-70969238D01*
X124039761Y-70921619D01*
X124087380Y-70826380D01*
X124087380Y-70683523D01*
X124087380Y-71445428D02*
X123420714Y-71445428D01*
X123087380Y-71445428D02*
X123135000Y-71397809D01*
X123182619Y-71445428D01*
X123135000Y-71493047D01*
X123087380Y-71445428D01*
X123182619Y-71445428D01*
X124039761Y-71874000D02*
X124087380Y-71969238D01*
X124087380Y-72159714D01*
X124039761Y-72254952D01*
X123944523Y-72302571D01*
X123896904Y-72302571D01*
X123801666Y-72254952D01*
X123754047Y-72159714D01*
X123754047Y-72016857D01*
X123706428Y-71921619D01*
X123611190Y-71874000D01*
X123563571Y-71874000D01*
X123468333Y-71921619D01*
X123420714Y-72016857D01*
X123420714Y-72159714D01*
X123468333Y-72254952D01*
X124039761Y-73112095D02*
X124087380Y-73016857D01*
X124087380Y-72826380D01*
X124039761Y-72731142D01*
X123944523Y-72683523D01*
X123563571Y-72683523D01*
X123468333Y-72731142D01*
X123420714Y-72826380D01*
X123420714Y-73016857D01*
X123468333Y-73112095D01*
X123563571Y-73159714D01*
X123658809Y-73159714D01*
X123754047Y-72683523D01*
X125737380Y-70445428D02*
X125689761Y-70350190D01*
X125594523Y-70302571D01*
X124737380Y-70302571D01*
X125689761Y-71207333D02*
X125737380Y-71112095D01*
X125737380Y-70921619D01*
X125689761Y-70826380D01*
X125594523Y-70778761D01*
X125213571Y-70778761D01*
X125118333Y-70826380D01*
X125070714Y-70921619D01*
X125070714Y-71112095D01*
X125118333Y-71207333D01*
X125213571Y-71254952D01*
X125308809Y-71254952D01*
X125404047Y-70778761D01*
X125070714Y-71588285D02*
X125737380Y-71826380D01*
X125070714Y-72064476D01*
X125642142Y-72445428D02*
X125689761Y-72493047D01*
X125737380Y-72445428D01*
X125689761Y-72397809D01*
X125642142Y-72445428D01*
X125737380Y-72445428D01*
X104227761Y-114744666D02*
X104275380Y-114839904D01*
X104275380Y-115030380D01*
X104227761Y-115125619D01*
X104132523Y-115173238D01*
X104084904Y-115173238D01*
X103989666Y-115125619D01*
X103942047Y-115030380D01*
X103942047Y-114887523D01*
X103894428Y-114792285D01*
X103799190Y-114744666D01*
X103751571Y-114744666D01*
X103656333Y-114792285D01*
X103608714Y-114887523D01*
X103608714Y-115030380D01*
X103656333Y-115125619D01*
X104275380Y-115601809D02*
X103608714Y-115601809D01*
X103275380Y-115601809D02*
X103323000Y-115554190D01*
X103370619Y-115601809D01*
X103323000Y-115649428D01*
X103275380Y-115601809D01*
X103370619Y-115601809D01*
X103608714Y-116078000D02*
X104275380Y-116078000D01*
X103703952Y-116078000D02*
X103656333Y-116125619D01*
X103608714Y-116220857D01*
X103608714Y-116363714D01*
X103656333Y-116458952D01*
X103751571Y-116506571D01*
X104275380Y-116506571D01*
X104227761Y-117363714D02*
X104275380Y-117268476D01*
X104275380Y-117078000D01*
X104227761Y-116982761D01*
X104132523Y-116935142D01*
X103751571Y-116935142D01*
X103656333Y-116982761D01*
X103608714Y-117078000D01*
X103608714Y-117268476D01*
X103656333Y-117363714D01*
X103751571Y-117411333D01*
X103846809Y-117411333D01*
X103942047Y-116935142D01*
X105877761Y-114578000D02*
X105925380Y-114673238D01*
X105925380Y-114863714D01*
X105877761Y-114958952D01*
X105782523Y-115006571D01*
X105734904Y-115006571D01*
X105639666Y-114958952D01*
X105592047Y-114863714D01*
X105592047Y-114720857D01*
X105544428Y-114625619D01*
X105449190Y-114578000D01*
X105401571Y-114578000D01*
X105306333Y-114625619D01*
X105258714Y-114720857D01*
X105258714Y-114863714D01*
X105306333Y-114958952D01*
X105258714Y-115339904D02*
X105925380Y-115578000D01*
X105258714Y-115816095D02*
X105925380Y-115578000D01*
X106163476Y-115482761D01*
X106211095Y-115435142D01*
X106258714Y-115339904D01*
X105925380Y-116197047D02*
X105258714Y-116197047D01*
X105353952Y-116197047D02*
X105306333Y-116244666D01*
X105258714Y-116339904D01*
X105258714Y-116482761D01*
X105306333Y-116578000D01*
X105401571Y-116625619D01*
X105925380Y-116625619D01*
X105401571Y-116625619D02*
X105306333Y-116673238D01*
X105258714Y-116768476D01*
X105258714Y-116911333D01*
X105306333Y-117006571D01*
X105401571Y-117054190D01*
X105925380Y-117054190D01*
X105830142Y-117530380D02*
X105877761Y-117578000D01*
X105925380Y-117530380D01*
X105877761Y-117482761D01*
X105830142Y-117530380D01*
X105925380Y-117530380D01*
X103973761Y-89090666D02*
X104021380Y-89185904D01*
X104021380Y-89376380D01*
X103973761Y-89471619D01*
X103878523Y-89519238D01*
X103830904Y-89519238D01*
X103735666Y-89471619D01*
X103688047Y-89376380D01*
X103688047Y-89233523D01*
X103640428Y-89138285D01*
X103545190Y-89090666D01*
X103497571Y-89090666D01*
X103402333Y-89138285D01*
X103354714Y-89233523D01*
X103354714Y-89376380D01*
X103402333Y-89471619D01*
X104021380Y-89947809D02*
X103354714Y-89947809D01*
X103021380Y-89947809D02*
X103069000Y-89900190D01*
X103116619Y-89947809D01*
X103069000Y-89995428D01*
X103021380Y-89947809D01*
X103116619Y-89947809D01*
X103354714Y-90424000D02*
X104021380Y-90424000D01*
X103449952Y-90424000D02*
X103402333Y-90471619D01*
X103354714Y-90566857D01*
X103354714Y-90709714D01*
X103402333Y-90804952D01*
X103497571Y-90852571D01*
X104021380Y-90852571D01*
X103973761Y-91709714D02*
X104021380Y-91614476D01*
X104021380Y-91424000D01*
X103973761Y-91328761D01*
X103878523Y-91281142D01*
X103497571Y-91281142D01*
X103402333Y-91328761D01*
X103354714Y-91424000D01*
X103354714Y-91614476D01*
X103402333Y-91709714D01*
X103497571Y-91757333D01*
X103592809Y-91757333D01*
X103688047Y-91281142D01*
X105623761Y-88424000D02*
X105671380Y-88519238D01*
X105671380Y-88709714D01*
X105623761Y-88804952D01*
X105528523Y-88852571D01*
X105480904Y-88852571D01*
X105385666Y-88804952D01*
X105338047Y-88709714D01*
X105338047Y-88566857D01*
X105290428Y-88471619D01*
X105195190Y-88424000D01*
X105147571Y-88424000D01*
X105052333Y-88471619D01*
X105004714Y-88566857D01*
X105004714Y-88709714D01*
X105052333Y-88804952D01*
X105671380Y-89281142D02*
X104671380Y-89281142D01*
X105671380Y-89709714D02*
X105147571Y-89709714D01*
X105052333Y-89662095D01*
X105004714Y-89566857D01*
X105004714Y-89424000D01*
X105052333Y-89328761D01*
X105099952Y-89281142D01*
X105671380Y-90614476D02*
X105147571Y-90614476D01*
X105052333Y-90566857D01*
X105004714Y-90471619D01*
X105004714Y-90281142D01*
X105052333Y-90185904D01*
X105623761Y-90614476D02*
X105671380Y-90519238D01*
X105671380Y-90281142D01*
X105623761Y-90185904D01*
X105528523Y-90138285D01*
X105433285Y-90138285D01*
X105338047Y-90185904D01*
X105290428Y-90281142D01*
X105290428Y-90519238D01*
X105242809Y-90614476D01*
X105004714Y-91090666D02*
X106004714Y-91090666D01*
X105052333Y-91090666D02*
X105004714Y-91185904D01*
X105004714Y-91376380D01*
X105052333Y-91471619D01*
X105099952Y-91519238D01*
X105195190Y-91566857D01*
X105480904Y-91566857D01*
X105576142Y-91519238D01*
X105623761Y-91471619D01*
X105671380Y-91376380D01*
X105671380Y-91185904D01*
X105623761Y-91090666D01*
X105623761Y-92376380D02*
X105671380Y-92281142D01*
X105671380Y-92090666D01*
X105623761Y-91995428D01*
X105528523Y-91947809D01*
X105147571Y-91947809D01*
X105052333Y-91995428D01*
X105004714Y-92090666D01*
X105004714Y-92281142D01*
X105052333Y-92376380D01*
X105147571Y-92424000D01*
X105242809Y-92424000D01*
X105338047Y-91947809D01*
D11*
X143235795Y-73698184D02*
G75*
G03*
X143963000Y-73174000I-1122795J2324184D01*
G01*
X141014193Y-73730400D02*
G75*
G02*
X139513000Y-71374000I1098807J2356400D01*
G01*
X141014193Y-69017600D02*
G75*
G03*
X139513000Y-71374000I1098807J-2356400D01*
G01*
X143235795Y-69049816D02*
G75*
G02*
X143963000Y-69574000I-1122795J-2324184D01*
G01*
X143963000Y-69574000D02*
X143963000Y-73174000D01*
X140410000Y-112378748D02*
X140410000Y-112901252D01*
X138990000Y-112378748D02*
X138990000Y-112901252D01*
X133120000Y-114265000D02*
X133120000Y-110525000D01*
X125880000Y-114265000D02*
X125880000Y-110525000D01*
X125880000Y-110525000D02*
X133120000Y-110525000D01*
X125880000Y-114265000D02*
X133120000Y-114265000D01*
X141680000Y-61578748D02*
X141680000Y-62101252D01*
X140260000Y-61578748D02*
X140260000Y-62101252D01*
X141680000Y-55228748D02*
X141680000Y-55751252D01*
X140260000Y-55228748D02*
X140260000Y-55751252D01*
X121360000Y-76963748D02*
X121360000Y-77486252D01*
X119940000Y-76963748D02*
X119940000Y-77486252D01*
X140514000Y-88898252D02*
X140514000Y-88375748D01*
X141934000Y-88898252D02*
X141934000Y-88375748D01*
X140918000Y-75929748D02*
X140918000Y-76452252D01*
X139498000Y-75929748D02*
X139498000Y-76452252D01*
X136886000Y-82550000D02*
X136886000Y-79100000D01*
X136886000Y-82550000D02*
X136886000Y-84500000D01*
X142006000Y-82550000D02*
X142006000Y-80600000D01*
X142006000Y-82550000D02*
X142006000Y-84500000D01*
X143236000Y-105664000D02*
X143236000Y-102214000D01*
X143236000Y-105664000D02*
X143236000Y-107614000D01*
X148356000Y-105664000D02*
X148356000Y-103714000D01*
X148356000Y-105664000D02*
X148356000Y-107614000D01*
X116312000Y-105664000D02*
X116312000Y-102214000D01*
X116312000Y-105664000D02*
X116312000Y-107614000D01*
X121432000Y-105664000D02*
X121432000Y-103714000D01*
X121432000Y-105664000D02*
X121432000Y-107614000D01*
X123932000Y-105664000D02*
X123932000Y-102214000D01*
X123932000Y-105664000D02*
X123932000Y-107614000D01*
X129052000Y-105664000D02*
X129052000Y-103714000D01*
X129052000Y-105664000D02*
X129052000Y-107614000D01*
X137720000Y-144016252D02*
X137720000Y-143493748D01*
X139140000Y-144016252D02*
X139140000Y-143493748D01*
X112496000Y-111638000D02*
X111036000Y-111638000D01*
X112496000Y-114798000D02*
X109336000Y-114798000D01*
X112496000Y-114798000D02*
X112496000Y-113868000D01*
X112496000Y-111638000D02*
X112496000Y-112568000D01*
X112544000Y-101036000D02*
X111084000Y-101036000D01*
X112544000Y-104196000D02*
X109384000Y-104196000D01*
X112544000Y-104196000D02*
X112544000Y-103266000D01*
X112544000Y-101036000D02*
X112544000Y-101966000D01*
X106736000Y-78992000D02*
X106736000Y-77532000D01*
X103576000Y-78992000D02*
X103576000Y-75832000D01*
X103576000Y-78992000D02*
X104506000Y-78992000D01*
X106736000Y-78992000D02*
X105806000Y-78992000D01*
X107574000Y-77496000D02*
X107574000Y-78956000D01*
X110734000Y-77496000D02*
X110734000Y-80656000D01*
X110734000Y-77496000D02*
X109804000Y-77496000D01*
X107574000Y-77496000D02*
X108504000Y-77496000D01*
X131084000Y-105664000D02*
X131084000Y-102214000D01*
X131084000Y-105664000D02*
X131084000Y-107614000D01*
X141204000Y-105664000D02*
X141204000Y-103714000D01*
X141204000Y-105664000D02*
X141204000Y-107614000D01*
X133155000Y-78984000D02*
X133155000Y-73914000D01*
X123385000Y-78984000D02*
X123385000Y-73914000D01*
X123385000Y-73914000D02*
X133155000Y-73914000D01*
X123385000Y-78984000D02*
X133155000Y-78984000D01*
X103388000Y-114105000D02*
X108458000Y-114105000D01*
X103388000Y-104335000D02*
X108458000Y-104335000D01*
X108458000Y-104335000D02*
X108458000Y-114105000D01*
X103388000Y-104335000D02*
X103388000Y-114105000D01*
X103388000Y-102675000D02*
X108458000Y-102675000D01*
X103388000Y-92905000D02*
X108458000Y-92905000D01*
X108458000Y-92905000D02*
X108458000Y-102675000D01*
X103388000Y-92905000D02*
X103388000Y-102675000D01*
X122480000Y-144016252D02*
X122480000Y-143493748D01*
X123900000Y-144016252D02*
X123900000Y-143493748D01*
X135838000Y-75929748D02*
X135838000Y-76452252D01*
X134418000Y-75929748D02*
X134418000Y-76452252D01*
X119432000Y-84843252D02*
X119432000Y-84320748D01*
X120852000Y-84843252D02*
X120852000Y-84320748D01*
X121718000Y-84852252D02*
X121718000Y-84329748D01*
X123138000Y-84852252D02*
X123138000Y-84329748D01*
X124004000Y-84834252D02*
X124004000Y-84311748D01*
X125424000Y-84834252D02*
X125424000Y-84311748D01*
X126290000Y-84834252D02*
X126290000Y-84311748D01*
X127710000Y-84834252D02*
X127710000Y-84311748D01*
X128576000Y-84852252D02*
X128576000Y-84329748D01*
X129996000Y-84852252D02*
X129996000Y-84329748D01*
X130862000Y-84852252D02*
X130862000Y-84329748D01*
X132282000Y-84852252D02*
X132282000Y-84329748D01*
X133148000Y-84852252D02*
X133148000Y-84329748D01*
X134568000Y-84852252D02*
X134568000Y-84329748D01*
X139394000Y-88393748D02*
X139394000Y-88916252D01*
X137974000Y-88393748D02*
X137974000Y-88916252D01*
X138378000Y-75929748D02*
X138378000Y-76452252D01*
X136958000Y-75929748D02*
X136958000Y-76452252D01*
X128218000Y-71112748D02*
X128218000Y-71635252D01*
X126798000Y-71112748D02*
X126798000Y-71635252D01*
X137720000Y-132586252D02*
X137720000Y-132063748D01*
X139140000Y-132586252D02*
X139140000Y-132063748D01*
X145490000Y-112015748D02*
X145490000Y-112538252D01*
X144070000Y-112015748D02*
X144070000Y-112538252D01*
X143054000Y-99312252D02*
X143054000Y-98789748D01*
X144474000Y-99312252D02*
X144474000Y-98789748D01*
X132282000Y-98807748D02*
X132282000Y-99330252D01*
X130862000Y-98807748D02*
X130862000Y-99330252D01*
X133402000Y-99330252D02*
X133402000Y-98807748D01*
X134822000Y-99330252D02*
X134822000Y-98807748D01*
X118566000Y-98807748D02*
X118566000Y-99330252D01*
X117146000Y-98807748D02*
X117146000Y-99330252D01*
X137720000Y-119886252D02*
X137720000Y-119363748D01*
X139140000Y-119886252D02*
X139140000Y-119363748D01*
X115622000Y-112520252D02*
X115622000Y-111997748D01*
X117042000Y-112520252D02*
X117042000Y-111997748D01*
X123242000Y-112538252D02*
X123242000Y-112015748D01*
X124662000Y-112538252D02*
X124662000Y-112015748D01*
X108510000Y-117346252D02*
X108510000Y-116823748D01*
X109930000Y-117346252D02*
X109930000Y-116823748D01*
X122122000Y-112006748D02*
X122122000Y-112529252D01*
X120702000Y-112006748D02*
X120702000Y-112529252D01*
X112978000Y-108967748D02*
X112978000Y-109490252D01*
X111558000Y-108967748D02*
X111558000Y-109490252D01*
X110438000Y-108949748D02*
X110438000Y-109472252D01*
X109018000Y-108949748D02*
X109018000Y-109472252D01*
X119582000Y-112015748D02*
X119582000Y-112538252D01*
X118162000Y-112015748D02*
X118162000Y-112538252D01*
X113232000Y-98281748D02*
X113232000Y-98804252D01*
X111812000Y-98281748D02*
X111812000Y-98804252D01*
X110946000Y-98281748D02*
X110946000Y-98804252D01*
X109526000Y-98281748D02*
X109526000Y-98804252D01*
X133910000Y-112901252D02*
X133910000Y-112378748D01*
X135330000Y-112901252D02*
X135330000Y-112378748D01*
X106882000Y-72627748D02*
X106882000Y-73150252D01*
X105462000Y-72627748D02*
X105462000Y-73150252D01*
X110692000Y-83313748D02*
X110692000Y-83836252D01*
X109272000Y-83313748D02*
X109272000Y-83836252D01*
X137870000Y-112378748D02*
X137870000Y-112901252D01*
X136450000Y-112378748D02*
X136450000Y-112901252D01*
X125020000Y-119886252D02*
X125020000Y-119363748D01*
X126440000Y-119886252D02*
X126440000Y-119363748D01*
X122480000Y-119904252D02*
X122480000Y-119381748D01*
X123900000Y-119904252D02*
X123900000Y-119381748D01*
X109780000Y-73150252D02*
X109780000Y-72627748D01*
X111200000Y-73150252D02*
X111200000Y-72627748D01*
X113232000Y-80519748D02*
X113232000Y-81042252D01*
X111812000Y-80519748D02*
X111812000Y-81042252D01*
X124027000Y-98662748D02*
X124027000Y-99185252D01*
X122607000Y-98662748D02*
X122607000Y-99185252D01*
X126567000Y-98662748D02*
X126567000Y-99185252D01*
X125147000Y-98662748D02*
X125147000Y-99185252D01*
X130235000Y-53280000D02*
X128905000Y-53280000D01*
X130235000Y-54610000D02*
X130235000Y-53280000D01*
X127635000Y-53280000D02*
X125035000Y-53280000D01*
X127635000Y-55880000D02*
X127635000Y-53280000D01*
X130235000Y-55880000D02*
X127635000Y-55880000D01*
X125035000Y-53280000D02*
X125035000Y-66100000D01*
X130235000Y-55880000D02*
X130235000Y-66100000D01*
X130235000Y-66100000D02*
X125035000Y-66100000D01*
X127778000Y-96684000D02*
X127778000Y-100584000D01*
X129778000Y-96684000D02*
X129778000Y-100584000D01*
X127778000Y-96684000D02*
X129778000Y-96684000D01*
X136160000Y-96428000D02*
X136160000Y-100328000D01*
X138160000Y-96428000D02*
X138160000Y-100328000D01*
X136160000Y-96428000D02*
X138160000Y-96428000D01*
X141208000Y-100928000D02*
X141208000Y-97028000D01*
X139208000Y-100928000D02*
X139208000Y-97028000D01*
X141208000Y-100928000D02*
X139208000Y-100928000D01*
X146823500Y-78932248D02*
X146823500Y-79454752D01*
X145403500Y-78932248D02*
X145403500Y-79454752D01*
X146506000Y-85980748D02*
X146506000Y-86503252D01*
X145086000Y-85980748D02*
X145086000Y-86503252D01*
X121718000Y-88916252D02*
X121718000Y-88393748D01*
X123138000Y-88916252D02*
X123138000Y-88393748D01*
X124004000Y-88916252D02*
X124004000Y-88393748D01*
X125424000Y-88916252D02*
X125424000Y-88393748D01*
X126290000Y-88916252D02*
X126290000Y-88393748D01*
X127710000Y-88916252D02*
X127710000Y-88393748D01*
X128576000Y-88916252D02*
X128576000Y-88393748D01*
X129996000Y-88916252D02*
X129996000Y-88393748D01*
X130862000Y-88916252D02*
X130862000Y-88393748D01*
X132282000Y-88916252D02*
X132282000Y-88393748D01*
X133148000Y-88907252D02*
X133148000Y-88384748D01*
X134568000Y-88907252D02*
X134568000Y-88384748D01*
X135434000Y-88916252D02*
X135434000Y-88393748D01*
X136854000Y-88916252D02*
X136854000Y-88393748D01*
X148030000Y-112015748D02*
X148030000Y-112538252D01*
X146610000Y-112015748D02*
X146610000Y-112538252D01*
X147014000Y-98807748D02*
X147014000Y-99330252D01*
X145594000Y-98807748D02*
X145594000Y-99330252D01*
X123900000Y-132072748D02*
X123900000Y-132595252D01*
X122480000Y-132072748D02*
X122480000Y-132595252D01*
D10*
X140819119Y-68040261D02*
X140771500Y-67945023D01*
X140676261Y-67849785D01*
X140533404Y-67706928D01*
X140485785Y-67611690D01*
X140485785Y-67516452D01*
X140723880Y-67564071D02*
X140676261Y-67468833D01*
X140581023Y-67373595D01*
X140390547Y-67325976D01*
X140057214Y-67325976D01*
X139866738Y-67373595D01*
X139771500Y-67468833D01*
X139723880Y-67564071D01*
X139723880Y-67754547D01*
X139771500Y-67849785D01*
X139866738Y-67945023D01*
X140057214Y-67992642D01*
X140390547Y-67992642D01*
X140581023Y-67945023D01*
X140676261Y-67849785D01*
X140723880Y-67754547D01*
X140723880Y-67564071D01*
X139723880Y-68897404D02*
X139723880Y-68421214D01*
X140200071Y-68373595D01*
X140152452Y-68421214D01*
X140104833Y-68516452D01*
X140104833Y-68754547D01*
X140152452Y-68849785D01*
X140200071Y-68897404D01*
X140295309Y-68945023D01*
X140533404Y-68945023D01*
X140628642Y-68897404D01*
X140676261Y-68849785D01*
X140723880Y-68754547D01*
X140723880Y-68516452D01*
X140676261Y-68421214D01*
X140628642Y-68373595D01*
X140152380Y-115258333D02*
X139676190Y-114925000D01*
X140152380Y-114686904D02*
X139152380Y-114686904D01*
X139152380Y-115067857D01*
X139200000Y-115163095D01*
X139247619Y-115210714D01*
X139342857Y-115258333D01*
X139485714Y-115258333D01*
X139580952Y-115210714D01*
X139628571Y-115163095D01*
X139676190Y-115067857D01*
X139676190Y-114686904D01*
X140152380Y-115734523D02*
X140152380Y-115925000D01*
X140104761Y-116020238D01*
X140057142Y-116067857D01*
X139914285Y-116163095D01*
X139723809Y-116210714D01*
X139342857Y-116210714D01*
X139247619Y-116163095D01*
X139200000Y-116115476D01*
X139152380Y-116020238D01*
X139152380Y-115829761D01*
X139200000Y-115734523D01*
X139247619Y-115686904D01*
X139342857Y-115639285D01*
X139580952Y-115639285D01*
X139676190Y-115686904D01*
X139723809Y-115734523D01*
X139771428Y-115829761D01*
X139771428Y-116020238D01*
X139723809Y-116115476D01*
X139676190Y-116163095D01*
X139580952Y-116210714D01*
X129857142Y-115228333D02*
X129904761Y-115180714D01*
X129952380Y-115037857D01*
X129952380Y-114942619D01*
X129904761Y-114799761D01*
X129809523Y-114704523D01*
X129714285Y-114656904D01*
X129523809Y-114609285D01*
X129380952Y-114609285D01*
X129190476Y-114656904D01*
X129095238Y-114704523D01*
X129000000Y-114799761D01*
X128952380Y-114942619D01*
X128952380Y-115037857D01*
X129000000Y-115180714D01*
X129047619Y-115228333D01*
X129952380Y-116180714D02*
X129952380Y-115609285D01*
X129952380Y-115895000D02*
X128952380Y-115895000D01*
X129095238Y-115799761D01*
X129190476Y-115704523D01*
X129238095Y-115609285D01*
X139677142Y-61197142D02*
X139724761Y-61149523D01*
X139772380Y-61006666D01*
X139772380Y-60911428D01*
X139724761Y-60768571D01*
X139629523Y-60673333D01*
X139534285Y-60625714D01*
X139343809Y-60578095D01*
X139200952Y-60578095D01*
X139010476Y-60625714D01*
X138915238Y-60673333D01*
X138820000Y-60768571D01*
X138772380Y-60911428D01*
X138772380Y-61006666D01*
X138820000Y-61149523D01*
X138867619Y-61197142D01*
X139772380Y-62149523D02*
X139772380Y-61578095D01*
X139772380Y-61863809D02*
X138772380Y-61863809D01*
X138915238Y-61768571D01*
X139010476Y-61673333D01*
X139058095Y-61578095D01*
X138772380Y-62482857D02*
X138772380Y-63149523D01*
X139772380Y-62720952D01*
X139677142Y-54847142D02*
X139724761Y-54799523D01*
X139772380Y-54656666D01*
X139772380Y-54561428D01*
X139724761Y-54418571D01*
X139629523Y-54323333D01*
X139534285Y-54275714D01*
X139343809Y-54228095D01*
X139200952Y-54228095D01*
X139010476Y-54275714D01*
X138915238Y-54323333D01*
X138820000Y-54418571D01*
X138772380Y-54561428D01*
X138772380Y-54656666D01*
X138820000Y-54799523D01*
X138867619Y-54847142D01*
X139772380Y-55799523D02*
X139772380Y-55228095D01*
X139772380Y-55513809D02*
X138772380Y-55513809D01*
X138915238Y-55418571D01*
X139010476Y-55323333D01*
X139058095Y-55228095D01*
X138772380Y-56656666D02*
X138772380Y-56466190D01*
X138820000Y-56370952D01*
X138867619Y-56323333D01*
X139010476Y-56228095D01*
X139200952Y-56180476D01*
X139581904Y-56180476D01*
X139677142Y-56228095D01*
X139724761Y-56275714D01*
X139772380Y-56370952D01*
X139772380Y-56561428D01*
X139724761Y-56656666D01*
X139677142Y-56704285D01*
X139581904Y-56751904D01*
X139343809Y-56751904D01*
X139248571Y-56704285D01*
X139200952Y-56656666D01*
X139153333Y-56561428D01*
X139153333Y-56370952D01*
X139200952Y-56275714D01*
X139248571Y-56228095D01*
X139343809Y-56180476D01*
X121007142Y-74255333D02*
X121054761Y-74207714D01*
X121102380Y-74064857D01*
X121102380Y-73969619D01*
X121054761Y-73826761D01*
X120959523Y-73731523D01*
X120864285Y-73683904D01*
X120673809Y-73636285D01*
X120530952Y-73636285D01*
X120340476Y-73683904D01*
X120245238Y-73731523D01*
X120150000Y-73826761D01*
X120102380Y-73969619D01*
X120102380Y-74064857D01*
X120150000Y-74207714D01*
X120197619Y-74255333D01*
X120102380Y-74588666D02*
X120102380Y-75255333D01*
X121102380Y-74826761D01*
X141581142Y-91273333D02*
X141628761Y-91225714D01*
X141676380Y-91082857D01*
X141676380Y-90987619D01*
X141628761Y-90844761D01*
X141533523Y-90749523D01*
X141438285Y-90701904D01*
X141247809Y-90654285D01*
X141104952Y-90654285D01*
X140914476Y-90701904D01*
X140819238Y-90749523D01*
X140724000Y-90844761D01*
X140676380Y-90987619D01*
X140676380Y-91082857D01*
X140724000Y-91225714D01*
X140771619Y-91273333D01*
X140676380Y-92130476D02*
X140676380Y-91940000D01*
X140724000Y-91844761D01*
X140771619Y-91797142D01*
X140914476Y-91701904D01*
X141104952Y-91654285D01*
X141485904Y-91654285D01*
X141581142Y-91701904D01*
X141628761Y-91749523D01*
X141676380Y-91844761D01*
X141676380Y-92035238D01*
X141628761Y-92130476D01*
X141581142Y-92178095D01*
X141485904Y-92225714D01*
X141247809Y-92225714D01*
X141152571Y-92178095D01*
X141104952Y-92130476D01*
X141057333Y-92035238D01*
X141057333Y-91844761D01*
X141104952Y-91749523D01*
X141152571Y-91701904D01*
X141247809Y-91654285D01*
X142317742Y-76033333D02*
X142365361Y-75985714D01*
X142412980Y-75842857D01*
X142412980Y-75747619D01*
X142365361Y-75604761D01*
X142270123Y-75509523D01*
X142174885Y-75461904D01*
X141984409Y-75414285D01*
X141841552Y-75414285D01*
X141651076Y-75461904D01*
X141555838Y-75509523D01*
X141460600Y-75604761D01*
X141412980Y-75747619D01*
X141412980Y-75842857D01*
X141460600Y-75985714D01*
X141508219Y-76033333D01*
X141412980Y-76938095D02*
X141412980Y-76461904D01*
X141889171Y-76414285D01*
X141841552Y-76461904D01*
X141793933Y-76557142D01*
X141793933Y-76795238D01*
X141841552Y-76890476D01*
X141889171Y-76938095D01*
X141984409Y-76985714D01*
X142222504Y-76985714D01*
X142317742Y-76938095D01*
X142365361Y-76890476D01*
X142412980Y-76795238D01*
X142412980Y-76557142D01*
X142365361Y-76461904D01*
X142317742Y-76414285D01*
X135498380Y-81788095D02*
X136307904Y-81788095D01*
X136403142Y-81835714D01*
X136450761Y-81883333D01*
X136498380Y-81978571D01*
X136498380Y-82169047D01*
X136450761Y-82264285D01*
X136403142Y-82311904D01*
X136307904Y-82359523D01*
X135498380Y-82359523D01*
X135498380Y-83311904D02*
X135498380Y-82835714D01*
X135974571Y-82788095D01*
X135926952Y-82835714D01*
X135879333Y-82930952D01*
X135879333Y-83169047D01*
X135926952Y-83264285D01*
X135974571Y-83311904D01*
X136069809Y-83359523D01*
X136307904Y-83359523D01*
X136403142Y-83311904D01*
X136450761Y-83264285D01*
X136498380Y-83169047D01*
X136498380Y-82930952D01*
X136450761Y-82835714D01*
X136403142Y-82788095D01*
X141848380Y-104902095D02*
X142657904Y-104902095D01*
X142753142Y-104949714D01*
X142800761Y-104997333D01*
X142848380Y-105092571D01*
X142848380Y-105283047D01*
X142800761Y-105378285D01*
X142753142Y-105425904D01*
X142657904Y-105473523D01*
X141848380Y-105473523D01*
X142181714Y-106378285D02*
X142848380Y-106378285D01*
X141800761Y-106140190D02*
X142515047Y-105902095D01*
X142515047Y-106521142D01*
X114924380Y-104902095D02*
X115733904Y-104902095D01*
X115829142Y-104949714D01*
X115876761Y-104997333D01*
X115924380Y-105092571D01*
X115924380Y-105283047D01*
X115876761Y-105378285D01*
X115829142Y-105425904D01*
X115733904Y-105473523D01*
X114924380Y-105473523D01*
X114924380Y-105854476D02*
X114924380Y-106473523D01*
X115305333Y-106140190D01*
X115305333Y-106283047D01*
X115352952Y-106378285D01*
X115400571Y-106425904D01*
X115495809Y-106473523D01*
X115733904Y-106473523D01*
X115829142Y-106425904D01*
X115876761Y-106378285D01*
X115924380Y-106283047D01*
X115924380Y-105997333D01*
X115876761Y-105902095D01*
X115829142Y-105854476D01*
X122544380Y-104902095D02*
X123353904Y-104902095D01*
X123449142Y-104949714D01*
X123496761Y-104997333D01*
X123544380Y-105092571D01*
X123544380Y-105283047D01*
X123496761Y-105378285D01*
X123449142Y-105425904D01*
X123353904Y-105473523D01*
X122544380Y-105473523D01*
X122639619Y-105902095D02*
X122592000Y-105949714D01*
X122544380Y-106044952D01*
X122544380Y-106283047D01*
X122592000Y-106378285D01*
X122639619Y-106425904D01*
X122734857Y-106473523D01*
X122830095Y-106473523D01*
X122972952Y-106425904D01*
X123544380Y-105854476D01*
X123544380Y-106473523D01*
X138882380Y-139565142D02*
X138406190Y-139231809D01*
X138882380Y-138993714D02*
X137882380Y-138993714D01*
X137882380Y-139374666D01*
X137930000Y-139469904D01*
X137977619Y-139517523D01*
X138072857Y-139565142D01*
X138215714Y-139565142D01*
X138310952Y-139517523D01*
X138358571Y-139469904D01*
X138406190Y-139374666D01*
X138406190Y-138993714D01*
X138215714Y-140422285D02*
X138882380Y-140422285D01*
X137834761Y-140184190D02*
X138549047Y-139946095D01*
X138549047Y-140565142D01*
X137882380Y-141136571D02*
X137882380Y-141231809D01*
X137930000Y-141327047D01*
X137977619Y-141374666D01*
X138072857Y-141422285D01*
X138263333Y-141469904D01*
X138501428Y-141469904D01*
X138691904Y-141422285D01*
X138787142Y-141374666D01*
X138834761Y-141327047D01*
X138882380Y-141231809D01*
X138882380Y-141136571D01*
X138834761Y-141041333D01*
X138787142Y-140993714D01*
X138691904Y-140946095D01*
X138501428Y-140898476D01*
X138263333Y-140898476D01*
X138072857Y-140946095D01*
X137977619Y-140993714D01*
X137930000Y-141041333D01*
X137882380Y-141136571D01*
X114339619Y-114712761D02*
X114292000Y-114617523D01*
X114196761Y-114522285D01*
X114053904Y-114379428D01*
X114006285Y-114284190D01*
X114006285Y-114188952D01*
X114244380Y-114236571D02*
X114196761Y-114141333D01*
X114101523Y-114046095D01*
X113911047Y-113998476D01*
X113577714Y-113998476D01*
X113387238Y-114046095D01*
X113292000Y-114141333D01*
X113244380Y-114236571D01*
X113244380Y-114427047D01*
X113292000Y-114522285D01*
X113387238Y-114617523D01*
X113577714Y-114665142D01*
X113911047Y-114665142D01*
X114101523Y-114617523D01*
X114196761Y-114522285D01*
X114244380Y-114427047D01*
X114244380Y-114236571D01*
X113577714Y-115522285D02*
X114244380Y-115522285D01*
X113196761Y-115284190D02*
X113911047Y-115046095D01*
X113911047Y-115665142D01*
X114387619Y-100930761D02*
X114340000Y-100835523D01*
X114244761Y-100740285D01*
X114101904Y-100597428D01*
X114054285Y-100502190D01*
X114054285Y-100406952D01*
X114292380Y-100454571D02*
X114244761Y-100359333D01*
X114149523Y-100264095D01*
X113959047Y-100216476D01*
X113625714Y-100216476D01*
X113435238Y-100264095D01*
X113340000Y-100359333D01*
X113292380Y-100454571D01*
X113292380Y-100645047D01*
X113340000Y-100740285D01*
X113435238Y-100835523D01*
X113625714Y-100883142D01*
X113959047Y-100883142D01*
X114149523Y-100835523D01*
X114244761Y-100740285D01*
X114292380Y-100645047D01*
X114292380Y-100454571D01*
X113292380Y-101216476D02*
X113292380Y-101835523D01*
X113673333Y-101502190D01*
X113673333Y-101645047D01*
X113720952Y-101740285D01*
X113768571Y-101787904D01*
X113863809Y-101835523D01*
X114101904Y-101835523D01*
X114197142Y-101787904D01*
X114244761Y-101740285D01*
X114292380Y-101645047D01*
X114292380Y-101359333D01*
X114244761Y-101264095D01*
X114197142Y-101216476D01*
X104179619Y-80168761D02*
X104132000Y-80073523D01*
X104036761Y-79978285D01*
X103893904Y-79835428D01*
X103846285Y-79740190D01*
X103846285Y-79644952D01*
X104084380Y-79692571D02*
X104036761Y-79597333D01*
X103941523Y-79502095D01*
X103751047Y-79454476D01*
X103417714Y-79454476D01*
X103227238Y-79502095D01*
X103132000Y-79597333D01*
X103084380Y-79692571D01*
X103084380Y-79883047D01*
X103132000Y-79978285D01*
X103227238Y-80073523D01*
X103417714Y-80121142D01*
X103751047Y-80121142D01*
X103941523Y-80073523D01*
X104036761Y-79978285D01*
X104084380Y-79883047D01*
X104084380Y-79692571D01*
X103179619Y-80502095D02*
X103132000Y-80549714D01*
X103084380Y-80644952D01*
X103084380Y-80883047D01*
X103132000Y-80978285D01*
X103179619Y-81025904D01*
X103274857Y-81073523D01*
X103370095Y-81073523D01*
X103512952Y-81025904D01*
X104084380Y-80454476D01*
X104084380Y-81073523D01*
X108243619Y-76104761D02*
X108196000Y-76009523D01*
X108100761Y-75914285D01*
X107957904Y-75771428D01*
X107910285Y-75676190D01*
X107910285Y-75580952D01*
X108148380Y-75628571D02*
X108100761Y-75533333D01*
X108005523Y-75438095D01*
X107815047Y-75390476D01*
X107481714Y-75390476D01*
X107291238Y-75438095D01*
X107196000Y-75533333D01*
X107148380Y-75628571D01*
X107148380Y-75819047D01*
X107196000Y-75914285D01*
X107291238Y-76009523D01*
X107481714Y-76057142D01*
X107815047Y-76057142D01*
X108005523Y-76009523D01*
X108100761Y-75914285D01*
X108148380Y-75819047D01*
X108148380Y-75628571D01*
X108148380Y-77009523D02*
X108148380Y-76438095D01*
X108148380Y-76723809D02*
X107148380Y-76723809D01*
X107291238Y-76628571D01*
X107386476Y-76533333D01*
X107434095Y-76438095D01*
X129696380Y-104902095D02*
X130505904Y-104902095D01*
X130601142Y-104949714D01*
X130648761Y-104997333D01*
X130696380Y-105092571D01*
X130696380Y-105283047D01*
X130648761Y-105378285D01*
X130601142Y-105425904D01*
X130505904Y-105473523D01*
X129696380Y-105473523D01*
X130696380Y-106473523D02*
X130696380Y-105902095D01*
X130696380Y-106187809D02*
X129696380Y-106187809D01*
X129839238Y-106092571D01*
X129934476Y-105997333D01*
X129982095Y-105902095D01*
X122880380Y-75858761D02*
X122404190Y-75525428D01*
X122880380Y-75287333D02*
X121880380Y-75287333D01*
X121880380Y-75668285D01*
X121928000Y-75763523D01*
X121975619Y-75811142D01*
X122070857Y-75858761D01*
X122213714Y-75858761D01*
X122308952Y-75811142D01*
X122356571Y-75763523D01*
X122404190Y-75668285D01*
X122404190Y-75287333D01*
X121880380Y-76144476D02*
X122880380Y-76477809D01*
X121880380Y-76811142D01*
X121880380Y-77573047D02*
X121880380Y-77382571D01*
X121928000Y-77287333D01*
X121975619Y-77239714D01*
X122118476Y-77144476D01*
X122308952Y-77096857D01*
X122689904Y-77096857D01*
X122785142Y-77144476D01*
X122832761Y-77192095D01*
X122880380Y-77287333D01*
X122880380Y-77477809D01*
X122832761Y-77573047D01*
X122785142Y-77620666D01*
X122689904Y-77668285D01*
X122451809Y-77668285D01*
X122356571Y-77620666D01*
X122308952Y-77573047D01*
X122261333Y-77477809D01*
X122261333Y-77287333D01*
X122308952Y-77192095D01*
X122356571Y-77144476D01*
X122451809Y-77096857D01*
X102814380Y-108624761D02*
X102338190Y-108291428D01*
X102814380Y-108053333D02*
X101814380Y-108053333D01*
X101814380Y-108434285D01*
X101862000Y-108529523D01*
X101909619Y-108577142D01*
X102004857Y-108624761D01*
X102147714Y-108624761D01*
X102242952Y-108577142D01*
X102290571Y-108529523D01*
X102338190Y-108434285D01*
X102338190Y-108053333D01*
X101814380Y-108910476D02*
X102814380Y-109243809D01*
X101814380Y-109577142D01*
X102147714Y-110339047D02*
X102814380Y-110339047D01*
X101766761Y-110100952D02*
X102481047Y-109862857D01*
X102481047Y-110481904D01*
X102814380Y-96559761D02*
X102338190Y-96226428D01*
X102814380Y-95988333D02*
X101814380Y-95988333D01*
X101814380Y-96369285D01*
X101862000Y-96464523D01*
X101909619Y-96512142D01*
X102004857Y-96559761D01*
X102147714Y-96559761D01*
X102242952Y-96512142D01*
X102290571Y-96464523D01*
X102338190Y-96369285D01*
X102338190Y-95988333D01*
X101814380Y-96845476D02*
X102814380Y-97178809D01*
X101814380Y-97512142D01*
X101814380Y-97750238D02*
X101814380Y-98369285D01*
X102195333Y-98035952D01*
X102195333Y-98178809D01*
X102242952Y-98274047D01*
X102290571Y-98321666D01*
X102385809Y-98369285D01*
X102623904Y-98369285D01*
X102719142Y-98321666D01*
X102766761Y-98274047D01*
X102814380Y-98178809D01*
X102814380Y-97893095D01*
X102766761Y-97797857D01*
X102719142Y-97750238D01*
X123896380Y-139565142D02*
X123420190Y-139231809D01*
X123896380Y-138993714D02*
X122896380Y-138993714D01*
X122896380Y-139374666D01*
X122944000Y-139469904D01*
X122991619Y-139517523D01*
X123086857Y-139565142D01*
X123229714Y-139565142D01*
X123324952Y-139517523D01*
X123372571Y-139469904D01*
X123420190Y-139374666D01*
X123420190Y-138993714D01*
X122896380Y-139898476D02*
X122896380Y-140517523D01*
X123277333Y-140184190D01*
X123277333Y-140327047D01*
X123324952Y-140422285D01*
X123372571Y-140469904D01*
X123467809Y-140517523D01*
X123705904Y-140517523D01*
X123801142Y-140469904D01*
X123848761Y-140422285D01*
X123896380Y-140327047D01*
X123896380Y-140041333D01*
X123848761Y-139946095D01*
X123801142Y-139898476D01*
X123896380Y-140993714D02*
X123896380Y-141184190D01*
X123848761Y-141279428D01*
X123801142Y-141327047D01*
X123658285Y-141422285D01*
X123467809Y-141469904D01*
X123086857Y-141469904D01*
X122991619Y-141422285D01*
X122944000Y-141374666D01*
X122896380Y-141279428D01*
X122896380Y-141088952D01*
X122944000Y-140993714D01*
X122991619Y-140946095D01*
X123086857Y-140898476D01*
X123324952Y-140898476D01*
X123420190Y-140946095D01*
X123467809Y-140993714D01*
X123515428Y-141088952D01*
X123515428Y-141279428D01*
X123467809Y-141374666D01*
X123420190Y-141422285D01*
X123324952Y-141469904D01*
X135580380Y-71992142D02*
X135104190Y-71658809D01*
X135580380Y-71420714D02*
X134580380Y-71420714D01*
X134580380Y-71801666D01*
X134628000Y-71896904D01*
X134675619Y-71944523D01*
X134770857Y-71992142D01*
X134913714Y-71992142D01*
X135008952Y-71944523D01*
X135056571Y-71896904D01*
X135104190Y-71801666D01*
X135104190Y-71420714D01*
X134580380Y-72325476D02*
X134580380Y-72944523D01*
X134961333Y-72611190D01*
X134961333Y-72754047D01*
X135008952Y-72849285D01*
X135056571Y-72896904D01*
X135151809Y-72944523D01*
X135389904Y-72944523D01*
X135485142Y-72896904D01*
X135532761Y-72849285D01*
X135580380Y-72754047D01*
X135580380Y-72468333D01*
X135532761Y-72373095D01*
X135485142Y-72325476D01*
X135008952Y-73515952D02*
X134961333Y-73420714D01*
X134913714Y-73373095D01*
X134818476Y-73325476D01*
X134770857Y-73325476D01*
X134675619Y-73373095D01*
X134628000Y-73420714D01*
X134580380Y-73515952D01*
X134580380Y-73706428D01*
X134628000Y-73801666D01*
X134675619Y-73849285D01*
X134770857Y-73896904D01*
X134818476Y-73896904D01*
X134913714Y-73849285D01*
X134961333Y-73801666D01*
X135008952Y-73706428D01*
X135008952Y-73515952D01*
X135056571Y-73420714D01*
X135104190Y-73373095D01*
X135199428Y-73325476D01*
X135389904Y-73325476D01*
X135485142Y-73373095D01*
X135532761Y-73420714D01*
X135580380Y-73515952D01*
X135580380Y-73706428D01*
X135532761Y-73801666D01*
X135485142Y-73849285D01*
X135389904Y-73896904D01*
X135199428Y-73896904D01*
X135104190Y-73849285D01*
X135056571Y-73801666D01*
X135008952Y-73706428D01*
X120594380Y-80383142D02*
X120118190Y-80049809D01*
X120594380Y-79811714D02*
X119594380Y-79811714D01*
X119594380Y-80192666D01*
X119642000Y-80287904D01*
X119689619Y-80335523D01*
X119784857Y-80383142D01*
X119927714Y-80383142D01*
X120022952Y-80335523D01*
X120070571Y-80287904D01*
X120118190Y-80192666D01*
X120118190Y-79811714D01*
X119594380Y-80716476D02*
X119594380Y-81335523D01*
X119975333Y-81002190D01*
X119975333Y-81145047D01*
X120022952Y-81240285D01*
X120070571Y-81287904D01*
X120165809Y-81335523D01*
X120403904Y-81335523D01*
X120499142Y-81287904D01*
X120546761Y-81240285D01*
X120594380Y-81145047D01*
X120594380Y-80859333D01*
X120546761Y-80764095D01*
X120499142Y-80716476D01*
X119594380Y-81668857D02*
X119594380Y-82335523D01*
X120594380Y-81906952D01*
X122880380Y-80383142D02*
X122404190Y-80049809D01*
X122880380Y-79811714D02*
X121880380Y-79811714D01*
X121880380Y-80192666D01*
X121928000Y-80287904D01*
X121975619Y-80335523D01*
X122070857Y-80383142D01*
X122213714Y-80383142D01*
X122308952Y-80335523D01*
X122356571Y-80287904D01*
X122404190Y-80192666D01*
X122404190Y-79811714D01*
X121880380Y-80716476D02*
X121880380Y-81335523D01*
X122261333Y-81002190D01*
X122261333Y-81145047D01*
X122308952Y-81240285D01*
X122356571Y-81287904D01*
X122451809Y-81335523D01*
X122689904Y-81335523D01*
X122785142Y-81287904D01*
X122832761Y-81240285D01*
X122880380Y-81145047D01*
X122880380Y-80859333D01*
X122832761Y-80764095D01*
X122785142Y-80716476D01*
X121880380Y-82192666D02*
X121880380Y-82002190D01*
X121928000Y-81906952D01*
X121975619Y-81859333D01*
X122118476Y-81764095D01*
X122308952Y-81716476D01*
X122689904Y-81716476D01*
X122785142Y-81764095D01*
X122832761Y-81811714D01*
X122880380Y-81906952D01*
X122880380Y-82097428D01*
X122832761Y-82192666D01*
X122785142Y-82240285D01*
X122689904Y-82287904D01*
X122451809Y-82287904D01*
X122356571Y-82240285D01*
X122308952Y-82192666D01*
X122261333Y-82097428D01*
X122261333Y-81906952D01*
X122308952Y-81811714D01*
X122356571Y-81764095D01*
X122451809Y-81716476D01*
X125166380Y-80383142D02*
X124690190Y-80049809D01*
X125166380Y-79811714D02*
X124166380Y-79811714D01*
X124166380Y-80192666D01*
X124214000Y-80287904D01*
X124261619Y-80335523D01*
X124356857Y-80383142D01*
X124499714Y-80383142D01*
X124594952Y-80335523D01*
X124642571Y-80287904D01*
X124690190Y-80192666D01*
X124690190Y-79811714D01*
X124166380Y-80716476D02*
X124166380Y-81335523D01*
X124547333Y-81002190D01*
X124547333Y-81145047D01*
X124594952Y-81240285D01*
X124642571Y-81287904D01*
X124737809Y-81335523D01*
X124975904Y-81335523D01*
X125071142Y-81287904D01*
X125118761Y-81240285D01*
X125166380Y-81145047D01*
X125166380Y-80859333D01*
X125118761Y-80764095D01*
X125071142Y-80716476D01*
X124166380Y-82240285D02*
X124166380Y-81764095D01*
X124642571Y-81716476D01*
X124594952Y-81764095D01*
X124547333Y-81859333D01*
X124547333Y-82097428D01*
X124594952Y-82192666D01*
X124642571Y-82240285D01*
X124737809Y-82287904D01*
X124975904Y-82287904D01*
X125071142Y-82240285D01*
X125118761Y-82192666D01*
X125166380Y-82097428D01*
X125166380Y-81859333D01*
X125118761Y-81764095D01*
X125071142Y-81716476D01*
X127452380Y-80383142D02*
X126976190Y-80049809D01*
X127452380Y-79811714D02*
X126452380Y-79811714D01*
X126452380Y-80192666D01*
X126500000Y-80287904D01*
X126547619Y-80335523D01*
X126642857Y-80383142D01*
X126785714Y-80383142D01*
X126880952Y-80335523D01*
X126928571Y-80287904D01*
X126976190Y-80192666D01*
X126976190Y-79811714D01*
X126452380Y-80716476D02*
X126452380Y-81335523D01*
X126833333Y-81002190D01*
X126833333Y-81145047D01*
X126880952Y-81240285D01*
X126928571Y-81287904D01*
X127023809Y-81335523D01*
X127261904Y-81335523D01*
X127357142Y-81287904D01*
X127404761Y-81240285D01*
X127452380Y-81145047D01*
X127452380Y-80859333D01*
X127404761Y-80764095D01*
X127357142Y-80716476D01*
X126785714Y-82192666D02*
X127452380Y-82192666D01*
X126404761Y-81954571D02*
X127119047Y-81716476D01*
X127119047Y-82335523D01*
X129738380Y-80383142D02*
X129262190Y-80049809D01*
X129738380Y-79811714D02*
X128738380Y-79811714D01*
X128738380Y-80192666D01*
X128786000Y-80287904D01*
X128833619Y-80335523D01*
X128928857Y-80383142D01*
X129071714Y-80383142D01*
X129166952Y-80335523D01*
X129214571Y-80287904D01*
X129262190Y-80192666D01*
X129262190Y-79811714D01*
X128738380Y-80716476D02*
X128738380Y-81335523D01*
X129119333Y-81002190D01*
X129119333Y-81145047D01*
X129166952Y-81240285D01*
X129214571Y-81287904D01*
X129309809Y-81335523D01*
X129547904Y-81335523D01*
X129643142Y-81287904D01*
X129690761Y-81240285D01*
X129738380Y-81145047D01*
X129738380Y-80859333D01*
X129690761Y-80764095D01*
X129643142Y-80716476D01*
X128738380Y-81668857D02*
X128738380Y-82287904D01*
X129119333Y-81954571D01*
X129119333Y-82097428D01*
X129166952Y-82192666D01*
X129214571Y-82240285D01*
X129309809Y-82287904D01*
X129547904Y-82287904D01*
X129643142Y-82240285D01*
X129690761Y-82192666D01*
X129738380Y-82097428D01*
X129738380Y-81811714D01*
X129690761Y-81716476D01*
X129643142Y-81668857D01*
X132024380Y-80383142D02*
X131548190Y-80049809D01*
X132024380Y-79811714D02*
X131024380Y-79811714D01*
X131024380Y-80192666D01*
X131072000Y-80287904D01*
X131119619Y-80335523D01*
X131214857Y-80383142D01*
X131357714Y-80383142D01*
X131452952Y-80335523D01*
X131500571Y-80287904D01*
X131548190Y-80192666D01*
X131548190Y-79811714D01*
X131024380Y-80716476D02*
X131024380Y-81335523D01*
X131405333Y-81002190D01*
X131405333Y-81145047D01*
X131452952Y-81240285D01*
X131500571Y-81287904D01*
X131595809Y-81335523D01*
X131833904Y-81335523D01*
X131929142Y-81287904D01*
X131976761Y-81240285D01*
X132024380Y-81145047D01*
X132024380Y-80859333D01*
X131976761Y-80764095D01*
X131929142Y-80716476D01*
X131119619Y-81716476D02*
X131072000Y-81764095D01*
X131024380Y-81859333D01*
X131024380Y-82097428D01*
X131072000Y-82192666D01*
X131119619Y-82240285D01*
X131214857Y-82287904D01*
X131310095Y-82287904D01*
X131452952Y-82240285D01*
X132024380Y-81668857D01*
X132024380Y-82287904D01*
X134310380Y-80383142D02*
X133834190Y-80049809D01*
X134310380Y-79811714D02*
X133310380Y-79811714D01*
X133310380Y-80192666D01*
X133358000Y-80287904D01*
X133405619Y-80335523D01*
X133500857Y-80383142D01*
X133643714Y-80383142D01*
X133738952Y-80335523D01*
X133786571Y-80287904D01*
X133834190Y-80192666D01*
X133834190Y-79811714D01*
X133310380Y-80716476D02*
X133310380Y-81335523D01*
X133691333Y-81002190D01*
X133691333Y-81145047D01*
X133738952Y-81240285D01*
X133786571Y-81287904D01*
X133881809Y-81335523D01*
X134119904Y-81335523D01*
X134215142Y-81287904D01*
X134262761Y-81240285D01*
X134310380Y-81145047D01*
X134310380Y-80859333D01*
X134262761Y-80764095D01*
X134215142Y-80716476D01*
X134310380Y-82287904D02*
X134310380Y-81716476D01*
X134310380Y-82002190D02*
X133310380Y-82002190D01*
X133453238Y-81906952D01*
X133548476Y-81811714D01*
X133596095Y-81716476D01*
X139136380Y-91305142D02*
X138660190Y-90971809D01*
X139136380Y-90733714D02*
X138136380Y-90733714D01*
X138136380Y-91114666D01*
X138184000Y-91209904D01*
X138231619Y-91257523D01*
X138326857Y-91305142D01*
X138469714Y-91305142D01*
X138564952Y-91257523D01*
X138612571Y-91209904D01*
X138660190Y-91114666D01*
X138660190Y-90733714D01*
X138136380Y-91638476D02*
X138136380Y-92257523D01*
X138517333Y-91924190D01*
X138517333Y-92067047D01*
X138564952Y-92162285D01*
X138612571Y-92209904D01*
X138707809Y-92257523D01*
X138945904Y-92257523D01*
X139041142Y-92209904D01*
X139088761Y-92162285D01*
X139136380Y-92067047D01*
X139136380Y-91781333D01*
X139088761Y-91686095D01*
X139041142Y-91638476D01*
X138136380Y-92876571D02*
X138136380Y-92971809D01*
X138184000Y-93067047D01*
X138231619Y-93114666D01*
X138326857Y-93162285D01*
X138517333Y-93209904D01*
X138755428Y-93209904D01*
X138945904Y-93162285D01*
X139041142Y-93114666D01*
X139088761Y-93067047D01*
X139136380Y-92971809D01*
X139136380Y-92876571D01*
X139088761Y-92781333D01*
X139041142Y-92733714D01*
X138945904Y-92686095D01*
X138755428Y-92638476D01*
X138517333Y-92638476D01*
X138326857Y-92686095D01*
X138231619Y-92733714D01*
X138184000Y-92781333D01*
X138136380Y-92876571D01*
X138120380Y-71983142D02*
X137644190Y-71649809D01*
X138120380Y-71411714D02*
X137120380Y-71411714D01*
X137120380Y-71792666D01*
X137168000Y-71887904D01*
X137215619Y-71935523D01*
X137310857Y-71983142D01*
X137453714Y-71983142D01*
X137548952Y-71935523D01*
X137596571Y-71887904D01*
X137644190Y-71792666D01*
X137644190Y-71411714D01*
X137215619Y-72364095D02*
X137168000Y-72411714D01*
X137120380Y-72506952D01*
X137120380Y-72745047D01*
X137168000Y-72840285D01*
X137215619Y-72887904D01*
X137310857Y-72935523D01*
X137406095Y-72935523D01*
X137548952Y-72887904D01*
X138120380Y-72316476D01*
X138120380Y-72935523D01*
X138120380Y-73411714D02*
X138120380Y-73602190D01*
X138072761Y-73697428D01*
X138025142Y-73745047D01*
X137882285Y-73840285D01*
X137691809Y-73887904D01*
X137310857Y-73887904D01*
X137215619Y-73840285D01*
X137168000Y-73792666D01*
X137120380Y-73697428D01*
X137120380Y-73506952D01*
X137168000Y-73411714D01*
X137215619Y-73364095D01*
X137310857Y-73316476D01*
X137548952Y-73316476D01*
X137644190Y-73364095D01*
X137691809Y-73411714D01*
X137739428Y-73506952D01*
X137739428Y-73697428D01*
X137691809Y-73792666D01*
X137644190Y-73840285D01*
X137548952Y-73887904D01*
X127960380Y-67166142D02*
X127484190Y-66832809D01*
X127960380Y-66594714D02*
X126960380Y-66594714D01*
X126960380Y-66975666D01*
X127008000Y-67070904D01*
X127055619Y-67118523D01*
X127150857Y-67166142D01*
X127293714Y-67166142D01*
X127388952Y-67118523D01*
X127436571Y-67070904D01*
X127484190Y-66975666D01*
X127484190Y-66594714D01*
X127055619Y-67547095D02*
X127008000Y-67594714D01*
X126960380Y-67689952D01*
X126960380Y-67928047D01*
X127008000Y-68023285D01*
X127055619Y-68070904D01*
X127150857Y-68118523D01*
X127246095Y-68118523D01*
X127388952Y-68070904D01*
X127960380Y-67499476D01*
X127960380Y-68118523D01*
X127388952Y-68689952D02*
X127341333Y-68594714D01*
X127293714Y-68547095D01*
X127198476Y-68499476D01*
X127150857Y-68499476D01*
X127055619Y-68547095D01*
X127008000Y-68594714D01*
X126960380Y-68689952D01*
X126960380Y-68880428D01*
X127008000Y-68975666D01*
X127055619Y-69023285D01*
X127150857Y-69070904D01*
X127198476Y-69070904D01*
X127293714Y-69023285D01*
X127341333Y-68975666D01*
X127388952Y-68880428D01*
X127388952Y-68689952D01*
X127436571Y-68594714D01*
X127484190Y-68547095D01*
X127579428Y-68499476D01*
X127769904Y-68499476D01*
X127865142Y-68547095D01*
X127912761Y-68594714D01*
X127960380Y-68689952D01*
X127960380Y-68880428D01*
X127912761Y-68975666D01*
X127865142Y-69023285D01*
X127769904Y-69070904D01*
X127579428Y-69070904D01*
X127484190Y-69023285D01*
X127436571Y-68975666D01*
X127388952Y-68880428D01*
X138882380Y-128389142D02*
X138406190Y-128055809D01*
X138882380Y-127817714D02*
X137882380Y-127817714D01*
X137882380Y-128198666D01*
X137930000Y-128293904D01*
X137977619Y-128341523D01*
X138072857Y-128389142D01*
X138215714Y-128389142D01*
X138310952Y-128341523D01*
X138358571Y-128293904D01*
X138406190Y-128198666D01*
X138406190Y-127817714D01*
X137977619Y-128770095D02*
X137930000Y-128817714D01*
X137882380Y-128912952D01*
X137882380Y-129151047D01*
X137930000Y-129246285D01*
X137977619Y-129293904D01*
X138072857Y-129341523D01*
X138168095Y-129341523D01*
X138310952Y-129293904D01*
X138882380Y-128722476D01*
X138882380Y-129341523D01*
X137882380Y-129674857D02*
X137882380Y-130341523D01*
X138882380Y-129912952D01*
X145232380Y-115181142D02*
X144756190Y-114847809D01*
X145232380Y-114609714D02*
X144232380Y-114609714D01*
X144232380Y-114990666D01*
X144280000Y-115085904D01*
X144327619Y-115133523D01*
X144422857Y-115181142D01*
X144565714Y-115181142D01*
X144660952Y-115133523D01*
X144708571Y-115085904D01*
X144756190Y-114990666D01*
X144756190Y-114609714D01*
X144327619Y-115562095D02*
X144280000Y-115609714D01*
X144232380Y-115704952D01*
X144232380Y-115943047D01*
X144280000Y-116038285D01*
X144327619Y-116085904D01*
X144422857Y-116133523D01*
X144518095Y-116133523D01*
X144660952Y-116085904D01*
X145232380Y-115514476D01*
X145232380Y-116133523D01*
X144232380Y-116990666D02*
X144232380Y-116800190D01*
X144280000Y-116704952D01*
X144327619Y-116657333D01*
X144470476Y-116562095D01*
X144660952Y-116514476D01*
X145041904Y-116514476D01*
X145137142Y-116562095D01*
X145184761Y-116609714D01*
X145232380Y-116704952D01*
X145232380Y-116895428D01*
X145184761Y-116990666D01*
X145137142Y-117038285D01*
X145041904Y-117085904D01*
X144803809Y-117085904D01*
X144708571Y-117038285D01*
X144660952Y-116990666D01*
X144613333Y-116895428D01*
X144613333Y-116704952D01*
X144660952Y-116609714D01*
X144708571Y-116562095D01*
X144803809Y-116514476D01*
X144216380Y-94861142D02*
X143740190Y-94527809D01*
X144216380Y-94289714D02*
X143216380Y-94289714D01*
X143216380Y-94670666D01*
X143264000Y-94765904D01*
X143311619Y-94813523D01*
X143406857Y-94861142D01*
X143549714Y-94861142D01*
X143644952Y-94813523D01*
X143692571Y-94765904D01*
X143740190Y-94670666D01*
X143740190Y-94289714D01*
X143311619Y-95242095D02*
X143264000Y-95289714D01*
X143216380Y-95384952D01*
X143216380Y-95623047D01*
X143264000Y-95718285D01*
X143311619Y-95765904D01*
X143406857Y-95813523D01*
X143502095Y-95813523D01*
X143644952Y-95765904D01*
X144216380Y-95194476D01*
X144216380Y-95813523D01*
X143216380Y-96718285D02*
X143216380Y-96242095D01*
X143692571Y-96194476D01*
X143644952Y-96242095D01*
X143597333Y-96337333D01*
X143597333Y-96575428D01*
X143644952Y-96670666D01*
X143692571Y-96718285D01*
X143787809Y-96765904D01*
X144025904Y-96765904D01*
X144121142Y-96718285D01*
X144168761Y-96670666D01*
X144216380Y-96575428D01*
X144216380Y-96337333D01*
X144168761Y-96242095D01*
X144121142Y-96194476D01*
X132024380Y-94861142D02*
X131548190Y-94527809D01*
X132024380Y-94289714D02*
X131024380Y-94289714D01*
X131024380Y-94670666D01*
X131072000Y-94765904D01*
X131119619Y-94813523D01*
X131214857Y-94861142D01*
X131357714Y-94861142D01*
X131452952Y-94813523D01*
X131500571Y-94765904D01*
X131548190Y-94670666D01*
X131548190Y-94289714D01*
X131119619Y-95242095D02*
X131072000Y-95289714D01*
X131024380Y-95384952D01*
X131024380Y-95623047D01*
X131072000Y-95718285D01*
X131119619Y-95765904D01*
X131214857Y-95813523D01*
X131310095Y-95813523D01*
X131452952Y-95765904D01*
X132024380Y-95194476D01*
X132024380Y-95813523D01*
X131357714Y-96670666D02*
X132024380Y-96670666D01*
X130976761Y-96432571D02*
X131691047Y-96194476D01*
X131691047Y-96813523D01*
X134564380Y-94870142D02*
X134088190Y-94536809D01*
X134564380Y-94298714D02*
X133564380Y-94298714D01*
X133564380Y-94679666D01*
X133612000Y-94774904D01*
X133659619Y-94822523D01*
X133754857Y-94870142D01*
X133897714Y-94870142D01*
X133992952Y-94822523D01*
X134040571Y-94774904D01*
X134088190Y-94679666D01*
X134088190Y-94298714D01*
X133659619Y-95251095D02*
X133612000Y-95298714D01*
X133564380Y-95393952D01*
X133564380Y-95632047D01*
X133612000Y-95727285D01*
X133659619Y-95774904D01*
X133754857Y-95822523D01*
X133850095Y-95822523D01*
X133992952Y-95774904D01*
X134564380Y-95203476D01*
X134564380Y-95822523D01*
X133564380Y-96155857D02*
X133564380Y-96774904D01*
X133945333Y-96441571D01*
X133945333Y-96584428D01*
X133992952Y-96679666D01*
X134040571Y-96727285D01*
X134135809Y-96774904D01*
X134373904Y-96774904D01*
X134469142Y-96727285D01*
X134516761Y-96679666D01*
X134564380Y-96584428D01*
X134564380Y-96298714D01*
X134516761Y-96203476D01*
X134469142Y-96155857D01*
X118308380Y-94861142D02*
X117832190Y-94527809D01*
X118308380Y-94289714D02*
X117308380Y-94289714D01*
X117308380Y-94670666D01*
X117356000Y-94765904D01*
X117403619Y-94813523D01*
X117498857Y-94861142D01*
X117641714Y-94861142D01*
X117736952Y-94813523D01*
X117784571Y-94765904D01*
X117832190Y-94670666D01*
X117832190Y-94289714D01*
X117403619Y-95242095D02*
X117356000Y-95289714D01*
X117308380Y-95384952D01*
X117308380Y-95623047D01*
X117356000Y-95718285D01*
X117403619Y-95765904D01*
X117498857Y-95813523D01*
X117594095Y-95813523D01*
X117736952Y-95765904D01*
X118308380Y-95194476D01*
X118308380Y-95813523D01*
X117403619Y-96194476D02*
X117356000Y-96242095D01*
X117308380Y-96337333D01*
X117308380Y-96575428D01*
X117356000Y-96670666D01*
X117403619Y-96718285D01*
X117498857Y-96765904D01*
X117594095Y-96765904D01*
X117736952Y-96718285D01*
X118308380Y-96146857D01*
X118308380Y-96765904D01*
X138882380Y-122293142D02*
X138406190Y-121959809D01*
X138882380Y-121721714D02*
X137882380Y-121721714D01*
X137882380Y-122102666D01*
X137930000Y-122197904D01*
X137977619Y-122245523D01*
X138072857Y-122293142D01*
X138215714Y-122293142D01*
X138310952Y-122245523D01*
X138358571Y-122197904D01*
X138406190Y-122102666D01*
X138406190Y-121721714D01*
X137977619Y-122674095D02*
X137930000Y-122721714D01*
X137882380Y-122816952D01*
X137882380Y-123055047D01*
X137930000Y-123150285D01*
X137977619Y-123197904D01*
X138072857Y-123245523D01*
X138168095Y-123245523D01*
X138310952Y-123197904D01*
X138882380Y-122626476D01*
X138882380Y-123245523D01*
X138882380Y-124197904D02*
X138882380Y-123626476D01*
X138882380Y-123912190D02*
X137882380Y-123912190D01*
X138025238Y-123816952D01*
X138120476Y-123721714D01*
X138168095Y-123626476D01*
X116784380Y-115163142D02*
X116308190Y-114829809D01*
X116784380Y-114591714D02*
X115784380Y-114591714D01*
X115784380Y-114972666D01*
X115832000Y-115067904D01*
X115879619Y-115115523D01*
X115974857Y-115163142D01*
X116117714Y-115163142D01*
X116212952Y-115115523D01*
X116260571Y-115067904D01*
X116308190Y-114972666D01*
X116308190Y-114591714D01*
X115879619Y-115544095D02*
X115832000Y-115591714D01*
X115784380Y-115686952D01*
X115784380Y-115925047D01*
X115832000Y-116020285D01*
X115879619Y-116067904D01*
X115974857Y-116115523D01*
X116070095Y-116115523D01*
X116212952Y-116067904D01*
X116784380Y-115496476D01*
X116784380Y-116115523D01*
X115784380Y-116734571D02*
X115784380Y-116829809D01*
X115832000Y-116925047D01*
X115879619Y-116972666D01*
X115974857Y-117020285D01*
X116165333Y-117067904D01*
X116403428Y-117067904D01*
X116593904Y-117020285D01*
X116689142Y-116972666D01*
X116736761Y-116925047D01*
X116784380Y-116829809D01*
X116784380Y-116734571D01*
X116736761Y-116639333D01*
X116689142Y-116591714D01*
X116593904Y-116544095D01*
X116403428Y-116496476D01*
X116165333Y-116496476D01*
X115974857Y-116544095D01*
X115879619Y-116591714D01*
X115832000Y-116639333D01*
X115784380Y-116734571D01*
X124404380Y-115199142D02*
X123928190Y-114865809D01*
X124404380Y-114627714D02*
X123404380Y-114627714D01*
X123404380Y-115008666D01*
X123452000Y-115103904D01*
X123499619Y-115151523D01*
X123594857Y-115199142D01*
X123737714Y-115199142D01*
X123832952Y-115151523D01*
X123880571Y-115103904D01*
X123928190Y-115008666D01*
X123928190Y-114627714D01*
X124404380Y-116151523D02*
X124404380Y-115580095D01*
X124404380Y-115865809D02*
X123404380Y-115865809D01*
X123547238Y-115770571D01*
X123642476Y-115675333D01*
X123690095Y-115580095D01*
X124404380Y-116627714D02*
X124404380Y-116818190D01*
X124356761Y-116913428D01*
X124309142Y-116961047D01*
X124166285Y-117056285D01*
X123975809Y-117103904D01*
X123594857Y-117103904D01*
X123499619Y-117056285D01*
X123452000Y-117008666D01*
X123404380Y-116913428D01*
X123404380Y-116722952D01*
X123452000Y-116627714D01*
X123499619Y-116580095D01*
X123594857Y-116532476D01*
X123832952Y-116532476D01*
X123928190Y-116580095D01*
X123975809Y-116627714D01*
X124023428Y-116722952D01*
X124023428Y-116913428D01*
X123975809Y-117008666D01*
X123928190Y-117056285D01*
X123832952Y-117103904D01*
X109672380Y-119735142D02*
X109196190Y-119401809D01*
X109672380Y-119163714D02*
X108672380Y-119163714D01*
X108672380Y-119544666D01*
X108720000Y-119639904D01*
X108767619Y-119687523D01*
X108862857Y-119735142D01*
X109005714Y-119735142D01*
X109100952Y-119687523D01*
X109148571Y-119639904D01*
X109196190Y-119544666D01*
X109196190Y-119163714D01*
X109672380Y-120687523D02*
X109672380Y-120116095D01*
X109672380Y-120401809D02*
X108672380Y-120401809D01*
X108815238Y-120306571D01*
X108910476Y-120211333D01*
X108958095Y-120116095D01*
X109100952Y-121258952D02*
X109053333Y-121163714D01*
X109005714Y-121116095D01*
X108910476Y-121068476D01*
X108862857Y-121068476D01*
X108767619Y-121116095D01*
X108720000Y-121163714D01*
X108672380Y-121258952D01*
X108672380Y-121449428D01*
X108720000Y-121544666D01*
X108767619Y-121592285D01*
X108862857Y-121639904D01*
X108910476Y-121639904D01*
X109005714Y-121592285D01*
X109053333Y-121544666D01*
X109100952Y-121449428D01*
X109100952Y-121258952D01*
X109148571Y-121163714D01*
X109196190Y-121116095D01*
X109291428Y-121068476D01*
X109481904Y-121068476D01*
X109577142Y-121116095D01*
X109624761Y-121163714D01*
X109672380Y-121258952D01*
X109672380Y-121449428D01*
X109624761Y-121544666D01*
X109577142Y-121592285D01*
X109481904Y-121639904D01*
X109291428Y-121639904D01*
X109196190Y-121592285D01*
X109148571Y-121544666D01*
X109100952Y-121449428D01*
X121864380Y-115172142D02*
X121388190Y-114838809D01*
X121864380Y-114600714D02*
X120864380Y-114600714D01*
X120864380Y-114981666D01*
X120912000Y-115076904D01*
X120959619Y-115124523D01*
X121054857Y-115172142D01*
X121197714Y-115172142D01*
X121292952Y-115124523D01*
X121340571Y-115076904D01*
X121388190Y-114981666D01*
X121388190Y-114600714D01*
X121864380Y-116124523D02*
X121864380Y-115553095D01*
X121864380Y-115838809D02*
X120864380Y-115838809D01*
X121007238Y-115743571D01*
X121102476Y-115648333D01*
X121150095Y-115553095D01*
X120864380Y-116457857D02*
X120864380Y-117124523D01*
X121864380Y-116695952D01*
X112720380Y-105275142D02*
X112244190Y-104941809D01*
X112720380Y-104703714D02*
X111720380Y-104703714D01*
X111720380Y-105084666D01*
X111768000Y-105179904D01*
X111815619Y-105227523D01*
X111910857Y-105275142D01*
X112053714Y-105275142D01*
X112148952Y-105227523D01*
X112196571Y-105179904D01*
X112244190Y-105084666D01*
X112244190Y-104703714D01*
X112720380Y-106227523D02*
X112720380Y-105656095D01*
X112720380Y-105941809D02*
X111720380Y-105941809D01*
X111863238Y-105846571D01*
X111958476Y-105751333D01*
X112006095Y-105656095D01*
X111720380Y-107084666D02*
X111720380Y-106894190D01*
X111768000Y-106798952D01*
X111815619Y-106751333D01*
X111958476Y-106656095D01*
X112148952Y-106608476D01*
X112529904Y-106608476D01*
X112625142Y-106656095D01*
X112672761Y-106703714D01*
X112720380Y-106798952D01*
X112720380Y-106989428D01*
X112672761Y-107084666D01*
X112625142Y-107132285D01*
X112529904Y-107179904D01*
X112291809Y-107179904D01*
X112196571Y-107132285D01*
X112148952Y-107084666D01*
X112101333Y-106989428D01*
X112101333Y-106798952D01*
X112148952Y-106703714D01*
X112196571Y-106656095D01*
X112291809Y-106608476D01*
X110180380Y-105275142D02*
X109704190Y-104941809D01*
X110180380Y-104703714D02*
X109180380Y-104703714D01*
X109180380Y-105084666D01*
X109228000Y-105179904D01*
X109275619Y-105227523D01*
X109370857Y-105275142D01*
X109513714Y-105275142D01*
X109608952Y-105227523D01*
X109656571Y-105179904D01*
X109704190Y-105084666D01*
X109704190Y-104703714D01*
X110180380Y-106227523D02*
X110180380Y-105656095D01*
X110180380Y-105941809D02*
X109180380Y-105941809D01*
X109323238Y-105846571D01*
X109418476Y-105751333D01*
X109466095Y-105656095D01*
X109180380Y-107132285D02*
X109180380Y-106656095D01*
X109656571Y-106608476D01*
X109608952Y-106656095D01*
X109561333Y-106751333D01*
X109561333Y-106989428D01*
X109608952Y-107084666D01*
X109656571Y-107132285D01*
X109751809Y-107179904D01*
X109989904Y-107179904D01*
X110085142Y-107132285D01*
X110132761Y-107084666D01*
X110180380Y-106989428D01*
X110180380Y-106751333D01*
X110132761Y-106656095D01*
X110085142Y-106608476D01*
X119324380Y-115181142D02*
X118848190Y-114847809D01*
X119324380Y-114609714D02*
X118324380Y-114609714D01*
X118324380Y-114990666D01*
X118372000Y-115085904D01*
X118419619Y-115133523D01*
X118514857Y-115181142D01*
X118657714Y-115181142D01*
X118752952Y-115133523D01*
X118800571Y-115085904D01*
X118848190Y-114990666D01*
X118848190Y-114609714D01*
X119324380Y-116133523D02*
X119324380Y-115562095D01*
X119324380Y-115847809D02*
X118324380Y-115847809D01*
X118467238Y-115752571D01*
X118562476Y-115657333D01*
X118610095Y-115562095D01*
X118657714Y-116990666D02*
X119324380Y-116990666D01*
X118276761Y-116752571D02*
X118991047Y-116514476D01*
X118991047Y-117133523D01*
X112974380Y-94589142D02*
X112498190Y-94255809D01*
X112974380Y-94017714D02*
X111974380Y-94017714D01*
X111974380Y-94398666D01*
X112022000Y-94493904D01*
X112069619Y-94541523D01*
X112164857Y-94589142D01*
X112307714Y-94589142D01*
X112402952Y-94541523D01*
X112450571Y-94493904D01*
X112498190Y-94398666D01*
X112498190Y-94017714D01*
X112974380Y-95541523D02*
X112974380Y-94970095D01*
X112974380Y-95255809D02*
X111974380Y-95255809D01*
X112117238Y-95160571D01*
X112212476Y-95065333D01*
X112260095Y-94970095D01*
X111974380Y-95874857D02*
X111974380Y-96493904D01*
X112355333Y-96160571D01*
X112355333Y-96303428D01*
X112402952Y-96398666D01*
X112450571Y-96446285D01*
X112545809Y-96493904D01*
X112783904Y-96493904D01*
X112879142Y-96446285D01*
X112926761Y-96398666D01*
X112974380Y-96303428D01*
X112974380Y-96017714D01*
X112926761Y-95922476D01*
X112879142Y-95874857D01*
X110688380Y-94589142D02*
X110212190Y-94255809D01*
X110688380Y-94017714D02*
X109688380Y-94017714D01*
X109688380Y-94398666D01*
X109736000Y-94493904D01*
X109783619Y-94541523D01*
X109878857Y-94589142D01*
X110021714Y-94589142D01*
X110116952Y-94541523D01*
X110164571Y-94493904D01*
X110212190Y-94398666D01*
X110212190Y-94017714D01*
X110688380Y-95541523D02*
X110688380Y-94970095D01*
X110688380Y-95255809D02*
X109688380Y-95255809D01*
X109831238Y-95160571D01*
X109926476Y-95065333D01*
X109974095Y-94970095D01*
X109783619Y-95922476D02*
X109736000Y-95970095D01*
X109688380Y-96065333D01*
X109688380Y-96303428D01*
X109736000Y-96398666D01*
X109783619Y-96446285D01*
X109878857Y-96493904D01*
X109974095Y-96493904D01*
X110116952Y-96446285D01*
X110688380Y-95874857D01*
X110688380Y-96493904D01*
X135072380Y-115417142D02*
X134596190Y-115083809D01*
X135072380Y-114845714D02*
X134072380Y-114845714D01*
X134072380Y-115226666D01*
X134120000Y-115321904D01*
X134167619Y-115369523D01*
X134262857Y-115417142D01*
X134405714Y-115417142D01*
X134500952Y-115369523D01*
X134548571Y-115321904D01*
X134596190Y-115226666D01*
X134596190Y-114845714D01*
X135072380Y-116369523D02*
X135072380Y-115798095D01*
X135072380Y-116083809D02*
X134072380Y-116083809D01*
X134215238Y-115988571D01*
X134310476Y-115893333D01*
X134358095Y-115798095D01*
X135072380Y-117321904D02*
X135072380Y-116750476D01*
X135072380Y-117036190D02*
X134072380Y-117036190D01*
X134215238Y-116940952D01*
X134310476Y-116845714D01*
X134358095Y-116750476D01*
X106624380Y-68953142D02*
X106148190Y-68619809D01*
X106624380Y-68381714D02*
X105624380Y-68381714D01*
X105624380Y-68762666D01*
X105672000Y-68857904D01*
X105719619Y-68905523D01*
X105814857Y-68953142D01*
X105957714Y-68953142D01*
X106052952Y-68905523D01*
X106100571Y-68857904D01*
X106148190Y-68762666D01*
X106148190Y-68381714D01*
X106624380Y-69905523D02*
X106624380Y-69334095D01*
X106624380Y-69619809D02*
X105624380Y-69619809D01*
X105767238Y-69524571D01*
X105862476Y-69429333D01*
X105910095Y-69334095D01*
X105624380Y-70524571D02*
X105624380Y-70619809D01*
X105672000Y-70715047D01*
X105719619Y-70762666D01*
X105814857Y-70810285D01*
X106005333Y-70857904D01*
X106243428Y-70857904D01*
X106433904Y-70810285D01*
X106529142Y-70762666D01*
X106576761Y-70715047D01*
X106624380Y-70619809D01*
X106624380Y-70524571D01*
X106576761Y-70429333D01*
X106529142Y-70381714D01*
X106433904Y-70334095D01*
X106243428Y-70286476D01*
X106005333Y-70286476D01*
X105814857Y-70334095D01*
X105719619Y-70381714D01*
X105672000Y-70429333D01*
X105624380Y-70524571D01*
X110434380Y-86447333D02*
X109958190Y-86114000D01*
X110434380Y-85875904D02*
X109434380Y-85875904D01*
X109434380Y-86256857D01*
X109482000Y-86352095D01*
X109529619Y-86399714D01*
X109624857Y-86447333D01*
X109767714Y-86447333D01*
X109862952Y-86399714D01*
X109910571Y-86352095D01*
X109958190Y-86256857D01*
X109958190Y-85875904D01*
X109862952Y-87018761D02*
X109815333Y-86923523D01*
X109767714Y-86875904D01*
X109672476Y-86828285D01*
X109624857Y-86828285D01*
X109529619Y-86875904D01*
X109482000Y-86923523D01*
X109434380Y-87018761D01*
X109434380Y-87209238D01*
X109482000Y-87304476D01*
X109529619Y-87352095D01*
X109624857Y-87399714D01*
X109672476Y-87399714D01*
X109767714Y-87352095D01*
X109815333Y-87304476D01*
X109862952Y-87209238D01*
X109862952Y-87018761D01*
X109910571Y-86923523D01*
X109958190Y-86875904D01*
X110053428Y-86828285D01*
X110243904Y-86828285D01*
X110339142Y-86875904D01*
X110386761Y-86923523D01*
X110434380Y-87018761D01*
X110434380Y-87209238D01*
X110386761Y-87304476D01*
X110339142Y-87352095D01*
X110243904Y-87399714D01*
X110053428Y-87399714D01*
X109958190Y-87352095D01*
X109910571Y-87304476D01*
X109862952Y-87209238D01*
X137612380Y-115258333D02*
X137136190Y-114925000D01*
X137612380Y-114686904D02*
X136612380Y-114686904D01*
X136612380Y-115067857D01*
X136660000Y-115163095D01*
X136707619Y-115210714D01*
X136802857Y-115258333D01*
X136945714Y-115258333D01*
X137040952Y-115210714D01*
X137088571Y-115163095D01*
X137136190Y-115067857D01*
X137136190Y-114686904D01*
X136612380Y-115591666D02*
X136612380Y-116258333D01*
X137612380Y-115829761D01*
X126182380Y-122515333D02*
X125706190Y-122182000D01*
X126182380Y-121943904D02*
X125182380Y-121943904D01*
X125182380Y-122324857D01*
X125230000Y-122420095D01*
X125277619Y-122467714D01*
X125372857Y-122515333D01*
X125515714Y-122515333D01*
X125610952Y-122467714D01*
X125658571Y-122420095D01*
X125706190Y-122324857D01*
X125706190Y-121943904D01*
X125182380Y-123372476D02*
X125182380Y-123182000D01*
X125230000Y-123086761D01*
X125277619Y-123039142D01*
X125420476Y-122943904D01*
X125610952Y-122896285D01*
X125991904Y-122896285D01*
X126087142Y-122943904D01*
X126134761Y-122991523D01*
X126182380Y-123086761D01*
X126182380Y-123277238D01*
X126134761Y-123372476D01*
X126087142Y-123420095D01*
X125991904Y-123467714D01*
X125753809Y-123467714D01*
X125658571Y-123420095D01*
X125610952Y-123372476D01*
X125563333Y-123277238D01*
X125563333Y-123086761D01*
X125610952Y-122991523D01*
X125658571Y-122943904D01*
X125753809Y-122896285D01*
X123642380Y-122515333D02*
X123166190Y-122182000D01*
X123642380Y-121943904D02*
X122642380Y-121943904D01*
X122642380Y-122324857D01*
X122690000Y-122420095D01*
X122737619Y-122467714D01*
X122832857Y-122515333D01*
X122975714Y-122515333D01*
X123070952Y-122467714D01*
X123118571Y-122420095D01*
X123166190Y-122324857D01*
X123166190Y-121943904D01*
X122642380Y-123420095D02*
X122642380Y-122943904D01*
X123118571Y-122896285D01*
X123070952Y-122943904D01*
X123023333Y-123039142D01*
X123023333Y-123277238D01*
X123070952Y-123372476D01*
X123118571Y-123420095D01*
X123213809Y-123467714D01*
X123451904Y-123467714D01*
X123547142Y-123420095D01*
X123594761Y-123372476D01*
X123642380Y-123277238D01*
X123642380Y-123039142D01*
X123594761Y-122943904D01*
X123547142Y-122896285D01*
X110942380Y-69665333D02*
X110466190Y-69332000D01*
X110942380Y-69093904D02*
X109942380Y-69093904D01*
X109942380Y-69474857D01*
X109990000Y-69570095D01*
X110037619Y-69617714D01*
X110132857Y-69665333D01*
X110275714Y-69665333D01*
X110370952Y-69617714D01*
X110418571Y-69570095D01*
X110466190Y-69474857D01*
X110466190Y-69093904D01*
X110275714Y-70522476D02*
X110942380Y-70522476D01*
X109894761Y-70284380D02*
X110609047Y-70046285D01*
X110609047Y-70665333D01*
X112974380Y-83671333D02*
X112498190Y-83338000D01*
X112974380Y-83099904D02*
X111974380Y-83099904D01*
X111974380Y-83480857D01*
X112022000Y-83576095D01*
X112069619Y-83623714D01*
X112164857Y-83671333D01*
X112307714Y-83671333D01*
X112402952Y-83623714D01*
X112450571Y-83576095D01*
X112498190Y-83480857D01*
X112498190Y-83099904D01*
X111974380Y-84004666D02*
X111974380Y-84623714D01*
X112355333Y-84290380D01*
X112355333Y-84433238D01*
X112402952Y-84528476D01*
X112450571Y-84576095D01*
X112545809Y-84623714D01*
X112783904Y-84623714D01*
X112879142Y-84576095D01*
X112926761Y-84528476D01*
X112974380Y-84433238D01*
X112974380Y-84147523D01*
X112926761Y-84052285D01*
X112879142Y-84004666D01*
X123769380Y-95827333D02*
X123293190Y-95494000D01*
X123769380Y-95255904D02*
X122769380Y-95255904D01*
X122769380Y-95636857D01*
X122817000Y-95732095D01*
X122864619Y-95779714D01*
X122959857Y-95827333D01*
X123102714Y-95827333D01*
X123197952Y-95779714D01*
X123245571Y-95732095D01*
X123293190Y-95636857D01*
X123293190Y-95255904D01*
X122864619Y-96208285D02*
X122817000Y-96255904D01*
X122769380Y-96351142D01*
X122769380Y-96589238D01*
X122817000Y-96684476D01*
X122864619Y-96732095D01*
X122959857Y-96779714D01*
X123055095Y-96779714D01*
X123197952Y-96732095D01*
X123769380Y-96160666D01*
X123769380Y-96779714D01*
X126309380Y-95827333D02*
X125833190Y-95494000D01*
X126309380Y-95255904D02*
X125309380Y-95255904D01*
X125309380Y-95636857D01*
X125357000Y-95732095D01*
X125404619Y-95779714D01*
X125499857Y-95827333D01*
X125642714Y-95827333D01*
X125737952Y-95779714D01*
X125785571Y-95732095D01*
X125833190Y-95636857D01*
X125833190Y-95255904D01*
X126309380Y-96779714D02*
X126309380Y-96208285D01*
X126309380Y-96494000D02*
X125309380Y-96494000D01*
X125452238Y-96398761D01*
X125547476Y-96303523D01*
X125595095Y-96208285D01*
X127968333Y-51522380D02*
X127968333Y-52236666D01*
X128015952Y-52379523D01*
X128111190Y-52474761D01*
X128254047Y-52522380D01*
X128349285Y-52522380D01*
X127444523Y-52522380D02*
X127254047Y-52522380D01*
X127158809Y-52474761D01*
X127111190Y-52427142D01*
X127015952Y-52284285D01*
X126968333Y-52093809D01*
X126968333Y-51712857D01*
X127015952Y-51617619D01*
X127063571Y-51570000D01*
X127158809Y-51522380D01*
X127349285Y-51522380D01*
X127444523Y-51570000D01*
X127492142Y-51617619D01*
X127539761Y-51712857D01*
X127539761Y-51950952D01*
X127492142Y-52046190D01*
X127444523Y-52093809D01*
X127349285Y-52141428D01*
X127158809Y-52141428D01*
X127063571Y-52093809D01*
X127015952Y-52046190D01*
X126968333Y-51950952D01*
X129230380Y-94765904D02*
X128230380Y-94765904D01*
X128230380Y-95004000D01*
X128278000Y-95146857D01*
X128373238Y-95242095D01*
X128468476Y-95289714D01*
X128658952Y-95337333D01*
X128801809Y-95337333D01*
X128992285Y-95289714D01*
X129087523Y-95242095D01*
X129182761Y-95146857D01*
X129230380Y-95004000D01*
X129230380Y-94765904D01*
X128563714Y-96194476D02*
X129230380Y-96194476D01*
X128182761Y-95956380D02*
X128897047Y-95718285D01*
X128897047Y-96337333D01*
X137612380Y-94257904D02*
X136612380Y-94257904D01*
X136612380Y-94496000D01*
X136660000Y-94638857D01*
X136755238Y-94734095D01*
X136850476Y-94781714D01*
X137040952Y-94829333D01*
X137183809Y-94829333D01*
X137374285Y-94781714D01*
X137469523Y-94734095D01*
X137564761Y-94638857D01*
X137612380Y-94496000D01*
X137612380Y-94257904D01*
X136612380Y-95162666D02*
X136612380Y-95781714D01*
X136993333Y-95448380D01*
X136993333Y-95591238D01*
X137040952Y-95686476D01*
X137088571Y-95734095D01*
X137183809Y-95781714D01*
X137421904Y-95781714D01*
X137517142Y-95734095D01*
X137564761Y-95686476D01*
X137612380Y-95591238D01*
X137612380Y-95305523D01*
X137564761Y-95210285D01*
X137517142Y-95162666D01*
X140660380Y-94257904D02*
X139660380Y-94257904D01*
X139660380Y-94496000D01*
X139708000Y-94638857D01*
X139803238Y-94734095D01*
X139898476Y-94781714D01*
X140088952Y-94829333D01*
X140231809Y-94829333D01*
X140422285Y-94781714D01*
X140517523Y-94734095D01*
X140612761Y-94638857D01*
X140660380Y-94496000D01*
X140660380Y-94257904D01*
X139755619Y-95210285D02*
X139708000Y-95257904D01*
X139660380Y-95353142D01*
X139660380Y-95591238D01*
X139708000Y-95686476D01*
X139755619Y-95734095D01*
X139850857Y-95781714D01*
X139946095Y-95781714D01*
X140088952Y-95734095D01*
X140660380Y-95162666D01*
X140660380Y-95781714D01*
X144820642Y-78550642D02*
X144868261Y-78503023D01*
X144915880Y-78360166D01*
X144915880Y-78264928D01*
X144868261Y-78122071D01*
X144773023Y-78026833D01*
X144677785Y-77979214D01*
X144487309Y-77931595D01*
X144344452Y-77931595D01*
X144153976Y-77979214D01*
X144058738Y-78026833D01*
X143963500Y-78122071D01*
X143915880Y-78264928D01*
X143915880Y-78360166D01*
X143963500Y-78503023D01*
X144011119Y-78550642D01*
X144915880Y-79503023D02*
X144915880Y-78931595D01*
X144915880Y-79217309D02*
X143915880Y-79217309D01*
X144058738Y-79122071D01*
X144153976Y-79026833D01*
X144201595Y-78931595D01*
X144915880Y-79979214D02*
X144915880Y-80169690D01*
X144868261Y-80264928D01*
X144820642Y-80312547D01*
X144677785Y-80407785D01*
X144487309Y-80455404D01*
X144106357Y-80455404D01*
X144011119Y-80407785D01*
X143963500Y-80360166D01*
X143915880Y-80264928D01*
X143915880Y-80074452D01*
X143963500Y-79979214D01*
X144011119Y-79931595D01*
X144106357Y-79883976D01*
X144344452Y-79883976D01*
X144439690Y-79931595D01*
X144487309Y-79979214D01*
X144534928Y-80074452D01*
X144534928Y-80264928D01*
X144487309Y-80360166D01*
X144439690Y-80407785D01*
X144344452Y-80455404D01*
X144503142Y-85599142D02*
X144550761Y-85551523D01*
X144598380Y-85408666D01*
X144598380Y-85313428D01*
X144550761Y-85170571D01*
X144455523Y-85075333D01*
X144360285Y-85027714D01*
X144169809Y-84980095D01*
X144026952Y-84980095D01*
X143836476Y-85027714D01*
X143741238Y-85075333D01*
X143646000Y-85170571D01*
X143598380Y-85313428D01*
X143598380Y-85408666D01*
X143646000Y-85551523D01*
X143693619Y-85599142D01*
X144598380Y-86551523D02*
X144598380Y-85980095D01*
X144598380Y-86265809D02*
X143598380Y-86265809D01*
X143741238Y-86170571D01*
X143836476Y-86075333D01*
X143884095Y-85980095D01*
X144026952Y-87122952D02*
X143979333Y-87027714D01*
X143931714Y-86980095D01*
X143836476Y-86932476D01*
X143788857Y-86932476D01*
X143693619Y-86980095D01*
X143646000Y-87027714D01*
X143598380Y-87122952D01*
X143598380Y-87313428D01*
X143646000Y-87408666D01*
X143693619Y-87456285D01*
X143788857Y-87503904D01*
X143836476Y-87503904D01*
X143931714Y-87456285D01*
X143979333Y-87408666D01*
X144026952Y-87313428D01*
X144026952Y-87122952D01*
X144074571Y-87027714D01*
X144122190Y-86980095D01*
X144217428Y-86932476D01*
X144407904Y-86932476D01*
X144503142Y-86980095D01*
X144550761Y-87027714D01*
X144598380Y-87122952D01*
X144598380Y-87313428D01*
X144550761Y-87408666D01*
X144503142Y-87456285D01*
X144407904Y-87503904D01*
X144217428Y-87503904D01*
X144122190Y-87456285D01*
X144074571Y-87408666D01*
X144026952Y-87313428D01*
X122785142Y-91559142D02*
X122832761Y-91511523D01*
X122880380Y-91368666D01*
X122880380Y-91273428D01*
X122832761Y-91130571D01*
X122737523Y-91035333D01*
X122642285Y-90987714D01*
X122451809Y-90940095D01*
X122308952Y-90940095D01*
X122118476Y-90987714D01*
X122023238Y-91035333D01*
X121928000Y-91130571D01*
X121880380Y-91273428D01*
X121880380Y-91368666D01*
X121928000Y-91511523D01*
X121975619Y-91559142D01*
X122880380Y-92511523D02*
X122880380Y-91940095D01*
X122880380Y-92225809D02*
X121880380Y-92225809D01*
X122023238Y-92130571D01*
X122118476Y-92035333D01*
X122166095Y-91940095D01*
X122213714Y-93368666D02*
X122880380Y-93368666D01*
X121832761Y-93130571D02*
X122547047Y-92892476D01*
X122547047Y-93511523D01*
X125071142Y-91559142D02*
X125118761Y-91511523D01*
X125166380Y-91368666D01*
X125166380Y-91273428D01*
X125118761Y-91130571D01*
X125023523Y-91035333D01*
X124928285Y-90987714D01*
X124737809Y-90940095D01*
X124594952Y-90940095D01*
X124404476Y-90987714D01*
X124309238Y-91035333D01*
X124214000Y-91130571D01*
X124166380Y-91273428D01*
X124166380Y-91368666D01*
X124214000Y-91511523D01*
X124261619Y-91559142D01*
X125166380Y-92511523D02*
X125166380Y-91940095D01*
X125166380Y-92225809D02*
X124166380Y-92225809D01*
X124309238Y-92130571D01*
X124404476Y-92035333D01*
X124452095Y-91940095D01*
X124166380Y-92844857D02*
X124166380Y-93463904D01*
X124547333Y-93130571D01*
X124547333Y-93273428D01*
X124594952Y-93368666D01*
X124642571Y-93416285D01*
X124737809Y-93463904D01*
X124975904Y-93463904D01*
X125071142Y-93416285D01*
X125118761Y-93368666D01*
X125166380Y-93273428D01*
X125166380Y-92987714D01*
X125118761Y-92892476D01*
X125071142Y-92844857D01*
X127357142Y-91559142D02*
X127404761Y-91511523D01*
X127452380Y-91368666D01*
X127452380Y-91273428D01*
X127404761Y-91130571D01*
X127309523Y-91035333D01*
X127214285Y-90987714D01*
X127023809Y-90940095D01*
X126880952Y-90940095D01*
X126690476Y-90987714D01*
X126595238Y-91035333D01*
X126500000Y-91130571D01*
X126452380Y-91273428D01*
X126452380Y-91368666D01*
X126500000Y-91511523D01*
X126547619Y-91559142D01*
X127452380Y-92511523D02*
X127452380Y-91940095D01*
X127452380Y-92225809D02*
X126452380Y-92225809D01*
X126595238Y-92130571D01*
X126690476Y-92035333D01*
X126738095Y-91940095D01*
X126547619Y-92892476D02*
X126500000Y-92940095D01*
X126452380Y-93035333D01*
X126452380Y-93273428D01*
X126500000Y-93368666D01*
X126547619Y-93416285D01*
X126642857Y-93463904D01*
X126738095Y-93463904D01*
X126880952Y-93416285D01*
X127452380Y-92844857D01*
X127452380Y-93463904D01*
X129643142Y-91559142D02*
X129690761Y-91511523D01*
X129738380Y-91368666D01*
X129738380Y-91273428D01*
X129690761Y-91130571D01*
X129595523Y-91035333D01*
X129500285Y-90987714D01*
X129309809Y-90940095D01*
X129166952Y-90940095D01*
X128976476Y-90987714D01*
X128881238Y-91035333D01*
X128786000Y-91130571D01*
X128738380Y-91273428D01*
X128738380Y-91368666D01*
X128786000Y-91511523D01*
X128833619Y-91559142D01*
X129738380Y-92511523D02*
X129738380Y-91940095D01*
X129738380Y-92225809D02*
X128738380Y-92225809D01*
X128881238Y-92130571D01*
X128976476Y-92035333D01*
X129024095Y-91940095D01*
X129738380Y-93463904D02*
X129738380Y-92892476D01*
X129738380Y-93178190D02*
X128738380Y-93178190D01*
X128881238Y-93082952D01*
X128976476Y-92987714D01*
X129024095Y-92892476D01*
X131929142Y-91559142D02*
X131976761Y-91511523D01*
X132024380Y-91368666D01*
X132024380Y-91273428D01*
X131976761Y-91130571D01*
X131881523Y-91035333D01*
X131786285Y-90987714D01*
X131595809Y-90940095D01*
X131452952Y-90940095D01*
X131262476Y-90987714D01*
X131167238Y-91035333D01*
X131072000Y-91130571D01*
X131024380Y-91273428D01*
X131024380Y-91368666D01*
X131072000Y-91511523D01*
X131119619Y-91559142D01*
X132024380Y-92511523D02*
X132024380Y-91940095D01*
X132024380Y-92225809D02*
X131024380Y-92225809D01*
X131167238Y-92130571D01*
X131262476Y-92035333D01*
X131310095Y-91940095D01*
X131024380Y-93130571D02*
X131024380Y-93225809D01*
X131072000Y-93321047D01*
X131119619Y-93368666D01*
X131214857Y-93416285D01*
X131405333Y-93463904D01*
X131643428Y-93463904D01*
X131833904Y-93416285D01*
X131929142Y-93368666D01*
X131976761Y-93321047D01*
X132024380Y-93225809D01*
X132024380Y-93130571D01*
X131976761Y-93035333D01*
X131929142Y-92987714D01*
X131833904Y-92940095D01*
X131643428Y-92892476D01*
X131405333Y-92892476D01*
X131214857Y-92940095D01*
X131119619Y-92987714D01*
X131072000Y-93035333D01*
X131024380Y-93130571D01*
X134215142Y-91527333D02*
X134262761Y-91479714D01*
X134310380Y-91336857D01*
X134310380Y-91241619D01*
X134262761Y-91098761D01*
X134167523Y-91003523D01*
X134072285Y-90955904D01*
X133881809Y-90908285D01*
X133738952Y-90908285D01*
X133548476Y-90955904D01*
X133453238Y-91003523D01*
X133358000Y-91098761D01*
X133310380Y-91241619D01*
X133310380Y-91336857D01*
X133358000Y-91479714D01*
X133405619Y-91527333D01*
X134310380Y-92003523D02*
X134310380Y-92194000D01*
X134262761Y-92289238D01*
X134215142Y-92336857D01*
X134072285Y-92432095D01*
X133881809Y-92479714D01*
X133500857Y-92479714D01*
X133405619Y-92432095D01*
X133358000Y-92384476D01*
X133310380Y-92289238D01*
X133310380Y-92098761D01*
X133358000Y-92003523D01*
X133405619Y-91955904D01*
X133500857Y-91908285D01*
X133738952Y-91908285D01*
X133834190Y-91955904D01*
X133881809Y-92003523D01*
X133929428Y-92098761D01*
X133929428Y-92289238D01*
X133881809Y-92384476D01*
X133834190Y-92432095D01*
X133738952Y-92479714D01*
X136501142Y-91527333D02*
X136548761Y-91479714D01*
X136596380Y-91336857D01*
X136596380Y-91241619D01*
X136548761Y-91098761D01*
X136453523Y-91003523D01*
X136358285Y-90955904D01*
X136167809Y-90908285D01*
X136024952Y-90908285D01*
X135834476Y-90955904D01*
X135739238Y-91003523D01*
X135644000Y-91098761D01*
X135596380Y-91241619D01*
X135596380Y-91336857D01*
X135644000Y-91479714D01*
X135691619Y-91527333D01*
X136024952Y-92098761D02*
X135977333Y-92003523D01*
X135929714Y-91955904D01*
X135834476Y-91908285D01*
X135786857Y-91908285D01*
X135691619Y-91955904D01*
X135644000Y-92003523D01*
X135596380Y-92098761D01*
X135596380Y-92289238D01*
X135644000Y-92384476D01*
X135691619Y-92432095D01*
X135786857Y-92479714D01*
X135834476Y-92479714D01*
X135929714Y-92432095D01*
X135977333Y-92384476D01*
X136024952Y-92289238D01*
X136024952Y-92098761D01*
X136072571Y-92003523D01*
X136120190Y-91955904D01*
X136215428Y-91908285D01*
X136405904Y-91908285D01*
X136501142Y-91955904D01*
X136548761Y-92003523D01*
X136596380Y-92098761D01*
X136596380Y-92289238D01*
X136548761Y-92384476D01*
X136501142Y-92432095D01*
X136405904Y-92479714D01*
X136215428Y-92479714D01*
X136120190Y-92432095D01*
X136072571Y-92384476D01*
X136024952Y-92289238D01*
X147677142Y-115149333D02*
X147724761Y-115101714D01*
X147772380Y-114958857D01*
X147772380Y-114863619D01*
X147724761Y-114720761D01*
X147629523Y-114625523D01*
X147534285Y-114577904D01*
X147343809Y-114530285D01*
X147200952Y-114530285D01*
X147010476Y-114577904D01*
X146915238Y-114625523D01*
X146820000Y-114720761D01*
X146772380Y-114863619D01*
X146772380Y-114958857D01*
X146820000Y-115101714D01*
X146867619Y-115149333D01*
X147105714Y-116006476D02*
X147772380Y-116006476D01*
X146724761Y-115768380D02*
X147439047Y-115530285D01*
X147439047Y-116149333D01*
X146661142Y-95845333D02*
X146708761Y-95797714D01*
X146756380Y-95654857D01*
X146756380Y-95559619D01*
X146708761Y-95416761D01*
X146613523Y-95321523D01*
X146518285Y-95273904D01*
X146327809Y-95226285D01*
X146184952Y-95226285D01*
X145994476Y-95273904D01*
X145899238Y-95321523D01*
X145804000Y-95416761D01*
X145756380Y-95559619D01*
X145756380Y-95654857D01*
X145804000Y-95797714D01*
X145851619Y-95845333D01*
X145756380Y-96178666D02*
X145756380Y-96797714D01*
X146137333Y-96464380D01*
X146137333Y-96607238D01*
X146184952Y-96702476D01*
X146232571Y-96750095D01*
X146327809Y-96797714D01*
X146565904Y-96797714D01*
X146661142Y-96750095D01*
X146708761Y-96702476D01*
X146756380Y-96607238D01*
X146756380Y-96321523D01*
X146708761Y-96226285D01*
X146661142Y-96178666D01*
X123547142Y-129373333D02*
X123594761Y-129325714D01*
X123642380Y-129182857D01*
X123642380Y-129087619D01*
X123594761Y-128944761D01*
X123499523Y-128849523D01*
X123404285Y-128801904D01*
X123213809Y-128754285D01*
X123070952Y-128754285D01*
X122880476Y-128801904D01*
X122785238Y-128849523D01*
X122690000Y-128944761D01*
X122642380Y-129087619D01*
X122642380Y-129182857D01*
X122690000Y-129325714D01*
X122737619Y-129373333D01*
X122737619Y-129754285D02*
X122690000Y-129801904D01*
X122642380Y-129897142D01*
X122642380Y-130135238D01*
X122690000Y-130230476D01*
X122737619Y-130278095D01*
X122832857Y-130325714D01*
X122928095Y-130325714D01*
X123070952Y-130278095D01*
X123642380Y-129706666D01*
X123642380Y-130325714D01*
M02*
