G04 #@! TF.GenerationSoftware,KiCad,Pcbnew,5.1.6-c6e7f7d~87~ubuntu18.04.1*
G04 #@! TF.CreationDate,2020-11-08T18:53:39-05:00*
G04 #@! TF.ProjectId,modulation_source,6d6f6475-6c61-4746-996f-6e5f736f7572,0*
G04 #@! TF.SameCoordinates,Original*
G04 #@! TF.FileFunction,Soldermask,Top*
G04 #@! TF.FilePolarity,Negative*
%FSLAX46Y46*%
G04 Gerber Fmt 4.6, Leading zero omitted, Abs format (unit mm)*
G04 Created by KiCad (PCBNEW 5.1.6-c6e7f7d~87~ubuntu18.04.1) date 2020-11-08 18:53:39*
%MOMM*%
%LPD*%
G01*
G04 APERTURE LIST*
%ADD10R,1.600000X1.600000*%
%ADD11C,1.600000*%
%ADD12C,1.700000*%
%ADD13C,1.540000*%
%ADD14O,2.820000X3.340000*%
%ADD15C,1.900000*%
%ADD16R,1.900000X1.900000*%
%ADD17O,1.800000X1.800000*%
%ADD18R,1.800000X1.800000*%
G04 APERTURE END LIST*
D10*
X142113000Y-68834000D03*
D11*
X142113000Y-73914000D03*
X142113000Y-71374000D03*
D12*
X132000000Y-112395000D03*
X127000000Y-112395000D03*
D13*
X125730000Y-76454000D03*
X128270000Y-76454000D03*
X130810000Y-76454000D03*
D14*
X136170000Y-58540000D03*
X145770000Y-58540000D03*
D15*
X143470000Y-66040000D03*
X140970000Y-66040000D03*
D16*
X138470000Y-66040000D03*
D13*
X105918000Y-106680000D03*
X105918000Y-109220000D03*
X105918000Y-111760000D03*
X105918000Y-95250000D03*
X105918000Y-97790000D03*
X105918000Y-100330000D03*
D14*
X105650000Y-58540000D03*
X115250000Y-58540000D03*
D15*
X112950000Y-66040000D03*
X110450000Y-66040000D03*
D16*
X107950000Y-66040000D03*
D14*
X105690000Y-83940000D03*
X115290000Y-83940000D03*
D15*
X112990000Y-91440000D03*
X110490000Y-91440000D03*
D16*
X107990000Y-91440000D03*
D17*
X126365000Y-64770000D03*
X128905000Y-64770000D03*
X126365000Y-62230000D03*
X128905000Y-62230000D03*
X126365000Y-59690000D03*
X128905000Y-59690000D03*
X126365000Y-57150000D03*
X128905000Y-57150000D03*
X126365000Y-54610000D03*
D18*
X128905000Y-54610000D03*
D15*
X136050000Y-144780000D03*
X147450000Y-144780000D03*
X144350000Y-144780000D03*
X120810000Y-144780000D03*
X132210000Y-144780000D03*
X129110000Y-144780000D03*
X136050000Y-132715000D03*
X147450000Y-132715000D03*
X144350000Y-132715000D03*
X136050000Y-120650000D03*
X147450000Y-120650000D03*
X144350000Y-120650000D03*
X120810000Y-120650000D03*
X132210000Y-120650000D03*
X129110000Y-120650000D03*
X120810000Y-132715000D03*
X132210000Y-132715000D03*
X129110000Y-132715000D03*
X105570000Y-132715000D03*
X116970000Y-132715000D03*
X113870000Y-132715000D03*
X105570000Y-120650000D03*
X116970000Y-120650000D03*
X113870000Y-120650000D03*
X120015000Y-58420000D03*
D16*
X122555000Y-58420000D03*
G36*
G01*
X110265738Y-106217560D02*
X111222262Y-106217560D01*
G75*
G02*
X111494000Y-106489298I0J-271738D01*
G01*
X111494000Y-107195822D01*
G75*
G02*
X111222262Y-107467560I-271738J0D01*
G01*
X110265738Y-107467560D01*
G75*
G02*
X109994000Y-107195822I0J271738D01*
G01*
X109994000Y-106489298D01*
G75*
G02*
X110265738Y-106217560I271738J0D01*
G01*
G37*
G36*
G01*
X110265738Y-104167560D02*
X111222262Y-104167560D01*
G75*
G02*
X111494000Y-104439298I0J-271738D01*
G01*
X111494000Y-105145822D01*
G75*
G02*
X111222262Y-105417560I-271738J0D01*
G01*
X110265738Y-105417560D01*
G75*
G02*
X109994000Y-105145822I0J271738D01*
G01*
X109994000Y-104439298D01*
G75*
G02*
X110265738Y-104167560I271738J0D01*
G01*
G37*
G36*
G01*
X115401618Y-110766920D02*
X116358142Y-110766920D01*
G75*
G02*
X116629880Y-111038658I0J-271738D01*
G01*
X116629880Y-111745182D01*
G75*
G02*
X116358142Y-112016920I-271738J0D01*
G01*
X115401618Y-112016920D01*
G75*
G02*
X115129880Y-111745182I0J271738D01*
G01*
X115129880Y-111038658D01*
G75*
G02*
X115401618Y-110766920I271738J0D01*
G01*
G37*
G36*
G01*
X115401618Y-108716920D02*
X116358142Y-108716920D01*
G75*
G02*
X116629880Y-108988658I0J-271738D01*
G01*
X116629880Y-109695182D01*
G75*
G02*
X116358142Y-109966920I-271738J0D01*
G01*
X115401618Y-109966920D01*
G75*
G02*
X115129880Y-109695182I0J271738D01*
G01*
X115129880Y-108988658D01*
G75*
G02*
X115401618Y-108716920I271738J0D01*
G01*
G37*
G36*
G01*
X120623858Y-102396240D02*
X121580382Y-102396240D01*
G75*
G02*
X121852120Y-102667978I0J-271738D01*
G01*
X121852120Y-103374502D01*
G75*
G02*
X121580382Y-103646240I-271738J0D01*
G01*
X120623858Y-103646240D01*
G75*
G02*
X120352120Y-103374502I0J271738D01*
G01*
X120352120Y-102667978D01*
G75*
G02*
X120623858Y-102396240I271738J0D01*
G01*
G37*
G36*
G01*
X120623858Y-100346240D02*
X121580382Y-100346240D01*
G75*
G02*
X121852120Y-100617978I0J-271738D01*
G01*
X121852120Y-101324502D01*
G75*
G02*
X121580382Y-101596240I-271738J0D01*
G01*
X120623858Y-101596240D01*
G75*
G02*
X120352120Y-101324502I0J271738D01*
G01*
X120352120Y-100617978D01*
G75*
G02*
X120623858Y-100346240I271738J0D01*
G01*
G37*
G36*
G01*
X120489238Y-107952600D02*
X121445762Y-107952600D01*
G75*
G02*
X121717500Y-108224338I0J-271738D01*
G01*
X121717500Y-108930862D01*
G75*
G02*
X121445762Y-109202600I-271738J0D01*
G01*
X120489238Y-109202600D01*
G75*
G02*
X120217500Y-108930862I0J271738D01*
G01*
X120217500Y-108224338D01*
G75*
G02*
X120489238Y-107952600I271738J0D01*
G01*
G37*
G36*
G01*
X120489238Y-105902600D02*
X121445762Y-105902600D01*
G75*
G02*
X121717500Y-106174338I0J-271738D01*
G01*
X121717500Y-106880862D01*
G75*
G02*
X121445762Y-107152600I-271738J0D01*
G01*
X120489238Y-107152600D01*
G75*
G02*
X120217500Y-106880862I0J271738D01*
G01*
X120217500Y-106174338D01*
G75*
G02*
X120489238Y-105902600I271738J0D01*
G01*
G37*
G36*
G01*
X132897138Y-104073800D02*
X133853662Y-104073800D01*
G75*
G02*
X134125400Y-104345538I0J-271738D01*
G01*
X134125400Y-105052062D01*
G75*
G02*
X133853662Y-105323800I-271738J0D01*
G01*
X132897138Y-105323800D01*
G75*
G02*
X132625400Y-105052062I0J271738D01*
G01*
X132625400Y-104345538D01*
G75*
G02*
X132897138Y-104073800I271738J0D01*
G01*
G37*
G36*
G01*
X132897138Y-102023800D02*
X133853662Y-102023800D01*
G75*
G02*
X134125400Y-102295538I0J-271738D01*
G01*
X134125400Y-103002062D01*
G75*
G02*
X133853662Y-103273800I-271738J0D01*
G01*
X132897138Y-103273800D01*
G75*
G02*
X132625400Y-103002062I0J271738D01*
G01*
X132625400Y-102295538D01*
G75*
G02*
X132897138Y-102023800I271738J0D01*
G01*
G37*
G36*
G01*
X132897138Y-108061600D02*
X133853662Y-108061600D01*
G75*
G02*
X134125400Y-108333338I0J-271738D01*
G01*
X134125400Y-109039862D01*
G75*
G02*
X133853662Y-109311600I-271738J0D01*
G01*
X132897138Y-109311600D01*
G75*
G02*
X132625400Y-109039862I0J271738D01*
G01*
X132625400Y-108333338D01*
G75*
G02*
X132897138Y-108061600I271738J0D01*
G01*
G37*
G36*
G01*
X132897138Y-106011600D02*
X133853662Y-106011600D01*
G75*
G02*
X134125400Y-106283338I0J-271738D01*
G01*
X134125400Y-106989862D01*
G75*
G02*
X133853662Y-107261600I-271738J0D01*
G01*
X132897138Y-107261600D01*
G75*
G02*
X132625400Y-106989862I0J271738D01*
G01*
X132625400Y-106283338D01*
G75*
G02*
X132897138Y-106011600I271738J0D01*
G01*
G37*
G36*
G01*
X147856000Y-103411762D02*
X147856000Y-102455238D01*
G75*
G02*
X148127738Y-102183500I271738J0D01*
G01*
X148834262Y-102183500D01*
G75*
G02*
X149106000Y-102455238I0J-271738D01*
G01*
X149106000Y-103411762D01*
G75*
G02*
X148834262Y-103683500I-271738J0D01*
G01*
X148127738Y-103683500D01*
G75*
G02*
X147856000Y-103411762I0J271738D01*
G01*
G37*
G36*
G01*
X145806000Y-103411762D02*
X145806000Y-102455238D01*
G75*
G02*
X146077738Y-102183500I271738J0D01*
G01*
X146784262Y-102183500D01*
G75*
G02*
X147056000Y-102455238I0J-271738D01*
G01*
X147056000Y-103411762D01*
G75*
G02*
X146784262Y-103683500I-271738J0D01*
G01*
X146077738Y-103683500D01*
G75*
G02*
X145806000Y-103411762I0J271738D01*
G01*
G37*
G36*
G01*
X147047000Y-97375238D02*
X147047000Y-98331762D01*
G75*
G02*
X146775262Y-98603500I-271738J0D01*
G01*
X146068738Y-98603500D01*
G75*
G02*
X145797000Y-98331762I0J271738D01*
G01*
X145797000Y-97375238D01*
G75*
G02*
X146068738Y-97103500I271738J0D01*
G01*
X146775262Y-97103500D01*
G75*
G02*
X147047000Y-97375238I0J-271738D01*
G01*
G37*
G36*
G01*
X149097000Y-97375238D02*
X149097000Y-98331762D01*
G75*
G02*
X148825262Y-98603500I-271738J0D01*
G01*
X148118738Y-98603500D01*
G75*
G02*
X147847000Y-98331762I0J271738D01*
G01*
X147847000Y-97375238D01*
G75*
G02*
X148118738Y-97103500I271738J0D01*
G01*
X148825262Y-97103500D01*
G75*
G02*
X149097000Y-97375238I0J-271738D01*
G01*
G37*
M02*
