M48
; DRILL file {KiCad 5.1.6-c6e7f7d~87~ubuntu18.04.1} date Sun Nov  8 18:53:51 2020
; FORMAT={-:-/ absolute / inch / decimal}
; #@! TF.CreationDate,2020-11-08T18:53:51-05:00
; #@! TF.GenerationSoftware,Kicad,Pcbnew,5.1.6-c6e7f7d~87~ubuntu18.04.1
; #@! TF.FileFunction,Plated,1,2,PTH
FMAT,2
INCH
T1C0.0157
T2C0.0315
T3C0.0354
T4C0.0394
T5C0.0433
T6C0.0630
%
G90
G05
T1
X4.105Y-3.152
X4.114Y-4.669
X4.293Y-2.968
X4.4445Y-4.2355
X4.5Y-3.84
X4.5Y-3.91
X4.502Y-4.09
X4.58Y-3.98
X4.5882Y-3.9182
X4.6Y-5.1
X4.625Y-4.375
X4.625Y-4.55
X4.6373Y-4.1964
X4.6416Y-4.3139
X4.7Y-4.88
X4.71Y-4.0
X4.775Y-3.675
X4.78Y-3.86
X4.7898Y-4.1236
X4.8164Y-4.1964
X4.82Y-4.43
X4.82Y-4.54
X4.88Y-4.07
X4.89Y-4.66
X4.9075Y-3.985
X4.95Y-3.81
X4.95Y-4.975
X4.9635Y-4.325
X4.976Y-4.535
X5.02Y-2.72
X5.056Y-4.332
X5.0698Y-5.0915
X5.085Y-4.975
X5.1Y-3.75
X5.15Y-3.99
X5.16Y-5.06
X5.235Y-3.861
X5.275Y-4.925
X5.3054Y-4.1236
X5.3093Y-4.1983
X5.35Y-3.725
X5.353Y-4.327
X5.36Y-3.58
X5.41Y-3.21
X5.41Y-3.5
X5.42Y-3.41
X5.45Y-5.55
X5.46Y-4.574
X5.4734Y-4.1236
X5.48Y-4.32
X5.5Y-3.725
X5.51Y-3.49
X5.55Y-4.9
X5.57Y-5.48
X5.6Y-3.345
X5.6Y-4.3
X5.6Y-4.575
X5.6425Y-3.998
X5.7Y-4.6
X5.7185Y-4.43
X5.745Y-2.69
X5.75Y-3.0
X5.75Y-3.515
X5.755Y-3.755
X5.815Y-4.005
X5.86Y-3.8
T2
X5.77Y-3.29
X5.86Y-3.29
X5.595Y-2.71
X5.595Y-2.81
X5.595Y-2.91
X4.17Y-4.2
X4.17Y-4.3
X4.17Y-4.4
X4.95Y-3.01
X5.05Y-3.01
X5.15Y-3.01
X4.17Y-3.75
X4.17Y-3.85
X4.17Y-3.95
X5.0Y-4.425
X5.1969Y-4.425
T3
X4.725Y-2.3
X4.825Y-2.3
T4
X4.975Y-2.15
X4.975Y-2.25
X4.975Y-2.35
X4.975Y-2.45
X4.975Y-2.55
X5.075Y-2.15
X5.075Y-2.25
X5.075Y-2.35
X5.075Y-2.45
X5.075Y-2.55
X4.25Y-2.6
X4.3484Y-2.6
X4.4469Y-2.6
X5.4516Y-2.6
X5.55Y-2.6
X5.6484Y-2.6
X4.2516Y-3.6
X4.35Y-3.6
X4.4484Y-3.6
T6
X4.1563Y-5.225
X4.4831Y-5.225
X4.6051Y-5.225
X5.3563Y-4.75
X5.6831Y-4.75
X5.8051Y-4.75
X4.7563Y-5.225
X5.0831Y-5.225
X5.2051Y-5.225
X5.3563Y-5.225
X5.6831Y-5.225
X5.8051Y-5.225
X5.3563Y-5.7
X5.6831Y-5.7
X5.8051Y-5.7
X4.1563Y-4.75
X4.4831Y-4.75
X4.6051Y-4.75
X4.7563Y-4.75
X5.0831Y-4.75
X5.2051Y-4.75
X4.7563Y-5.7
X5.0831Y-5.7
X5.2051Y-5.7
T5
G00X4.1594Y-2.3185
M15
G01X4.1594Y-2.2909
M16
G05
G00X4.5374Y-2.3185
M15
G01X4.5374Y-2.2909
M16
G05
G00X5.361Y-2.3185
M15
G01X5.361Y-2.2909
M16
G05
G00X5.739Y-2.3185
M15
G01X5.739Y-2.2909
M16
G05
G00X4.161Y-3.3185
M15
G01X4.161Y-3.2909
M16
G05
G00X4.539Y-3.3185
M15
G01X4.539Y-3.2909
M16
G05
T0
M30
