%TF.GenerationSoftware,KiCad,Pcbnew,5.1.12-84ad8e8a86~92~ubuntu20.04.1*%
%TF.CreationDate,2021-12-18T13:57:56-05:00*%
%TF.ProjectId,front_panel,66726f6e-745f-4706-916e-656c2e6b6963,0*%
%TF.SameCoordinates,Original*%
%TF.FileFunction,Legend,Top*%
%TF.FilePolarity,Positive*%
%FSLAX46Y46*%
G04 Gerber Fmt 4.6, Leading zero omitted, Abs format (unit mm)*
G04 Created by KiCad (PCBNEW 5.1.12-84ad8e8a86~92~ubuntu20.04.1) date 2021-12-18 13:57:56*
%MOMM*%
%LPD*%
G01*
G04 APERTURE LIST*
%ADD10C,0.300000*%
G04 APERTURE END LIST*
D10*
X19566190Y-91956904D02*
X19804285Y-92075952D01*
X20280476Y-92075952D01*
X20518571Y-91956904D01*
X20637619Y-91718809D01*
X20637619Y-91599761D01*
X20518571Y-91361666D01*
X20280476Y-91242619D01*
X19923333Y-91242619D01*
X19685238Y-91123571D01*
X19566190Y-90885476D01*
X19566190Y-90766428D01*
X19685238Y-90528333D01*
X19923333Y-90409285D01*
X20280476Y-90409285D01*
X20518571Y-90528333D01*
X22780476Y-90409285D02*
X22780476Y-92909285D01*
X22780476Y-91956904D02*
X22542380Y-92075952D01*
X22066190Y-92075952D01*
X21828095Y-91956904D01*
X21709047Y-91837857D01*
X21590000Y-91599761D01*
X21590000Y-90885476D01*
X21709047Y-90647380D01*
X21828095Y-90528333D01*
X22066190Y-90409285D01*
X22542380Y-90409285D01*
X22780476Y-90528333D01*
X25042380Y-90409285D02*
X25042380Y-92075952D01*
X23970952Y-90409285D02*
X23970952Y-91718809D01*
X24090000Y-91956904D01*
X24328095Y-92075952D01*
X24685238Y-92075952D01*
X24923333Y-91956904D01*
X25042380Y-91837857D01*
X27304285Y-92075952D02*
X27304285Y-90766428D01*
X27185238Y-90528333D01*
X26947142Y-90409285D01*
X26470952Y-90409285D01*
X26232857Y-90528333D01*
X27304285Y-91956904D02*
X27066190Y-92075952D01*
X26470952Y-92075952D01*
X26232857Y-91956904D01*
X26113809Y-91718809D01*
X26113809Y-91480714D01*
X26232857Y-91242619D01*
X26470952Y-91123571D01*
X27066190Y-91123571D01*
X27304285Y-91004523D01*
X28494761Y-92075952D02*
X28494761Y-90409285D01*
X28494761Y-90885476D02*
X28613809Y-90647380D01*
X28732857Y-90528333D01*
X28970952Y-90409285D01*
X29209047Y-90409285D01*
X30994761Y-91956904D02*
X30756666Y-92075952D01*
X30280476Y-92075952D01*
X30042380Y-91956904D01*
X29923333Y-91718809D01*
X29923333Y-90766428D01*
X30042380Y-90528333D01*
X30280476Y-90409285D01*
X30756666Y-90409285D01*
X30994761Y-90528333D01*
X31113809Y-90766428D01*
X31113809Y-91004523D01*
X29923333Y-91242619D01*
X21650000Y-103881904D02*
X21411904Y-104000952D01*
X20935714Y-104000952D01*
X20697619Y-103881904D01*
X20578571Y-103762857D01*
X20459523Y-103524761D01*
X20459523Y-102810476D01*
X20578571Y-102572380D01*
X20697619Y-102453333D01*
X20935714Y-102334285D01*
X21411904Y-102334285D01*
X21650000Y-102453333D01*
X23078571Y-104000952D02*
X22840476Y-103881904D01*
X22721428Y-103643809D01*
X22721428Y-101500952D01*
X24030952Y-104000952D02*
X24030952Y-101500952D01*
X24269047Y-103048571D02*
X24983333Y-104000952D01*
X24983333Y-102334285D02*
X24030952Y-103286666D01*
X27959523Y-104000952D02*
X27959523Y-102334285D01*
X27959523Y-101500952D02*
X27840476Y-101620000D01*
X27959523Y-101739047D01*
X28078571Y-101620000D01*
X27959523Y-101500952D01*
X27959523Y-101739047D01*
X29150000Y-102334285D02*
X29150000Y-104000952D01*
X29150000Y-102572380D02*
X29269047Y-102453333D01*
X29507142Y-102334285D01*
X29864285Y-102334285D01*
X30102380Y-102453333D01*
X30221428Y-102691428D01*
X30221428Y-104000952D01*
X4964285Y-10247142D02*
X4964285Y-7247142D01*
X5964285Y-9390000D01*
X6964285Y-7247142D01*
X6964285Y-10247142D01*
X8821428Y-10247142D02*
X8535714Y-10104285D01*
X8392857Y-9961428D01*
X8249999Y-9675714D01*
X8249999Y-8818571D01*
X8392857Y-8532857D01*
X8535714Y-8390000D01*
X8821428Y-8247142D01*
X9249999Y-8247142D01*
X9535714Y-8390000D01*
X9678571Y-8532857D01*
X9821428Y-8818571D01*
X9821428Y-9675714D01*
X9678571Y-9961428D01*
X9535714Y-10104285D01*
X9249999Y-10247142D01*
X8821428Y-10247142D01*
X12392857Y-10247142D02*
X12392857Y-7247142D01*
X12392857Y-10104285D02*
X12107142Y-10247142D01*
X11535714Y-10247142D01*
X11249999Y-10104285D01*
X11107142Y-9961428D01*
X10964285Y-9675714D01*
X10964285Y-8818571D01*
X11107142Y-8532857D01*
X11249999Y-8390000D01*
X11535714Y-8247142D01*
X12107142Y-8247142D01*
X12392857Y-8390000D01*
X15107142Y-8247142D02*
X15107142Y-10247142D01*
X13821428Y-8247142D02*
X13821428Y-9818571D01*
X13964285Y-10104285D01*
X14249999Y-10247142D01*
X14678571Y-10247142D01*
X14964285Y-10104285D01*
X15107142Y-9961428D01*
X16964285Y-10247142D02*
X16678571Y-10104285D01*
X16535714Y-9818571D01*
X16535714Y-7247142D01*
X19392857Y-10247142D02*
X19392857Y-8675714D01*
X19249999Y-8390000D01*
X18964285Y-8247142D01*
X18392857Y-8247142D01*
X18107142Y-8390000D01*
X19392857Y-10104285D02*
X19107142Y-10247142D01*
X18392857Y-10247142D01*
X18107142Y-10104285D01*
X17964285Y-9818571D01*
X17964285Y-9532857D01*
X18107142Y-9247142D01*
X18392857Y-9104285D01*
X19107142Y-9104285D01*
X19392857Y-8961428D01*
X20392857Y-8247142D02*
X21535714Y-8247142D01*
X20821428Y-7247142D02*
X20821428Y-9818571D01*
X20964285Y-10104285D01*
X21249999Y-10247142D01*
X21535714Y-10247142D01*
X22535714Y-10247142D02*
X22535714Y-8247142D01*
X22535714Y-7247142D02*
X22392857Y-7390000D01*
X22535714Y-7532857D01*
X22678571Y-7390000D01*
X22535714Y-7247142D01*
X22535714Y-7532857D01*
X24392857Y-10247142D02*
X24107142Y-10104285D01*
X23964285Y-9961428D01*
X23821428Y-9675714D01*
X23821428Y-8818571D01*
X23964285Y-8532857D01*
X24107142Y-8390000D01*
X24392857Y-8247142D01*
X24821428Y-8247142D01*
X25107142Y-8390000D01*
X25249999Y-8532857D01*
X25392857Y-8818571D01*
X25392857Y-9675714D01*
X25249999Y-9961428D01*
X25107142Y-10104285D01*
X24821428Y-10247142D01*
X24392857Y-10247142D01*
X26678571Y-8247142D02*
X26678571Y-10247142D01*
X26678571Y-8532857D02*
X26821428Y-8390000D01*
X27107142Y-8247142D01*
X27535714Y-8247142D01*
X27821428Y-8390000D01*
X27964285Y-8675714D01*
X27964285Y-10247142D01*
X31535714Y-10104285D02*
X31964285Y-10247142D01*
X32678571Y-10247142D01*
X32964285Y-10104285D01*
X33107142Y-9961428D01*
X33249999Y-9675714D01*
X33249999Y-9390000D01*
X33107142Y-9104285D01*
X32964285Y-8961428D01*
X32678571Y-8818571D01*
X32107142Y-8675714D01*
X31821428Y-8532857D01*
X31678571Y-8390000D01*
X31535714Y-8104285D01*
X31535714Y-7818571D01*
X31678571Y-7532857D01*
X31821428Y-7390000D01*
X32107142Y-7247142D01*
X32821428Y-7247142D01*
X33249999Y-7390000D01*
X34964285Y-10247142D02*
X34678571Y-10104285D01*
X34535714Y-9961428D01*
X34392857Y-9675714D01*
X34392857Y-8818571D01*
X34535714Y-8532857D01*
X34678571Y-8390000D01*
X34964285Y-8247142D01*
X35392857Y-8247142D01*
X35678571Y-8390000D01*
X35821428Y-8532857D01*
X35964285Y-8818571D01*
X35964285Y-9675714D01*
X35821428Y-9961428D01*
X35678571Y-10104285D01*
X35392857Y-10247142D01*
X34964285Y-10247142D01*
X38535714Y-8247142D02*
X38535714Y-10247142D01*
X37249999Y-8247142D02*
X37249999Y-9818571D01*
X37392857Y-10104285D01*
X37678571Y-10247142D01*
X38107142Y-10247142D01*
X38392857Y-10104285D01*
X38535714Y-9961428D01*
X39964285Y-10247142D02*
X39964285Y-8247142D01*
X39964285Y-8818571D02*
X40107142Y-8532857D01*
X40249999Y-8390000D01*
X40535714Y-8247142D01*
X40821428Y-8247142D01*
X43107142Y-10104285D02*
X42821428Y-10247142D01*
X42249999Y-10247142D01*
X41964285Y-10104285D01*
X41821428Y-9961428D01*
X41678571Y-9675714D01*
X41678571Y-8818571D01*
X41821428Y-8532857D01*
X41964285Y-8390000D01*
X42249999Y-8247142D01*
X42821428Y-8247142D01*
X43107142Y-8390000D01*
X45535714Y-10104285D02*
X45250000Y-10247142D01*
X44678571Y-10247142D01*
X44392857Y-10104285D01*
X44250000Y-9818571D01*
X44250000Y-8675714D01*
X44392857Y-8390000D01*
X44678571Y-8247142D01*
X45250000Y-8247142D01*
X45535714Y-8390000D01*
X45678571Y-8675714D01*
X45678571Y-8961428D01*
X44250000Y-9247142D01*
X37306190Y-114419285D02*
X37306190Y-116919285D01*
X37306190Y-114538333D02*
X37544285Y-114419285D01*
X38020476Y-114419285D01*
X38258571Y-114538333D01*
X38377619Y-114657380D01*
X38496666Y-114895476D01*
X38496666Y-115609761D01*
X38377619Y-115847857D01*
X38258571Y-115966904D01*
X38020476Y-116085952D01*
X37544285Y-116085952D01*
X37306190Y-115966904D01*
X39568095Y-116085952D02*
X39568095Y-114419285D01*
X39568095Y-113585952D02*
X39449047Y-113705000D01*
X39568095Y-113824047D01*
X39687142Y-113705000D01*
X39568095Y-113585952D01*
X39568095Y-113824047D01*
X40758571Y-114419285D02*
X40758571Y-116085952D01*
X40758571Y-114657380D02*
X40877619Y-114538333D01*
X41115714Y-114419285D01*
X41472857Y-114419285D01*
X41710952Y-114538333D01*
X41830000Y-114776428D01*
X41830000Y-116085952D01*
X43020476Y-116085952D02*
X43020476Y-113585952D01*
X43258571Y-115133571D02*
X43972857Y-116085952D01*
X43972857Y-114419285D02*
X43020476Y-115371666D01*
X36234761Y-118469285D02*
X36234761Y-120135952D01*
X36234761Y-118707380D02*
X36353809Y-118588333D01*
X36591904Y-118469285D01*
X36949047Y-118469285D01*
X37187142Y-118588333D01*
X37306190Y-118826428D01*
X37306190Y-120135952D01*
X38853809Y-120135952D02*
X38615714Y-120016904D01*
X38496666Y-119897857D01*
X38377619Y-119659761D01*
X38377619Y-118945476D01*
X38496666Y-118707380D01*
X38615714Y-118588333D01*
X38853809Y-118469285D01*
X39210952Y-118469285D01*
X39449047Y-118588333D01*
X39568095Y-118707380D01*
X39687142Y-118945476D01*
X39687142Y-119659761D01*
X39568095Y-119897857D01*
X39449047Y-120016904D01*
X39210952Y-120135952D01*
X38853809Y-120135952D01*
X40758571Y-120135952D02*
X40758571Y-118469285D01*
X40758571Y-117635952D02*
X40639523Y-117755000D01*
X40758571Y-117874047D01*
X40877619Y-117755000D01*
X40758571Y-117635952D01*
X40758571Y-117874047D01*
X41829999Y-120016904D02*
X42068095Y-120135952D01*
X42544285Y-120135952D01*
X42782380Y-120016904D01*
X42901428Y-119778809D01*
X42901428Y-119659761D01*
X42782380Y-119421666D01*
X42544285Y-119302619D01*
X42187142Y-119302619D01*
X41949047Y-119183571D01*
X41829999Y-118945476D01*
X41829999Y-118826428D01*
X41949047Y-118588333D01*
X42187142Y-118469285D01*
X42544285Y-118469285D01*
X42782380Y-118588333D01*
X44925238Y-120016904D02*
X44687142Y-120135952D01*
X44210952Y-120135952D01*
X43972857Y-120016904D01*
X43853809Y-119778809D01*
X43853809Y-118826428D01*
X43972857Y-118588333D01*
X44210952Y-118469285D01*
X44687142Y-118469285D01*
X44925238Y-118588333D01*
X45044285Y-118826428D01*
X45044285Y-119064523D01*
X43853809Y-119302619D01*
X33080000Y-104021904D02*
X33437142Y-104140952D01*
X34032380Y-104140952D01*
X34270476Y-104021904D01*
X34389523Y-103902857D01*
X34508571Y-103664761D01*
X34508571Y-103426666D01*
X34389523Y-103188571D01*
X34270476Y-103069523D01*
X34032380Y-102950476D01*
X33556190Y-102831428D01*
X33318095Y-102712380D01*
X33199047Y-102593333D01*
X33080000Y-102355238D01*
X33080000Y-102117142D01*
X33199047Y-101879047D01*
X33318095Y-101760000D01*
X33556190Y-101640952D01*
X34151428Y-101640952D01*
X34508571Y-101760000D01*
X37603809Y-104140952D02*
X37484761Y-104140952D01*
X37246666Y-104021904D01*
X36889523Y-103664761D01*
X36294285Y-102950476D01*
X36056190Y-102593333D01*
X35937142Y-102236190D01*
X35937142Y-101998095D01*
X36056190Y-101760000D01*
X36294285Y-101640952D01*
X36413333Y-101640952D01*
X36651428Y-101760000D01*
X36770476Y-101998095D01*
X36770476Y-102117142D01*
X36651428Y-102355238D01*
X36532380Y-102474285D01*
X35818095Y-102950476D01*
X35699047Y-103069523D01*
X35580000Y-103307619D01*
X35580000Y-103664761D01*
X35699047Y-103902857D01*
X35818095Y-104021904D01*
X36056190Y-104140952D01*
X36413333Y-104140952D01*
X36651428Y-104021904D01*
X36770476Y-103902857D01*
X37127619Y-103426666D01*
X37246666Y-103069523D01*
X37246666Y-102831428D01*
X38675238Y-104140952D02*
X38675238Y-101640952D01*
X38675238Y-102831428D02*
X40103809Y-102831428D01*
X40103809Y-104140952D02*
X40103809Y-101640952D01*
X43556190Y-104140952D02*
X43318095Y-104021904D01*
X43199047Y-103902857D01*
X43080000Y-103664761D01*
X43080000Y-102950476D01*
X43199047Y-102712380D01*
X43318095Y-102593333D01*
X43556190Y-102474285D01*
X43913333Y-102474285D01*
X44151428Y-102593333D01*
X44270476Y-102712380D01*
X44389523Y-102950476D01*
X44389523Y-103664761D01*
X44270476Y-103902857D01*
X44151428Y-104021904D01*
X43913333Y-104140952D01*
X43556190Y-104140952D01*
X46532380Y-102474285D02*
X46532380Y-104140952D01*
X45460952Y-102474285D02*
X45460952Y-103783809D01*
X45580000Y-104021904D01*
X45818095Y-104140952D01*
X46175238Y-104140952D01*
X46413333Y-104021904D01*
X46532380Y-103902857D01*
X47365714Y-102474285D02*
X48318095Y-102474285D01*
X47722857Y-101640952D02*
X47722857Y-103783809D01*
X47841904Y-104021904D01*
X48079999Y-104140952D01*
X48318095Y-104140952D01*
X37246666Y-91956904D02*
X37484761Y-92075952D01*
X37960952Y-92075952D01*
X38199047Y-91956904D01*
X38318095Y-91718809D01*
X38318095Y-91599761D01*
X38199047Y-91361666D01*
X37960952Y-91242619D01*
X37603809Y-91242619D01*
X37365714Y-91123571D01*
X37246666Y-90885476D01*
X37246666Y-90766428D01*
X37365714Y-90528333D01*
X37603809Y-90409285D01*
X37960952Y-90409285D01*
X38199047Y-90528333D01*
X39389523Y-92075952D02*
X39389523Y-90409285D01*
X39389523Y-89575952D02*
X39270476Y-89695000D01*
X39389523Y-89814047D01*
X39508571Y-89695000D01*
X39389523Y-89575952D01*
X39389523Y-89814047D01*
X40580000Y-90409285D02*
X40580000Y-92075952D01*
X40580000Y-90647380D02*
X40699047Y-90528333D01*
X40937142Y-90409285D01*
X41294285Y-90409285D01*
X41532380Y-90528333D01*
X41651428Y-90766428D01*
X41651428Y-92075952D01*
X43794285Y-91956904D02*
X43556190Y-92075952D01*
X43080000Y-92075952D01*
X42841904Y-91956904D01*
X42722857Y-91718809D01*
X42722857Y-90766428D01*
X42841904Y-90528333D01*
X43080000Y-90409285D01*
X43556190Y-90409285D01*
X43794285Y-90528333D01*
X43913333Y-90766428D01*
X43913333Y-91004523D01*
X42722857Y-91242619D01*
X20875714Y-115054285D02*
X21351904Y-116720952D01*
X21828095Y-115530476D01*
X22304285Y-116720952D01*
X22780476Y-115054285D01*
X23732857Y-116720952D02*
X23732857Y-114220952D01*
X24804285Y-116720952D02*
X24804285Y-115411428D01*
X24685238Y-115173333D01*
X24447142Y-115054285D01*
X24090000Y-115054285D01*
X23851904Y-115173333D01*
X23732857Y-115292380D01*
X25994761Y-116720952D02*
X25994761Y-115054285D01*
X25994761Y-114220952D02*
X25875714Y-114340000D01*
X25994761Y-114459047D01*
X26113809Y-114340000D01*
X25994761Y-114220952D01*
X25994761Y-114459047D01*
X26828095Y-115054285D02*
X27780476Y-115054285D01*
X27185238Y-114220952D02*
X27185238Y-116363809D01*
X27304285Y-116601904D01*
X27542380Y-116720952D01*
X27780476Y-116720952D01*
X29566190Y-116601904D02*
X29328095Y-116720952D01*
X28851904Y-116720952D01*
X28613809Y-116601904D01*
X28494761Y-116363809D01*
X28494761Y-115411428D01*
X28613809Y-115173333D01*
X28851904Y-115054285D01*
X29328095Y-115054285D01*
X29566190Y-115173333D01*
X29685238Y-115411428D01*
X29685238Y-115649523D01*
X28494761Y-115887619D01*
X20994761Y-119104285D02*
X20994761Y-120770952D01*
X20994761Y-119342380D02*
X21113809Y-119223333D01*
X21351904Y-119104285D01*
X21709047Y-119104285D01*
X21947142Y-119223333D01*
X22066190Y-119461428D01*
X22066190Y-120770952D01*
X23613809Y-120770952D02*
X23375714Y-120651904D01*
X23256666Y-120532857D01*
X23137619Y-120294761D01*
X23137619Y-119580476D01*
X23256666Y-119342380D01*
X23375714Y-119223333D01*
X23613809Y-119104285D01*
X23970952Y-119104285D01*
X24209047Y-119223333D01*
X24328095Y-119342380D01*
X24447142Y-119580476D01*
X24447142Y-120294761D01*
X24328095Y-120532857D01*
X24209047Y-120651904D01*
X23970952Y-120770952D01*
X23613809Y-120770952D01*
X25518571Y-120770952D02*
X25518571Y-119104285D01*
X25518571Y-118270952D02*
X25399523Y-118390000D01*
X25518571Y-118509047D01*
X25637619Y-118390000D01*
X25518571Y-118270952D01*
X25518571Y-118509047D01*
X26590000Y-120651904D02*
X26828095Y-120770952D01*
X27304285Y-120770952D01*
X27542380Y-120651904D01*
X27661428Y-120413809D01*
X27661428Y-120294761D01*
X27542380Y-120056666D01*
X27304285Y-119937619D01*
X26947142Y-119937619D01*
X26709047Y-119818571D01*
X26590000Y-119580476D01*
X26590000Y-119461428D01*
X26709047Y-119223333D01*
X26947142Y-119104285D01*
X27304285Y-119104285D01*
X27542380Y-119223333D01*
X29685238Y-120651904D02*
X29447142Y-120770952D01*
X28970952Y-120770952D01*
X28732857Y-120651904D01*
X28613809Y-120413809D01*
X28613809Y-119461428D01*
X28732857Y-119223333D01*
X28970952Y-119104285D01*
X29447142Y-119104285D01*
X29685238Y-119223333D01*
X29804285Y-119461428D01*
X29804285Y-119699523D01*
X28613809Y-119937619D01*
X3850000Y-103881904D02*
X4207142Y-104000952D01*
X4802380Y-104000952D01*
X5040476Y-103881904D01*
X5159523Y-103762857D01*
X5278571Y-103524761D01*
X5278571Y-103286666D01*
X5159523Y-103048571D01*
X5040476Y-102929523D01*
X4802380Y-102810476D01*
X4326190Y-102691428D01*
X4088095Y-102572380D01*
X3969047Y-102453333D01*
X3850000Y-102215238D01*
X3850000Y-101977142D01*
X3969047Y-101739047D01*
X4088095Y-101620000D01*
X4326190Y-101500952D01*
X4921428Y-101500952D01*
X5278571Y-101620000D01*
X8373809Y-104000952D02*
X8254761Y-104000952D01*
X8016666Y-103881904D01*
X7659523Y-103524761D01*
X7064285Y-102810476D01*
X6826190Y-102453333D01*
X6707142Y-102096190D01*
X6707142Y-101858095D01*
X6826190Y-101620000D01*
X7064285Y-101500952D01*
X7183333Y-101500952D01*
X7421428Y-101620000D01*
X7540476Y-101858095D01*
X7540476Y-101977142D01*
X7421428Y-102215238D01*
X7302380Y-102334285D01*
X6588095Y-102810476D01*
X6469047Y-102929523D01*
X6349999Y-103167619D01*
X6349999Y-103524761D01*
X6469047Y-103762857D01*
X6588095Y-103881904D01*
X6826190Y-104000952D01*
X7183333Y-104000952D01*
X7421428Y-103881904D01*
X7540476Y-103762857D01*
X7897619Y-103286666D01*
X8016666Y-102929523D01*
X8016666Y-102691428D01*
X9445238Y-104000952D02*
X9445238Y-101500952D01*
X9445238Y-102691428D02*
X10873809Y-102691428D01*
X10873809Y-104000952D02*
X10873809Y-101500952D01*
X13969047Y-104000952D02*
X13969047Y-102334285D01*
X13969047Y-101500952D02*
X13849999Y-101620000D01*
X13969047Y-101739047D01*
X14088095Y-101620000D01*
X13969047Y-101500952D01*
X13969047Y-101739047D01*
X15159523Y-102334285D02*
X15159523Y-104000952D01*
X15159523Y-102572380D02*
X15278571Y-102453333D01*
X15516666Y-102334285D01*
X15873809Y-102334285D01*
X16111904Y-102453333D01*
X16230952Y-102691428D01*
X16230952Y-104000952D01*
X6350000Y-90766428D02*
X5516666Y-90766428D01*
X5516666Y-92075952D02*
X5516666Y-89575952D01*
X6707142Y-89575952D01*
X7659523Y-92075952D02*
X7659523Y-89575952D01*
X8492857Y-91361666D01*
X9326190Y-89575952D01*
X9326190Y-92075952D01*
X12421428Y-92075952D02*
X12421428Y-90409285D01*
X12421428Y-89575952D02*
X12302380Y-89695000D01*
X12421428Y-89814047D01*
X12540476Y-89695000D01*
X12421428Y-89575952D01*
X12421428Y-89814047D01*
X13611904Y-90409285D02*
X13611904Y-92075952D01*
X13611904Y-90647380D02*
X13730952Y-90528333D01*
X13969047Y-90409285D01*
X14326190Y-90409285D01*
X14564285Y-90528333D01*
X14683333Y-90766428D01*
X14683333Y-92075952D01*
X31382857Y-34031904D02*
X31739999Y-34150952D01*
X32335238Y-34150952D01*
X32573333Y-34031904D01*
X32692380Y-33912857D01*
X32811428Y-33674761D01*
X32811428Y-33436666D01*
X32692380Y-33198571D01*
X32573333Y-33079523D01*
X32335238Y-32960476D01*
X31859047Y-32841428D01*
X31620952Y-32722380D01*
X31501904Y-32603333D01*
X31382857Y-32365238D01*
X31382857Y-32127142D01*
X31501904Y-31889047D01*
X31620952Y-31770000D01*
X31859047Y-31650952D01*
X32454285Y-31650952D01*
X32811428Y-31770000D01*
X35906666Y-34150952D02*
X35787619Y-34150952D01*
X35549523Y-34031904D01*
X35192380Y-33674761D01*
X34597142Y-32960476D01*
X34359047Y-32603333D01*
X34240000Y-32246190D01*
X34240000Y-32008095D01*
X34359047Y-31770000D01*
X34597142Y-31650952D01*
X34716190Y-31650952D01*
X34954285Y-31770000D01*
X35073333Y-32008095D01*
X35073333Y-32127142D01*
X34954285Y-32365238D01*
X34835238Y-32484285D01*
X34120952Y-32960476D01*
X34001904Y-33079523D01*
X33882857Y-33317619D01*
X33882857Y-33674761D01*
X34001904Y-33912857D01*
X34120952Y-34031904D01*
X34359047Y-34150952D01*
X34716190Y-34150952D01*
X34954285Y-34031904D01*
X35073333Y-33912857D01*
X35430476Y-33436666D01*
X35549523Y-33079523D01*
X35549523Y-32841428D01*
X36978095Y-34150952D02*
X36978095Y-31650952D01*
X36978095Y-32841428D02*
X38406666Y-32841428D01*
X38406666Y-34150952D02*
X38406666Y-31650952D01*
X42573333Y-32484285D02*
X42573333Y-34508095D01*
X42454285Y-34746190D01*
X42335238Y-34865238D01*
X42097142Y-34984285D01*
X41740000Y-34984285D01*
X41501904Y-34865238D01*
X42573333Y-34031904D02*
X42335238Y-34150952D01*
X41859047Y-34150952D01*
X41620952Y-34031904D01*
X41501904Y-33912857D01*
X41382857Y-33674761D01*
X41382857Y-32960476D01*
X41501904Y-32722380D01*
X41620952Y-32603333D01*
X41859047Y-32484285D01*
X42335238Y-32484285D01*
X42573333Y-32603333D01*
X44120952Y-34150952D02*
X43882857Y-34031904D01*
X43763809Y-33793809D01*
X43763809Y-31650952D01*
X45073333Y-34150952D02*
X45073333Y-32484285D01*
X45073333Y-31650952D02*
X44954285Y-31770000D01*
X45073333Y-31889047D01*
X45192380Y-31770000D01*
X45073333Y-31650952D01*
X45073333Y-31889047D01*
X47335238Y-34150952D02*
X47335238Y-31650952D01*
X47335238Y-34031904D02*
X47097142Y-34150952D01*
X46620952Y-34150952D01*
X46382857Y-34031904D01*
X46263809Y-33912857D01*
X46144761Y-33674761D01*
X46144761Y-32960476D01*
X46263809Y-32722380D01*
X46382857Y-32603333D01*
X46620952Y-32484285D01*
X47097142Y-32484285D01*
X47335238Y-32603333D01*
X49478095Y-34031904D02*
X49240000Y-34150952D01*
X48763809Y-34150952D01*
X48525714Y-34031904D01*
X48406666Y-33793809D01*
X48406666Y-32841428D01*
X48525714Y-32603333D01*
X48763809Y-32484285D01*
X49240000Y-32484285D01*
X49478095Y-32603333D01*
X49597142Y-32841428D01*
X49597142Y-33079523D01*
X48406666Y-33317619D01*
X5457619Y-58241428D02*
X4624285Y-58241428D01*
X4624285Y-59550952D02*
X4624285Y-57050952D01*
X5814761Y-57050952D01*
X6767142Y-59550952D02*
X6767142Y-57050952D01*
X7600476Y-58836666D01*
X8433809Y-57050952D01*
X8433809Y-59550952D01*
X11886190Y-59550952D02*
X11648095Y-59431904D01*
X11529047Y-59193809D01*
X11529047Y-57050952D01*
X13790952Y-59431904D02*
X13552857Y-59550952D01*
X13076666Y-59550952D01*
X12838571Y-59431904D01*
X12719523Y-59193809D01*
X12719523Y-58241428D01*
X12838571Y-58003333D01*
X13076666Y-57884285D01*
X13552857Y-57884285D01*
X13790952Y-58003333D01*
X13910000Y-58241428D01*
X13910000Y-58479523D01*
X12719523Y-58717619D01*
X14743333Y-57884285D02*
X15338571Y-59550952D01*
X15933809Y-57884285D01*
X3850000Y-34150952D02*
X2659523Y-34150952D01*
X2659523Y-31650952D01*
X5516666Y-32841428D02*
X4683333Y-32841428D01*
X4683333Y-34150952D02*
X4683333Y-31650952D01*
X5873809Y-31650952D01*
X7302380Y-31650952D02*
X7778571Y-31650952D01*
X8016666Y-31770000D01*
X8254761Y-32008095D01*
X8373809Y-32484285D01*
X8373809Y-33317619D01*
X8254761Y-33793809D01*
X8016666Y-34031904D01*
X7778571Y-34150952D01*
X7302380Y-34150952D01*
X7064285Y-34031904D01*
X6826190Y-33793809D01*
X6707142Y-33317619D01*
X6707142Y-32484285D01*
X6826190Y-32008095D01*
X7064285Y-31770000D01*
X7302380Y-31650952D01*
X11350000Y-34150952D02*
X11350000Y-32484285D01*
X11350000Y-32960476D02*
X11469047Y-32722380D01*
X11588095Y-32603333D01*
X11826190Y-32484285D01*
X12064285Y-32484285D01*
X13969047Y-34150952D02*
X13969047Y-32841428D01*
X13850000Y-32603333D01*
X13611904Y-32484285D01*
X13135714Y-32484285D01*
X12897619Y-32603333D01*
X13969047Y-34031904D02*
X13730952Y-34150952D01*
X13135714Y-34150952D01*
X12897619Y-34031904D01*
X12778571Y-33793809D01*
X12778571Y-33555714D01*
X12897619Y-33317619D01*
X13135714Y-33198571D01*
X13730952Y-33198571D01*
X13969047Y-33079523D01*
X14802380Y-32484285D02*
X15754761Y-32484285D01*
X15159523Y-31650952D02*
X15159523Y-33793809D01*
X15278571Y-34031904D01*
X15516666Y-34150952D01*
X15754761Y-34150952D01*
X17540476Y-34031904D02*
X17302380Y-34150952D01*
X16826190Y-34150952D01*
X16588095Y-34031904D01*
X16469047Y-33793809D01*
X16469047Y-32841428D01*
X16588095Y-32603333D01*
X16826190Y-32484285D01*
X17302380Y-32484285D01*
X17540476Y-32603333D01*
X17659523Y-32841428D01*
X17659523Y-33079523D01*
X16469047Y-33317619D01*
M02*
