%TF.GenerationSoftware,KiCad,Pcbnew,5.1.12-84ad8e8a86~92~ubuntu20.04.1*%
%TF.CreationDate,2021-12-18T13:57:56-05:00*%
%TF.ProjectId,front_panel,66726f6e-745f-4706-916e-656c2e6b6963,0*%
%TF.SameCoordinates,Original*%
%TF.FileFunction,Copper,L2,Bot*%
%TF.FilePolarity,Positive*%
%FSLAX46Y46*%
G04 Gerber Fmt 4.6, Leading zero omitted, Abs format (unit mm)*
G04 Created by KiCad (PCBNEW 5.1.12-84ad8e8a86~92~ubuntu20.04.1) date 2021-12-18 13:57:56*
%MOMM*%
%LPD*%
G01*
G04 APERTURE LIST*
%TA.AperFunction,ComponentPad*%
%ADD10C,5.600000*%
%TD*%
%TA.AperFunction,Conductor*%
%ADD11C,0.254000*%
%TD*%
%TA.AperFunction,Conductor*%
%ADD12C,0.100000*%
%TD*%
G04 APERTURE END LIST*
D10*
%TO.P,H4,1*%
%TO.N,GND*%
X43060000Y-125500000D03*
%TD*%
%TO.P,H3,1*%
%TO.N,GND*%
X43060000Y-3000000D03*
%TD*%
%TO.P,H2,1*%
%TO.N,GND*%
X7500000Y-125500000D03*
%TD*%
%TO.P,H1,1*%
%TO.N,GND*%
X7500000Y-3000000D03*
%TD*%
D11*
%TO.N,GND*%
X5083517Y-763125D02*
X4634823Y-1075308D01*
X4314388Y-1671259D01*
X4116374Y-2318273D01*
X4048390Y-2991484D01*
X4113051Y-3665023D01*
X4307870Y-4313006D01*
X4625361Y-4910530D01*
X4634823Y-4924692D01*
X5083519Y-5236876D01*
X7320395Y-3000000D01*
X7306253Y-2985858D01*
X7485858Y-2806253D01*
X7500000Y-2820395D01*
X7514143Y-2806253D01*
X7693748Y-2985858D01*
X7679605Y-3000000D01*
X9916481Y-5236876D01*
X10365177Y-4924692D01*
X10685612Y-4328741D01*
X10883626Y-3681727D01*
X10951610Y-3008516D01*
X10886949Y-2334977D01*
X10692130Y-1686994D01*
X10374639Y-1089470D01*
X10365177Y-1075308D01*
X9916483Y-763125D01*
X10019608Y-660000D01*
X40540392Y-660000D01*
X40643517Y-763125D01*
X40194823Y-1075308D01*
X39874388Y-1671259D01*
X39676374Y-2318273D01*
X39608390Y-2991484D01*
X39673051Y-3665023D01*
X39867870Y-4313006D01*
X40185361Y-4910530D01*
X40194823Y-4924692D01*
X40643519Y-5236876D01*
X42880395Y-3000000D01*
X42866253Y-2985858D01*
X43045858Y-2806253D01*
X43060000Y-2820395D01*
X43074143Y-2806253D01*
X43253748Y-2985858D01*
X43239605Y-3000000D01*
X45476481Y-5236876D01*
X45925177Y-4924692D01*
X46245612Y-4328741D01*
X46443626Y-3681727D01*
X46511610Y-3008516D01*
X46446949Y-2334977D01*
X46252130Y-1686994D01*
X45934639Y-1089470D01*
X45925177Y-1075308D01*
X45476483Y-763125D01*
X45579608Y-660000D01*
X49840000Y-660000D01*
X49840001Y-127840000D01*
X45579608Y-127840000D01*
X45476483Y-127736875D01*
X45925177Y-127424692D01*
X46245612Y-126828741D01*
X46443626Y-126181727D01*
X46511610Y-125508516D01*
X46446949Y-124834977D01*
X46252130Y-124186994D01*
X45934639Y-123589470D01*
X45925177Y-123575308D01*
X45476481Y-123263124D01*
X43239605Y-125500000D01*
X43253748Y-125514143D01*
X43074143Y-125693748D01*
X43060000Y-125679605D01*
X43045858Y-125693748D01*
X42866253Y-125514143D01*
X42880395Y-125500000D01*
X40643519Y-123263124D01*
X40194823Y-123575308D01*
X39874388Y-124171259D01*
X39676374Y-124818273D01*
X39608390Y-125491484D01*
X39673051Y-126165023D01*
X39867870Y-126813006D01*
X40185361Y-127410530D01*
X40194823Y-127424692D01*
X40643517Y-127736875D01*
X40540392Y-127840000D01*
X10019608Y-127840000D01*
X9916483Y-127736875D01*
X10365177Y-127424692D01*
X10685612Y-126828741D01*
X10883626Y-126181727D01*
X10951610Y-125508516D01*
X10886949Y-124834977D01*
X10692130Y-124186994D01*
X10374639Y-123589470D01*
X10365177Y-123575308D01*
X9916481Y-123263124D01*
X7679605Y-125500000D01*
X7693748Y-125514143D01*
X7514143Y-125693748D01*
X7500000Y-125679605D01*
X7485858Y-125693748D01*
X7306253Y-125514143D01*
X7320395Y-125500000D01*
X5083519Y-123263124D01*
X4634823Y-123575308D01*
X4314388Y-124171259D01*
X4116374Y-124818273D01*
X4048390Y-125491484D01*
X4113051Y-126165023D01*
X4307870Y-126813006D01*
X4625361Y-127410530D01*
X4634823Y-127424692D01*
X5083517Y-127736875D01*
X4980392Y-127840000D01*
X660000Y-127840000D01*
X660000Y-123083519D01*
X5263124Y-123083519D01*
X7500000Y-125320395D01*
X9736876Y-123083519D01*
X40823124Y-123083519D01*
X43060000Y-125320395D01*
X45296876Y-123083519D01*
X44984692Y-122634823D01*
X44388741Y-122314388D01*
X43741727Y-122116374D01*
X43068516Y-122048390D01*
X42394977Y-122113051D01*
X41746994Y-122307870D01*
X41149470Y-122625361D01*
X41135308Y-122634823D01*
X40823124Y-123083519D01*
X9736876Y-123083519D01*
X9424692Y-122634823D01*
X8828741Y-122314388D01*
X8181727Y-122116374D01*
X7508516Y-122048390D01*
X6834977Y-122113051D01*
X6186994Y-122307870D01*
X5589470Y-122625361D01*
X5575308Y-122634823D01*
X5263124Y-123083519D01*
X660000Y-123083519D01*
X660000Y-108994396D01*
X21627961Y-108994396D01*
X21627961Y-109725604D01*
X21770613Y-110442762D01*
X22050434Y-111118310D01*
X22456671Y-111726287D01*
X22973713Y-112243329D01*
X23581690Y-112649566D01*
X24257238Y-112929387D01*
X24974396Y-113072039D01*
X25705604Y-113072039D01*
X26422762Y-112929387D01*
X27098310Y-112649566D01*
X27706287Y-112243329D01*
X28223329Y-111726287D01*
X28629566Y-111118310D01*
X28909387Y-110442762D01*
X29052039Y-109725604D01*
X29052039Y-108994396D01*
X36867961Y-108994396D01*
X36867961Y-109725604D01*
X37010613Y-110442762D01*
X37290434Y-111118310D01*
X37696671Y-111726287D01*
X38213713Y-112243329D01*
X38821690Y-112649566D01*
X39497238Y-112929387D01*
X40214396Y-113072039D01*
X40945604Y-113072039D01*
X41662762Y-112929387D01*
X42338310Y-112649566D01*
X42946287Y-112243329D01*
X43463329Y-111726287D01*
X43869566Y-111118310D01*
X44149387Y-110442762D01*
X44292039Y-109725604D01*
X44292039Y-108994396D01*
X44149387Y-108277238D01*
X43869566Y-107601690D01*
X43463329Y-106993713D01*
X42946287Y-106476671D01*
X42338310Y-106070434D01*
X41662762Y-105790613D01*
X40945604Y-105647961D01*
X40214396Y-105647961D01*
X39497238Y-105790613D01*
X38821690Y-106070434D01*
X38213713Y-106476671D01*
X37696671Y-106993713D01*
X37290434Y-107601690D01*
X37010613Y-108277238D01*
X36867961Y-108994396D01*
X29052039Y-108994396D01*
X28909387Y-108277238D01*
X28629566Y-107601690D01*
X28223329Y-106993713D01*
X27706287Y-106476671D01*
X27098310Y-106070434D01*
X26422762Y-105790613D01*
X25705604Y-105647961D01*
X24974396Y-105647961D01*
X24257238Y-105790613D01*
X23581690Y-106070434D01*
X22973713Y-106476671D01*
X22456671Y-106993713D01*
X22050434Y-107601690D01*
X21770613Y-108277238D01*
X21627961Y-108994396D01*
X660000Y-108994396D01*
X660000Y-96784495D01*
X6398202Y-96784495D01*
X6398202Y-97525505D01*
X6542766Y-98252276D01*
X6826338Y-98936880D01*
X7238020Y-99553007D01*
X7761993Y-100076980D01*
X8378120Y-100488662D01*
X9062724Y-100772234D01*
X9789495Y-100916798D01*
X10530505Y-100916798D01*
X11257276Y-100772234D01*
X11941880Y-100488662D01*
X12558007Y-100076980D01*
X13081980Y-99553007D01*
X13493662Y-98936880D01*
X13777234Y-98252276D01*
X13921798Y-97525505D01*
X13921798Y-96929396D01*
X21627961Y-96929396D01*
X21627961Y-97660604D01*
X21770613Y-98377762D01*
X22050434Y-99053310D01*
X22456671Y-99661287D01*
X22973713Y-100178329D01*
X23581690Y-100584566D01*
X24257238Y-100864387D01*
X24974396Y-101007039D01*
X25705604Y-101007039D01*
X26422762Y-100864387D01*
X27098310Y-100584566D01*
X27706287Y-100178329D01*
X28223329Y-99661287D01*
X28629566Y-99053310D01*
X28909387Y-98377762D01*
X29052039Y-97660604D01*
X29052039Y-96929396D01*
X36867961Y-96929396D01*
X36867961Y-97660604D01*
X37010613Y-98377762D01*
X37290434Y-99053310D01*
X37696671Y-99661287D01*
X38213713Y-100178329D01*
X38821690Y-100584566D01*
X39497238Y-100864387D01*
X40214396Y-101007039D01*
X40945604Y-101007039D01*
X41662762Y-100864387D01*
X42338310Y-100584566D01*
X42946287Y-100178329D01*
X43463329Y-99661287D01*
X43869566Y-99053310D01*
X44149387Y-98377762D01*
X44292039Y-97660604D01*
X44292039Y-96929396D01*
X44149387Y-96212238D01*
X43869566Y-95536690D01*
X43463329Y-94928713D01*
X42946287Y-94411671D01*
X42338310Y-94005434D01*
X41662762Y-93725613D01*
X40945604Y-93582961D01*
X40214396Y-93582961D01*
X39497238Y-93725613D01*
X38821690Y-94005434D01*
X38213713Y-94411671D01*
X37696671Y-94928713D01*
X37290434Y-95536690D01*
X37010613Y-96212238D01*
X36867961Y-96929396D01*
X29052039Y-96929396D01*
X28909387Y-96212238D01*
X28629566Y-95536690D01*
X28223329Y-94928713D01*
X27706287Y-94411671D01*
X27098310Y-94005434D01*
X26422762Y-93725613D01*
X25705604Y-93582961D01*
X24974396Y-93582961D01*
X24257238Y-93725613D01*
X23581690Y-94005434D01*
X22973713Y-94411671D01*
X22456671Y-94928713D01*
X22050434Y-95536690D01*
X21770613Y-96212238D01*
X21627961Y-96929396D01*
X13921798Y-96929396D01*
X13921798Y-96784495D01*
X13777234Y-96057724D01*
X13493662Y-95373120D01*
X13081980Y-94756993D01*
X12558007Y-94233020D01*
X11941880Y-93821338D01*
X11257276Y-93537766D01*
X10530505Y-93393202D01*
X9789495Y-93393202D01*
X9062724Y-93537766D01*
X8378120Y-93821338D01*
X7761993Y-94233020D01*
X7238020Y-94756993D01*
X6826338Y-95373120D01*
X6542766Y-96057724D01*
X6398202Y-96784495D01*
X660000Y-96784495D01*
X660000Y-84864396D01*
X6387961Y-84864396D01*
X6387961Y-85595604D01*
X6530613Y-86312762D01*
X6810434Y-86988310D01*
X7216671Y-87596287D01*
X7733713Y-88113329D01*
X8341690Y-88519566D01*
X9017238Y-88799387D01*
X9734396Y-88942039D01*
X10465604Y-88942039D01*
X11182762Y-88799387D01*
X11858310Y-88519566D01*
X12466287Y-88113329D01*
X12983329Y-87596287D01*
X13389566Y-86988310D01*
X13669387Y-86312762D01*
X13812039Y-85595604D01*
X13812039Y-84864396D01*
X21627961Y-84864396D01*
X21627961Y-85595604D01*
X21770613Y-86312762D01*
X22050434Y-86988310D01*
X22456671Y-87596287D01*
X22973713Y-88113329D01*
X23581690Y-88519566D01*
X24257238Y-88799387D01*
X24974396Y-88942039D01*
X25705604Y-88942039D01*
X26422762Y-88799387D01*
X27098310Y-88519566D01*
X27706287Y-88113329D01*
X28223329Y-87596287D01*
X28629566Y-86988310D01*
X28909387Y-86312762D01*
X29052039Y-85595604D01*
X29052039Y-84864396D01*
X36867961Y-84864396D01*
X36867961Y-85595604D01*
X37010613Y-86312762D01*
X37290434Y-86988310D01*
X37696671Y-87596287D01*
X38213713Y-88113329D01*
X38821690Y-88519566D01*
X39497238Y-88799387D01*
X40214396Y-88942039D01*
X40945604Y-88942039D01*
X41662762Y-88799387D01*
X42338310Y-88519566D01*
X42946287Y-88113329D01*
X43463329Y-87596287D01*
X43869566Y-86988310D01*
X44149387Y-86312762D01*
X44292039Y-85595604D01*
X44292039Y-84864396D01*
X44149387Y-84147238D01*
X43869566Y-83471690D01*
X43463329Y-82863713D01*
X42946287Y-82346671D01*
X42338310Y-81940434D01*
X41662762Y-81660613D01*
X40945604Y-81517961D01*
X40214396Y-81517961D01*
X39497238Y-81660613D01*
X38821690Y-81940434D01*
X38213713Y-82346671D01*
X37696671Y-82863713D01*
X37290434Y-83471690D01*
X37010613Y-84147238D01*
X36867961Y-84864396D01*
X29052039Y-84864396D01*
X28909387Y-84147238D01*
X28629566Y-83471690D01*
X28223329Y-82863713D01*
X27706287Y-82346671D01*
X27098310Y-81940434D01*
X26422762Y-81660613D01*
X25705604Y-81517961D01*
X24974396Y-81517961D01*
X24257238Y-81660613D01*
X23581690Y-81940434D01*
X22973713Y-82346671D01*
X22456671Y-82863713D01*
X22050434Y-83471690D01*
X21770613Y-84147238D01*
X21627961Y-84864396D01*
X13812039Y-84864396D01*
X13669387Y-84147238D01*
X13389566Y-83471690D01*
X12983329Y-82863713D01*
X12466287Y-82346671D01*
X11858310Y-81940434D01*
X11182762Y-81660613D01*
X10465604Y-81517961D01*
X9734396Y-81517961D01*
X9017238Y-81660613D01*
X8341690Y-81940434D01*
X7733713Y-82346671D01*
X7216671Y-82863713D01*
X6810434Y-83471690D01*
X6530613Y-84147238D01*
X6387961Y-84864396D01*
X660000Y-84864396D01*
X660000Y-47845387D01*
X5890369Y-47845387D01*
X5890369Y-48674613D01*
X6052142Y-49487904D01*
X6369473Y-50254008D01*
X6830166Y-50943484D01*
X7416516Y-51529834D01*
X8105992Y-51990527D01*
X8872096Y-52307858D01*
X9685387Y-52469631D01*
X10514613Y-52469631D01*
X11327904Y-52307858D01*
X12094008Y-51990527D01*
X12783484Y-51529834D01*
X13369834Y-50943484D01*
X13830527Y-50254008D01*
X14147858Y-49487904D01*
X14309631Y-48674613D01*
X14309631Y-47845387D01*
X14147858Y-47032096D01*
X13830527Y-46265992D01*
X13369834Y-45576516D01*
X12783484Y-44990166D01*
X12094008Y-44529473D01*
X11327904Y-44212142D01*
X10514613Y-44050369D01*
X9685387Y-44050369D01*
X8872096Y-44212142D01*
X8105992Y-44529473D01*
X7416516Y-44990166D01*
X6830166Y-45576516D01*
X6369473Y-46265992D01*
X6052142Y-47032096D01*
X5890369Y-47845387D01*
X660000Y-47845387D01*
X660000Y-22585387D01*
X5890369Y-22585387D01*
X5890369Y-23414613D01*
X6052142Y-24227904D01*
X6369473Y-24994008D01*
X6830166Y-25683484D01*
X7416516Y-26269834D01*
X8105992Y-26730527D01*
X8872096Y-27047858D01*
X9685387Y-27209631D01*
X10514613Y-27209631D01*
X11327904Y-27047858D01*
X12094008Y-26730527D01*
X12783484Y-26269834D01*
X13369834Y-25683484D01*
X13830527Y-24994008D01*
X14147858Y-24227904D01*
X14309631Y-23414613D01*
X14309631Y-22781422D01*
X18675738Y-22781422D01*
X18675738Y-23218578D01*
X18761023Y-23647335D01*
X18928316Y-24051215D01*
X19171187Y-24414697D01*
X19480303Y-24723813D01*
X19843785Y-24966684D01*
X20247665Y-25133977D01*
X20676422Y-25219262D01*
X21113578Y-25219262D01*
X21542335Y-25133977D01*
X21946215Y-24966684D01*
X22309697Y-24723813D01*
X22618813Y-24414697D01*
X22861684Y-24051215D01*
X23028977Y-23647335D01*
X23114262Y-23218578D01*
X23114262Y-22781422D01*
X23075269Y-22585387D01*
X36280369Y-22585387D01*
X36280369Y-23414613D01*
X36442142Y-24227904D01*
X36759473Y-24994008D01*
X37220166Y-25683484D01*
X37806516Y-26269834D01*
X38495992Y-26730527D01*
X39262096Y-27047858D01*
X40075387Y-27209631D01*
X40904613Y-27209631D01*
X41717904Y-27047858D01*
X42484008Y-26730527D01*
X43173484Y-26269834D01*
X43759834Y-25683484D01*
X44220527Y-24994008D01*
X44537858Y-24227904D01*
X44699631Y-23414613D01*
X44699631Y-22585387D01*
X44537858Y-21772096D01*
X44220527Y-21005992D01*
X43759834Y-20316516D01*
X43173484Y-19730166D01*
X42484008Y-19269473D01*
X41717904Y-18952142D01*
X40904613Y-18790369D01*
X40075387Y-18790369D01*
X39262096Y-18952142D01*
X38495992Y-19269473D01*
X37806516Y-19730166D01*
X37220166Y-20316516D01*
X36759473Y-21005992D01*
X36442142Y-21772096D01*
X36280369Y-22585387D01*
X23075269Y-22585387D01*
X23028977Y-22352665D01*
X22861684Y-21948785D01*
X22618813Y-21585303D01*
X22309697Y-21276187D01*
X21946215Y-21033316D01*
X21542335Y-20866023D01*
X21113578Y-20780738D01*
X20676422Y-20780738D01*
X20247665Y-20866023D01*
X19843785Y-21033316D01*
X19480303Y-21276187D01*
X19171187Y-21585303D01*
X18928316Y-21948785D01*
X18761023Y-22352665D01*
X18675738Y-22781422D01*
X14309631Y-22781422D01*
X14309631Y-22585387D01*
X14147858Y-21772096D01*
X13830527Y-21005992D01*
X13369834Y-20316516D01*
X12783484Y-19730166D01*
X12094008Y-19269473D01*
X11327904Y-18952142D01*
X10514613Y-18790369D01*
X9685387Y-18790369D01*
X8872096Y-18952142D01*
X8105992Y-19269473D01*
X7416516Y-19730166D01*
X6830166Y-20316516D01*
X6369473Y-21005992D01*
X6052142Y-21772096D01*
X5890369Y-22585387D01*
X660000Y-22585387D01*
X660000Y-5416481D01*
X5263124Y-5416481D01*
X5575308Y-5865177D01*
X6171259Y-6185612D01*
X6818273Y-6383626D01*
X7491484Y-6451610D01*
X8165023Y-6386949D01*
X8813006Y-6192130D01*
X9410530Y-5874639D01*
X9424692Y-5865177D01*
X9736876Y-5416481D01*
X40823124Y-5416481D01*
X41135308Y-5865177D01*
X41731259Y-6185612D01*
X42378273Y-6383626D01*
X43051484Y-6451610D01*
X43725023Y-6386949D01*
X44373006Y-6192130D01*
X44970530Y-5874639D01*
X44984692Y-5865177D01*
X45296876Y-5416481D01*
X43060000Y-3179605D01*
X40823124Y-5416481D01*
X9736876Y-5416481D01*
X7500000Y-3179605D01*
X5263124Y-5416481D01*
X660000Y-5416481D01*
X660000Y-660000D01*
X4980392Y-660000D01*
X5083517Y-763125D01*
%TA.AperFunction,Conductor*%
D12*
G36*
X5083517Y-763125D02*
G01*
X4634823Y-1075308D01*
X4314388Y-1671259D01*
X4116374Y-2318273D01*
X4048390Y-2991484D01*
X4113051Y-3665023D01*
X4307870Y-4313006D01*
X4625361Y-4910530D01*
X4634823Y-4924692D01*
X5083519Y-5236876D01*
X7320395Y-3000000D01*
X7306253Y-2985858D01*
X7485858Y-2806253D01*
X7500000Y-2820395D01*
X7514143Y-2806253D01*
X7693748Y-2985858D01*
X7679605Y-3000000D01*
X9916481Y-5236876D01*
X10365177Y-4924692D01*
X10685612Y-4328741D01*
X10883626Y-3681727D01*
X10951610Y-3008516D01*
X10886949Y-2334977D01*
X10692130Y-1686994D01*
X10374639Y-1089470D01*
X10365177Y-1075308D01*
X9916483Y-763125D01*
X10019608Y-660000D01*
X40540392Y-660000D01*
X40643517Y-763125D01*
X40194823Y-1075308D01*
X39874388Y-1671259D01*
X39676374Y-2318273D01*
X39608390Y-2991484D01*
X39673051Y-3665023D01*
X39867870Y-4313006D01*
X40185361Y-4910530D01*
X40194823Y-4924692D01*
X40643519Y-5236876D01*
X42880395Y-3000000D01*
X42866253Y-2985858D01*
X43045858Y-2806253D01*
X43060000Y-2820395D01*
X43074143Y-2806253D01*
X43253748Y-2985858D01*
X43239605Y-3000000D01*
X45476481Y-5236876D01*
X45925177Y-4924692D01*
X46245612Y-4328741D01*
X46443626Y-3681727D01*
X46511610Y-3008516D01*
X46446949Y-2334977D01*
X46252130Y-1686994D01*
X45934639Y-1089470D01*
X45925177Y-1075308D01*
X45476483Y-763125D01*
X45579608Y-660000D01*
X49840000Y-660000D01*
X49840001Y-127840000D01*
X45579608Y-127840000D01*
X45476483Y-127736875D01*
X45925177Y-127424692D01*
X46245612Y-126828741D01*
X46443626Y-126181727D01*
X46511610Y-125508516D01*
X46446949Y-124834977D01*
X46252130Y-124186994D01*
X45934639Y-123589470D01*
X45925177Y-123575308D01*
X45476481Y-123263124D01*
X43239605Y-125500000D01*
X43253748Y-125514143D01*
X43074143Y-125693748D01*
X43060000Y-125679605D01*
X43045858Y-125693748D01*
X42866253Y-125514143D01*
X42880395Y-125500000D01*
X40643519Y-123263124D01*
X40194823Y-123575308D01*
X39874388Y-124171259D01*
X39676374Y-124818273D01*
X39608390Y-125491484D01*
X39673051Y-126165023D01*
X39867870Y-126813006D01*
X40185361Y-127410530D01*
X40194823Y-127424692D01*
X40643517Y-127736875D01*
X40540392Y-127840000D01*
X10019608Y-127840000D01*
X9916483Y-127736875D01*
X10365177Y-127424692D01*
X10685612Y-126828741D01*
X10883626Y-126181727D01*
X10951610Y-125508516D01*
X10886949Y-124834977D01*
X10692130Y-124186994D01*
X10374639Y-123589470D01*
X10365177Y-123575308D01*
X9916481Y-123263124D01*
X7679605Y-125500000D01*
X7693748Y-125514143D01*
X7514143Y-125693748D01*
X7500000Y-125679605D01*
X7485858Y-125693748D01*
X7306253Y-125514143D01*
X7320395Y-125500000D01*
X5083519Y-123263124D01*
X4634823Y-123575308D01*
X4314388Y-124171259D01*
X4116374Y-124818273D01*
X4048390Y-125491484D01*
X4113051Y-126165023D01*
X4307870Y-126813006D01*
X4625361Y-127410530D01*
X4634823Y-127424692D01*
X5083517Y-127736875D01*
X4980392Y-127840000D01*
X660000Y-127840000D01*
X660000Y-123083519D01*
X5263124Y-123083519D01*
X7500000Y-125320395D01*
X9736876Y-123083519D01*
X40823124Y-123083519D01*
X43060000Y-125320395D01*
X45296876Y-123083519D01*
X44984692Y-122634823D01*
X44388741Y-122314388D01*
X43741727Y-122116374D01*
X43068516Y-122048390D01*
X42394977Y-122113051D01*
X41746994Y-122307870D01*
X41149470Y-122625361D01*
X41135308Y-122634823D01*
X40823124Y-123083519D01*
X9736876Y-123083519D01*
X9424692Y-122634823D01*
X8828741Y-122314388D01*
X8181727Y-122116374D01*
X7508516Y-122048390D01*
X6834977Y-122113051D01*
X6186994Y-122307870D01*
X5589470Y-122625361D01*
X5575308Y-122634823D01*
X5263124Y-123083519D01*
X660000Y-123083519D01*
X660000Y-108994396D01*
X21627961Y-108994396D01*
X21627961Y-109725604D01*
X21770613Y-110442762D01*
X22050434Y-111118310D01*
X22456671Y-111726287D01*
X22973713Y-112243329D01*
X23581690Y-112649566D01*
X24257238Y-112929387D01*
X24974396Y-113072039D01*
X25705604Y-113072039D01*
X26422762Y-112929387D01*
X27098310Y-112649566D01*
X27706287Y-112243329D01*
X28223329Y-111726287D01*
X28629566Y-111118310D01*
X28909387Y-110442762D01*
X29052039Y-109725604D01*
X29052039Y-108994396D01*
X36867961Y-108994396D01*
X36867961Y-109725604D01*
X37010613Y-110442762D01*
X37290434Y-111118310D01*
X37696671Y-111726287D01*
X38213713Y-112243329D01*
X38821690Y-112649566D01*
X39497238Y-112929387D01*
X40214396Y-113072039D01*
X40945604Y-113072039D01*
X41662762Y-112929387D01*
X42338310Y-112649566D01*
X42946287Y-112243329D01*
X43463329Y-111726287D01*
X43869566Y-111118310D01*
X44149387Y-110442762D01*
X44292039Y-109725604D01*
X44292039Y-108994396D01*
X44149387Y-108277238D01*
X43869566Y-107601690D01*
X43463329Y-106993713D01*
X42946287Y-106476671D01*
X42338310Y-106070434D01*
X41662762Y-105790613D01*
X40945604Y-105647961D01*
X40214396Y-105647961D01*
X39497238Y-105790613D01*
X38821690Y-106070434D01*
X38213713Y-106476671D01*
X37696671Y-106993713D01*
X37290434Y-107601690D01*
X37010613Y-108277238D01*
X36867961Y-108994396D01*
X29052039Y-108994396D01*
X28909387Y-108277238D01*
X28629566Y-107601690D01*
X28223329Y-106993713D01*
X27706287Y-106476671D01*
X27098310Y-106070434D01*
X26422762Y-105790613D01*
X25705604Y-105647961D01*
X24974396Y-105647961D01*
X24257238Y-105790613D01*
X23581690Y-106070434D01*
X22973713Y-106476671D01*
X22456671Y-106993713D01*
X22050434Y-107601690D01*
X21770613Y-108277238D01*
X21627961Y-108994396D01*
X660000Y-108994396D01*
X660000Y-96784495D01*
X6398202Y-96784495D01*
X6398202Y-97525505D01*
X6542766Y-98252276D01*
X6826338Y-98936880D01*
X7238020Y-99553007D01*
X7761993Y-100076980D01*
X8378120Y-100488662D01*
X9062724Y-100772234D01*
X9789495Y-100916798D01*
X10530505Y-100916798D01*
X11257276Y-100772234D01*
X11941880Y-100488662D01*
X12558007Y-100076980D01*
X13081980Y-99553007D01*
X13493662Y-98936880D01*
X13777234Y-98252276D01*
X13921798Y-97525505D01*
X13921798Y-96929396D01*
X21627961Y-96929396D01*
X21627961Y-97660604D01*
X21770613Y-98377762D01*
X22050434Y-99053310D01*
X22456671Y-99661287D01*
X22973713Y-100178329D01*
X23581690Y-100584566D01*
X24257238Y-100864387D01*
X24974396Y-101007039D01*
X25705604Y-101007039D01*
X26422762Y-100864387D01*
X27098310Y-100584566D01*
X27706287Y-100178329D01*
X28223329Y-99661287D01*
X28629566Y-99053310D01*
X28909387Y-98377762D01*
X29052039Y-97660604D01*
X29052039Y-96929396D01*
X36867961Y-96929396D01*
X36867961Y-97660604D01*
X37010613Y-98377762D01*
X37290434Y-99053310D01*
X37696671Y-99661287D01*
X38213713Y-100178329D01*
X38821690Y-100584566D01*
X39497238Y-100864387D01*
X40214396Y-101007039D01*
X40945604Y-101007039D01*
X41662762Y-100864387D01*
X42338310Y-100584566D01*
X42946287Y-100178329D01*
X43463329Y-99661287D01*
X43869566Y-99053310D01*
X44149387Y-98377762D01*
X44292039Y-97660604D01*
X44292039Y-96929396D01*
X44149387Y-96212238D01*
X43869566Y-95536690D01*
X43463329Y-94928713D01*
X42946287Y-94411671D01*
X42338310Y-94005434D01*
X41662762Y-93725613D01*
X40945604Y-93582961D01*
X40214396Y-93582961D01*
X39497238Y-93725613D01*
X38821690Y-94005434D01*
X38213713Y-94411671D01*
X37696671Y-94928713D01*
X37290434Y-95536690D01*
X37010613Y-96212238D01*
X36867961Y-96929396D01*
X29052039Y-96929396D01*
X28909387Y-96212238D01*
X28629566Y-95536690D01*
X28223329Y-94928713D01*
X27706287Y-94411671D01*
X27098310Y-94005434D01*
X26422762Y-93725613D01*
X25705604Y-93582961D01*
X24974396Y-93582961D01*
X24257238Y-93725613D01*
X23581690Y-94005434D01*
X22973713Y-94411671D01*
X22456671Y-94928713D01*
X22050434Y-95536690D01*
X21770613Y-96212238D01*
X21627961Y-96929396D01*
X13921798Y-96929396D01*
X13921798Y-96784495D01*
X13777234Y-96057724D01*
X13493662Y-95373120D01*
X13081980Y-94756993D01*
X12558007Y-94233020D01*
X11941880Y-93821338D01*
X11257276Y-93537766D01*
X10530505Y-93393202D01*
X9789495Y-93393202D01*
X9062724Y-93537766D01*
X8378120Y-93821338D01*
X7761993Y-94233020D01*
X7238020Y-94756993D01*
X6826338Y-95373120D01*
X6542766Y-96057724D01*
X6398202Y-96784495D01*
X660000Y-96784495D01*
X660000Y-84864396D01*
X6387961Y-84864396D01*
X6387961Y-85595604D01*
X6530613Y-86312762D01*
X6810434Y-86988310D01*
X7216671Y-87596287D01*
X7733713Y-88113329D01*
X8341690Y-88519566D01*
X9017238Y-88799387D01*
X9734396Y-88942039D01*
X10465604Y-88942039D01*
X11182762Y-88799387D01*
X11858310Y-88519566D01*
X12466287Y-88113329D01*
X12983329Y-87596287D01*
X13389566Y-86988310D01*
X13669387Y-86312762D01*
X13812039Y-85595604D01*
X13812039Y-84864396D01*
X21627961Y-84864396D01*
X21627961Y-85595604D01*
X21770613Y-86312762D01*
X22050434Y-86988310D01*
X22456671Y-87596287D01*
X22973713Y-88113329D01*
X23581690Y-88519566D01*
X24257238Y-88799387D01*
X24974396Y-88942039D01*
X25705604Y-88942039D01*
X26422762Y-88799387D01*
X27098310Y-88519566D01*
X27706287Y-88113329D01*
X28223329Y-87596287D01*
X28629566Y-86988310D01*
X28909387Y-86312762D01*
X29052039Y-85595604D01*
X29052039Y-84864396D01*
X36867961Y-84864396D01*
X36867961Y-85595604D01*
X37010613Y-86312762D01*
X37290434Y-86988310D01*
X37696671Y-87596287D01*
X38213713Y-88113329D01*
X38821690Y-88519566D01*
X39497238Y-88799387D01*
X40214396Y-88942039D01*
X40945604Y-88942039D01*
X41662762Y-88799387D01*
X42338310Y-88519566D01*
X42946287Y-88113329D01*
X43463329Y-87596287D01*
X43869566Y-86988310D01*
X44149387Y-86312762D01*
X44292039Y-85595604D01*
X44292039Y-84864396D01*
X44149387Y-84147238D01*
X43869566Y-83471690D01*
X43463329Y-82863713D01*
X42946287Y-82346671D01*
X42338310Y-81940434D01*
X41662762Y-81660613D01*
X40945604Y-81517961D01*
X40214396Y-81517961D01*
X39497238Y-81660613D01*
X38821690Y-81940434D01*
X38213713Y-82346671D01*
X37696671Y-82863713D01*
X37290434Y-83471690D01*
X37010613Y-84147238D01*
X36867961Y-84864396D01*
X29052039Y-84864396D01*
X28909387Y-84147238D01*
X28629566Y-83471690D01*
X28223329Y-82863713D01*
X27706287Y-82346671D01*
X27098310Y-81940434D01*
X26422762Y-81660613D01*
X25705604Y-81517961D01*
X24974396Y-81517961D01*
X24257238Y-81660613D01*
X23581690Y-81940434D01*
X22973713Y-82346671D01*
X22456671Y-82863713D01*
X22050434Y-83471690D01*
X21770613Y-84147238D01*
X21627961Y-84864396D01*
X13812039Y-84864396D01*
X13669387Y-84147238D01*
X13389566Y-83471690D01*
X12983329Y-82863713D01*
X12466287Y-82346671D01*
X11858310Y-81940434D01*
X11182762Y-81660613D01*
X10465604Y-81517961D01*
X9734396Y-81517961D01*
X9017238Y-81660613D01*
X8341690Y-81940434D01*
X7733713Y-82346671D01*
X7216671Y-82863713D01*
X6810434Y-83471690D01*
X6530613Y-84147238D01*
X6387961Y-84864396D01*
X660000Y-84864396D01*
X660000Y-47845387D01*
X5890369Y-47845387D01*
X5890369Y-48674613D01*
X6052142Y-49487904D01*
X6369473Y-50254008D01*
X6830166Y-50943484D01*
X7416516Y-51529834D01*
X8105992Y-51990527D01*
X8872096Y-52307858D01*
X9685387Y-52469631D01*
X10514613Y-52469631D01*
X11327904Y-52307858D01*
X12094008Y-51990527D01*
X12783484Y-51529834D01*
X13369834Y-50943484D01*
X13830527Y-50254008D01*
X14147858Y-49487904D01*
X14309631Y-48674613D01*
X14309631Y-47845387D01*
X14147858Y-47032096D01*
X13830527Y-46265992D01*
X13369834Y-45576516D01*
X12783484Y-44990166D01*
X12094008Y-44529473D01*
X11327904Y-44212142D01*
X10514613Y-44050369D01*
X9685387Y-44050369D01*
X8872096Y-44212142D01*
X8105992Y-44529473D01*
X7416516Y-44990166D01*
X6830166Y-45576516D01*
X6369473Y-46265992D01*
X6052142Y-47032096D01*
X5890369Y-47845387D01*
X660000Y-47845387D01*
X660000Y-22585387D01*
X5890369Y-22585387D01*
X5890369Y-23414613D01*
X6052142Y-24227904D01*
X6369473Y-24994008D01*
X6830166Y-25683484D01*
X7416516Y-26269834D01*
X8105992Y-26730527D01*
X8872096Y-27047858D01*
X9685387Y-27209631D01*
X10514613Y-27209631D01*
X11327904Y-27047858D01*
X12094008Y-26730527D01*
X12783484Y-26269834D01*
X13369834Y-25683484D01*
X13830527Y-24994008D01*
X14147858Y-24227904D01*
X14309631Y-23414613D01*
X14309631Y-22781422D01*
X18675738Y-22781422D01*
X18675738Y-23218578D01*
X18761023Y-23647335D01*
X18928316Y-24051215D01*
X19171187Y-24414697D01*
X19480303Y-24723813D01*
X19843785Y-24966684D01*
X20247665Y-25133977D01*
X20676422Y-25219262D01*
X21113578Y-25219262D01*
X21542335Y-25133977D01*
X21946215Y-24966684D01*
X22309697Y-24723813D01*
X22618813Y-24414697D01*
X22861684Y-24051215D01*
X23028977Y-23647335D01*
X23114262Y-23218578D01*
X23114262Y-22781422D01*
X23075269Y-22585387D01*
X36280369Y-22585387D01*
X36280369Y-23414613D01*
X36442142Y-24227904D01*
X36759473Y-24994008D01*
X37220166Y-25683484D01*
X37806516Y-26269834D01*
X38495992Y-26730527D01*
X39262096Y-27047858D01*
X40075387Y-27209631D01*
X40904613Y-27209631D01*
X41717904Y-27047858D01*
X42484008Y-26730527D01*
X43173484Y-26269834D01*
X43759834Y-25683484D01*
X44220527Y-24994008D01*
X44537858Y-24227904D01*
X44699631Y-23414613D01*
X44699631Y-22585387D01*
X44537858Y-21772096D01*
X44220527Y-21005992D01*
X43759834Y-20316516D01*
X43173484Y-19730166D01*
X42484008Y-19269473D01*
X41717904Y-18952142D01*
X40904613Y-18790369D01*
X40075387Y-18790369D01*
X39262096Y-18952142D01*
X38495992Y-19269473D01*
X37806516Y-19730166D01*
X37220166Y-20316516D01*
X36759473Y-21005992D01*
X36442142Y-21772096D01*
X36280369Y-22585387D01*
X23075269Y-22585387D01*
X23028977Y-22352665D01*
X22861684Y-21948785D01*
X22618813Y-21585303D01*
X22309697Y-21276187D01*
X21946215Y-21033316D01*
X21542335Y-20866023D01*
X21113578Y-20780738D01*
X20676422Y-20780738D01*
X20247665Y-20866023D01*
X19843785Y-21033316D01*
X19480303Y-21276187D01*
X19171187Y-21585303D01*
X18928316Y-21948785D01*
X18761023Y-22352665D01*
X18675738Y-22781422D01*
X14309631Y-22781422D01*
X14309631Y-22585387D01*
X14147858Y-21772096D01*
X13830527Y-21005992D01*
X13369834Y-20316516D01*
X12783484Y-19730166D01*
X12094008Y-19269473D01*
X11327904Y-18952142D01*
X10514613Y-18790369D01*
X9685387Y-18790369D01*
X8872096Y-18952142D01*
X8105992Y-19269473D01*
X7416516Y-19730166D01*
X6830166Y-20316516D01*
X6369473Y-21005992D01*
X6052142Y-21772096D01*
X5890369Y-22585387D01*
X660000Y-22585387D01*
X660000Y-5416481D01*
X5263124Y-5416481D01*
X5575308Y-5865177D01*
X6171259Y-6185612D01*
X6818273Y-6383626D01*
X7491484Y-6451610D01*
X8165023Y-6386949D01*
X8813006Y-6192130D01*
X9410530Y-5874639D01*
X9424692Y-5865177D01*
X9736876Y-5416481D01*
X40823124Y-5416481D01*
X41135308Y-5865177D01*
X41731259Y-6185612D01*
X42378273Y-6383626D01*
X43051484Y-6451610D01*
X43725023Y-6386949D01*
X44373006Y-6192130D01*
X44970530Y-5874639D01*
X44984692Y-5865177D01*
X45296876Y-5416481D01*
X43060000Y-3179605D01*
X40823124Y-5416481D01*
X9736876Y-5416481D01*
X7500000Y-3179605D01*
X5263124Y-5416481D01*
X660000Y-5416481D01*
X660000Y-660000D01*
X4980392Y-660000D01*
X5083517Y-763125D01*
G37*
%TD.AperFunction*%
%TD*%
M02*
