%FSLAX45Y45*%
G04 Gerber Fmt 4.5, Leading zero omitted, Abs format (unit mm)*
G04 Created by KiCad (PCBNEW 5.1.12-84ad8e8a86~92~ubuntu20.04.1) date 2021-12-18 13:57:54*
%MOMM*%
%LPD*%
G01*
G04 APERTURE LIST*
%TA.AperFunction,Profile*%
%ADD10C,0.050000*%
%TD*%
%ADD11C,0.200000*%
%ADD12C,0.300000*%
G04 APERTURE END LIST*
D10*
X2244500Y-2300000D02*
G75*
G03*
X2244500Y-2300000I-155000J0D01*
G01*
X2839000Y-8523000D02*
G75*
G03*
X2839000Y-8523000I-305000J0D01*
G01*
X2839000Y-9729500D02*
G75*
G03*
X2839000Y-9729500I-305000J0D01*
G01*
X4363000Y-8523000D02*
G75*
G03*
X4363000Y-8523000I-305000J0D01*
G01*
X4363000Y-10936000D02*
G75*
G03*
X4363000Y-10936000I-305000J0D01*
G01*
X4363000Y-9729500D02*
G75*
G03*
X4363000Y-9729500I-305000J0D01*
G01*
X4404000Y-2300000D02*
G75*
G03*
X4404000Y-2300000I-355000J0D01*
G01*
X2839000Y-10936000D02*
G75*
G03*
X2839000Y-10936000I-305000J0D01*
G01*
X1326000Y-9715500D02*
G75*
G03*
X1326000Y-9715500I-310000J0D01*
G01*
X1315000Y-8523000D02*
G75*
G03*
X1315000Y-8523000I-305000J0D01*
G01*
X1365000Y-4826000D02*
G75*
G03*
X1365000Y-4826000I-355000J0D01*
G01*
X1365000Y-2300000D02*
G75*
G03*
X1365000Y-2300000I-355000J0D01*
G01*
X0Y0D02*
X5050000Y0D01*
X5050000Y0D02*
X5050000Y-12850000D01*
X0Y-12850000D02*
X5050000Y-12850000D01*
X0Y0D02*
X0Y-12850000D01*
D11*
X590000Y-140000D02*
X910000Y-460000D01*
X910000Y-140000D02*
X590000Y-460000D01*
X590000Y-12390000D02*
X910000Y-12710000D01*
X910000Y-12390000D02*
X590000Y-12710000D01*
X4146000Y-140000D02*
X4466000Y-460000D01*
X4466000Y-140000D02*
X4146000Y-460000D01*
X4146000Y-12390000D02*
X4466000Y-12710000D01*
X4466000Y-12390000D02*
X4146000Y-12710000D01*
D12*
X283928Y-13318214D02*
X283928Y-13018214D01*
X355357Y-13018214D01*
X398214Y-13032500D01*
X426786Y-13061071D01*
X441071Y-13089643D01*
X455357Y-13146786D01*
X455357Y-13189643D01*
X441071Y-13246786D01*
X426786Y-13275357D01*
X398214Y-13303929D01*
X355357Y-13318214D01*
X283928Y-13318214D01*
X583928Y-13318214D02*
X583928Y-13118214D01*
X583928Y-13175357D02*
X598214Y-13146786D01*
X612500Y-13132500D01*
X641071Y-13118214D01*
X669643Y-13118214D01*
X769643Y-13318214D02*
X769643Y-13118214D01*
X769643Y-13018214D02*
X755357Y-13032500D01*
X769643Y-13046786D01*
X783928Y-13032500D01*
X769643Y-13018214D01*
X769643Y-13046786D01*
X955357Y-13318214D02*
X926786Y-13303929D01*
X912500Y-13275357D01*
X912500Y-13018214D01*
X1112500Y-13318214D02*
X1083928Y-13303929D01*
X1069643Y-13275357D01*
X1069643Y-13018214D01*
X1455357Y-13318214D02*
X1455357Y-13018214D01*
X1555357Y-13232500D01*
X1655357Y-13018214D01*
X1655357Y-13318214D01*
X1926786Y-13318214D02*
X1926786Y-13161071D01*
X1912500Y-13132500D01*
X1883928Y-13118214D01*
X1826786Y-13118214D01*
X1798214Y-13132500D01*
X1926786Y-13303929D02*
X1898214Y-13318214D01*
X1826786Y-13318214D01*
X1798214Y-13303929D01*
X1783928Y-13275357D01*
X1783928Y-13246786D01*
X1798214Y-13218214D01*
X1826786Y-13203929D01*
X1898214Y-13203929D01*
X1926786Y-13189643D01*
X2069643Y-13118214D02*
X2069643Y-13418214D01*
X2069643Y-13132500D02*
X2098214Y-13118214D01*
X2155357Y-13118214D01*
X2183928Y-13132500D01*
X2198214Y-13146786D01*
X2212500Y-13175357D01*
X2212500Y-13261071D01*
X2198214Y-13289643D01*
X2183928Y-13303929D01*
X2155357Y-13318214D01*
X2098214Y-13318214D01*
X2069643Y-13303929D01*
X2341071Y-13289643D02*
X2355357Y-13303929D01*
X2341071Y-13318214D01*
X2326786Y-13303929D01*
X2341071Y-13289643D01*
X2341071Y-13318214D01*
X2341071Y-13132500D02*
X2355357Y-13146786D01*
X2341071Y-13161071D01*
X2326786Y-13146786D01*
X2341071Y-13132500D01*
X2341071Y-13161071D01*
X-322500Y-13652500D02*
X-2500Y-13972500D01*
X-2500Y-13652500D02*
X-322500Y-13972500D01*
X255357Y-13648214D02*
X441071Y-13648214D01*
X341071Y-13762500D01*
X383928Y-13762500D01*
X412500Y-13776786D01*
X426786Y-13791071D01*
X441071Y-13819643D01*
X441071Y-13891071D01*
X426786Y-13919643D01*
X412500Y-13933929D01*
X383928Y-13948214D01*
X298214Y-13948214D01*
X269643Y-13933929D01*
X255357Y-13919643D01*
X569643Y-13919643D02*
X583928Y-13933929D01*
X569643Y-13948214D01*
X555357Y-13933929D01*
X569643Y-13919643D01*
X569643Y-13948214D01*
X698214Y-13676786D02*
X712500Y-13662500D01*
X741071Y-13648214D01*
X812500Y-13648214D01*
X841071Y-13662500D01*
X855357Y-13676786D01*
X869643Y-13705357D01*
X869643Y-13733929D01*
X855357Y-13776786D01*
X683928Y-13948214D01*
X869643Y-13948214D01*
X1055357Y-13648214D02*
X1083928Y-13648214D01*
X1112500Y-13662500D01*
X1126786Y-13676786D01*
X1141071Y-13705357D01*
X1155357Y-13762500D01*
X1155357Y-13833929D01*
X1141071Y-13891071D01*
X1126786Y-13919643D01*
X1112500Y-13933929D01*
X1083928Y-13948214D01*
X1055357Y-13948214D01*
X1026786Y-13933929D01*
X1012500Y-13919643D01*
X998214Y-13891071D01*
X983928Y-13833929D01*
X983928Y-13762500D01*
X998214Y-13705357D01*
X1012500Y-13676786D01*
X1026786Y-13662500D01*
X1055357Y-13648214D01*
X1341071Y-13648214D02*
X1369643Y-13648214D01*
X1398214Y-13662500D01*
X1412500Y-13676786D01*
X1426786Y-13705357D01*
X1441071Y-13762500D01*
X1441071Y-13833929D01*
X1426786Y-13891071D01*
X1412500Y-13919643D01*
X1398214Y-13933929D01*
X1369643Y-13948214D01*
X1341071Y-13948214D01*
X1312500Y-13933929D01*
X1298214Y-13919643D01*
X1283928Y-13891071D01*
X1269643Y-13833929D01*
X1269643Y-13762500D01*
X1283928Y-13705357D01*
X1298214Y-13676786D01*
X1312500Y-13662500D01*
X1341071Y-13648214D01*
X1569643Y-13948214D02*
X1569643Y-13748214D01*
X1569643Y-13776786D02*
X1583928Y-13762500D01*
X1612500Y-13748214D01*
X1655357Y-13748214D01*
X1683928Y-13762500D01*
X1698214Y-13791071D01*
X1698214Y-13948214D01*
X1698214Y-13791071D02*
X1712500Y-13762500D01*
X1741071Y-13748214D01*
X1783928Y-13748214D01*
X1812500Y-13762500D01*
X1826786Y-13791071D01*
X1826786Y-13948214D01*
X1969643Y-13948214D02*
X1969643Y-13748214D01*
X1969643Y-13776786D02*
X1983928Y-13762500D01*
X2012500Y-13748214D01*
X2055357Y-13748214D01*
X2083928Y-13762500D01*
X2098214Y-13791071D01*
X2098214Y-13948214D01*
X2098214Y-13791071D02*
X2112500Y-13762500D01*
X2141071Y-13748214D01*
X2183928Y-13748214D01*
X2212500Y-13762500D01*
X2226786Y-13791071D01*
X2226786Y-13948214D01*
X2812500Y-13633929D02*
X2555357Y-14019643D01*
X3198214Y-13648214D02*
X3226786Y-13648214D01*
X3255357Y-13662500D01*
X3269643Y-13676786D01*
X3283928Y-13705357D01*
X3298214Y-13762500D01*
X3298214Y-13833929D01*
X3283928Y-13891071D01*
X3269643Y-13919643D01*
X3255357Y-13933929D01*
X3226786Y-13948214D01*
X3198214Y-13948214D01*
X3169643Y-13933929D01*
X3155357Y-13919643D01*
X3141071Y-13891071D01*
X3126786Y-13833929D01*
X3126786Y-13762500D01*
X3141071Y-13705357D01*
X3155357Y-13676786D01*
X3169643Y-13662500D01*
X3198214Y-13648214D01*
X3426786Y-13919643D02*
X3441071Y-13933929D01*
X3426786Y-13948214D01*
X3412500Y-13933929D01*
X3426786Y-13919643D01*
X3426786Y-13948214D01*
X3726786Y-13948214D02*
X3555357Y-13948214D01*
X3641071Y-13948214D02*
X3641071Y-13648214D01*
X3612500Y-13691071D01*
X3583928Y-13719643D01*
X3555357Y-13733929D01*
X3841071Y-13676786D02*
X3855357Y-13662500D01*
X3883928Y-13648214D01*
X3955357Y-13648214D01*
X3983928Y-13662500D01*
X3998214Y-13676786D01*
X4012500Y-13705357D01*
X4012500Y-13733929D01*
X3998214Y-13776786D01*
X3826786Y-13948214D01*
X4012500Y-13948214D01*
X4269643Y-13648214D02*
X4212500Y-13648214D01*
X4183928Y-13662500D01*
X4169643Y-13676786D01*
X4141071Y-13719643D01*
X4126786Y-13776786D01*
X4126786Y-13891071D01*
X4141071Y-13919643D01*
X4155357Y-13933929D01*
X4183928Y-13948214D01*
X4241071Y-13948214D01*
X4269643Y-13933929D01*
X4283928Y-13919643D01*
X4298214Y-13891071D01*
X4298214Y-13819643D01*
X4283928Y-13791071D01*
X4269643Y-13776786D01*
X4241071Y-13762500D01*
X4183928Y-13762500D01*
X4155357Y-13776786D01*
X4141071Y-13791071D01*
X4126786Y-13819643D01*
X4483928Y-13648214D02*
X4512500Y-13648214D01*
X4541071Y-13662500D01*
X4555357Y-13676786D01*
X4569643Y-13705357D01*
X4583928Y-13762500D01*
X4583928Y-13833929D01*
X4569643Y-13891071D01*
X4555357Y-13919643D01*
X4541071Y-13933929D01*
X4512500Y-13948214D01*
X4483928Y-13948214D01*
X4455357Y-13933929D01*
X4441071Y-13919643D01*
X4426786Y-13891071D01*
X4412500Y-13833929D01*
X4412500Y-13762500D01*
X4426786Y-13705357D01*
X4441071Y-13676786D01*
X4455357Y-13662500D01*
X4483928Y-13648214D01*
X4698214Y-13648214D02*
X4698214Y-13705357D01*
X4812500Y-13648214D02*
X4812500Y-13705357D01*
X5255357Y-14062500D02*
X5241071Y-14048214D01*
X5212500Y-14005357D01*
X5198214Y-13976786D01*
X5183928Y-13933929D01*
X5169643Y-13862500D01*
X5169643Y-13805357D01*
X5183928Y-13733929D01*
X5198214Y-13691071D01*
X5212500Y-13662500D01*
X5241071Y-13619643D01*
X5255357Y-13605357D01*
X5498214Y-13748214D02*
X5498214Y-13948214D01*
X5426786Y-13633929D02*
X5355357Y-13848214D01*
X5541071Y-13848214D01*
X5883928Y-13948214D02*
X5883928Y-13648214D01*
X6012500Y-13948214D02*
X6012500Y-13791071D01*
X5998214Y-13762500D01*
X5969643Y-13748214D01*
X5926786Y-13748214D01*
X5898214Y-13762500D01*
X5883928Y-13776786D01*
X6198214Y-13948214D02*
X6169643Y-13933929D01*
X6155357Y-13919643D01*
X6141071Y-13891071D01*
X6141071Y-13805357D01*
X6155357Y-13776786D01*
X6169643Y-13762500D01*
X6198214Y-13748214D01*
X6241071Y-13748214D01*
X6269643Y-13762500D01*
X6283928Y-13776786D01*
X6298214Y-13805357D01*
X6298214Y-13891071D01*
X6283928Y-13919643D01*
X6269643Y-13933929D01*
X6241071Y-13948214D01*
X6198214Y-13948214D01*
X6469643Y-13948214D02*
X6441071Y-13933929D01*
X6426786Y-13905357D01*
X6426786Y-13648214D01*
X6698214Y-13933929D02*
X6669643Y-13948214D01*
X6612500Y-13948214D01*
X6583928Y-13933929D01*
X6569643Y-13905357D01*
X6569643Y-13791071D01*
X6583928Y-13762500D01*
X6612500Y-13748214D01*
X6669643Y-13748214D01*
X6698214Y-13762500D01*
X6712500Y-13791071D01*
X6712500Y-13819643D01*
X6569643Y-13848214D01*
X6826786Y-13933929D02*
X6855357Y-13948214D01*
X6912500Y-13948214D01*
X6941071Y-13933929D01*
X6955357Y-13905357D01*
X6955357Y-13891071D01*
X6941071Y-13862500D01*
X6912500Y-13848214D01*
X6869643Y-13848214D01*
X6841071Y-13833929D01*
X6826786Y-13805357D01*
X6826786Y-13791071D01*
X6841071Y-13762500D01*
X6869643Y-13748214D01*
X6912500Y-13748214D01*
X6941071Y-13762500D01*
X7055357Y-14062500D02*
X7069643Y-14048214D01*
X7098214Y-14005357D01*
X7112500Y-13976786D01*
X7126786Y-13933929D01*
X7141071Y-13862500D01*
X7141071Y-13805357D01*
X7126786Y-13733929D01*
X7112500Y-13691071D01*
X7098214Y-13662500D01*
X7069643Y-13619643D01*
X7055357Y-13605357D01*
M02*
